<svg width="26" height="24" viewBox="0 0 26 24" fill="none" xmlns="http://www.w3.org/2000/svg">
<path d="M3.48039 7.51C4.35775 5.85324 5.70369 4.46051 7.36776 3.48747C9.03184 2.51443 10.9485 1.99942 12.9035 2C15.7454 2 18.1328 2.99 19.9581 4.605L16.9349 7.473C15.8413 6.482 14.4515 5.977 12.9035 5.977C10.1565 5.977 7.83129 7.737 7.0035 10.1C6.7926 10.7 6.67239 11.34 6.67239 12C6.67239 12.66 6.7926 13.3 7.0035 13.9C7.83235 16.264 10.1565 18.023 12.9035 18.023C14.3218 18.023 15.5292 17.668 16.474 17.068C17.0218 16.726 17.4907 16.2822 17.8525 15.7635C18.2143 15.2448 18.4613 14.6619 18.5788 14.05H12.9035V10.182H22.8348C22.9593 10.836 23.0267 11.518 23.0267 12.227C23.0267 15.273 21.8773 17.837 19.8822 19.577C18.138 21.105 15.7506 22 12.9035 22C11.5185 22.0005 10.147 21.7422 8.86739 21.2399C7.58775 20.7375 6.42505 20.0009 5.44574 19.0722C4.46643 18.1436 3.68971 17.041 3.15997 15.8275C2.63022 14.614 2.35784 13.3134 2.3584 12C2.3584 10.386 2.76544 8.86 3.48039 7.51Z" fill="#EFF3FF"/>
</svg>
