<svg width="80" height="171" viewBox="0 0 80 171" fill="none" xmlns="http://www.w3.org/2000/svg">
<path d="M45.0005 5C45.0005 7.76562 47.2349 10 50.0005 10H55.0005C57.7661 10 60.0005 12.2344 60.0005 15C60.0005 17.7656 57.7661 20 55.0005 20H5.00049C2.23486 20 0.000488281 22.2344 0.000488281 25C0.000488281 27.7656 2.23486 30 5.00049 30H55.0005C63.2817 30 70.0005 23.2812 70.0005 15C70.0005 6.71875 63.2817 0 55.0005 0H50.0005C47.2349 0 45.0005 2.23438 45.0005 5ZM55.0005 60C55.0005 62.7656 57.2349 65 60.0005 65H65.0005C73.2817 65 80.0005 58.2812 80.0005 50C80.0005 41.7188 73.2817 35 65.0005 35H5.00049C2.23486 35 0.000488281 37.2344 0.000488281 40C0.000488281 42.7656 2.23486 45 5.00049 45H65.0005C67.7661 45 70.0005 47.2344 70.0005 50C70.0005 52.7656 67.7661 55 65.0005 55H60.0005C57.2349 55 55.0005 57.2344 55.0005 60ZM20.0005 80H25.0005C33.2817 80 40.0005 73.2812 40.0005 65C40.0005 56.7188 33.2817 50 25.0005 50H5.00049C2.23486 50 0.000488281 52.2344 0.000488281 55C0.000488281 57.7656 2.23486 60 5.00049 60H25.0005C27.7661 60 30.0005 62.2344 30.0005 65C30.0005 67.7656 27.7661 70 25.0005 70H20.0005C17.2349 70 15.0005 72.2344 15.0005 75C15.0005 77.7656 17.2349 80 20.0005 80Z" fill="white"/>
<path d="M15.1763 116L11.2036 100.93L9.58643 100.754V98.9375H15.8911V100.754L14.0747 101.023L16.1724 109.789L16.606 111.582L16.6763 111.594L17.2153 109.789L20.6138 98.9375H22.9224L26.4146 109.965L26.9302 111.711H27.0005L27.4575 109.965L29.5903 101.023L27.6685 100.754V98.9375H33.856V100.754L32.3442 100.93L28.4185 116H25.6997L22.2661 105.254L21.8325 103.707H21.7622L21.3052 105.277L17.8481 116H15.1763ZM34.6767 116V114.195L36.4346 113.844V105.488L34.5713 105.137V103.32H39.3877V113.844L41.1338 114.195V116H34.6767ZM36.3174 100.449V97.7188H39.3877V100.449H36.3174ZM41.9194 116V114.195L43.6772 113.844V105.488L41.8256 105.137V103.32H46.396L46.5483 105.16C46.9702 104.504 47.4936 103.996 48.1186 103.637C48.7514 103.27 49.4663 103.086 50.2631 103.086C51.5678 103.086 52.5835 103.488 53.31 104.293C54.0366 105.09 54.3999 106.34 54.3999 108.043V113.844L56.1577 114.195V116H49.7944V114.195L51.4467 113.844V108.066C51.4467 107.105 51.2553 106.426 50.8725 106.027C50.4897 105.621 49.9194 105.418 49.1616 105.418C48.5913 105.418 48.0913 105.547 47.6616 105.805C47.2397 106.055 46.896 106.406 46.6303 106.859V113.844L48.2358 114.195V116H41.9194ZM61.7949 116.246C60.7714 116.246 59.8964 115.988 59.1699 115.473C58.4433 114.957 57.8847 114.238 57.4941 113.316C57.1113 112.387 56.9199 111.305 56.9199 110.07V109.824C56.9199 108.473 57.1113 107.293 57.4941 106.285C57.8847 105.277 58.4433 104.492 59.1699 103.93C59.9042 103.367 60.7753 103.086 61.7831 103.086C62.5097 103.086 63.1425 103.227 63.6816 103.508C64.2285 103.781 64.6972 104.176 65.0878 104.691V99.8867L63.2246 99.5352V97.7188H65.0878H68.041V113.844L69.7988 114.195V116H65.4863L65.2519 114.465C64.8535 115.051 64.3652 115.496 63.7871 115.801C63.2167 116.098 62.5527 116.246 61.7949 116.246ZM62.6269 113.914C63.1894 113.914 63.6738 113.793 64.08 113.551C64.4863 113.301 64.8222 112.941 65.0878 112.473V106.883C64.83 106.43 64.4941 106.074 64.08 105.816C63.6738 105.551 63.1972 105.418 62.6503 105.418C62.0097 105.418 61.4824 105.605 61.0683 105.98C60.6621 106.348 60.3613 106.863 60.166 107.527C59.9706 108.184 59.873 108.949 59.873 109.824V110.07C59.873 111.242 60.0878 112.176 60.5175 112.871C60.955 113.566 61.6581 113.914 62.6269 113.914Z" fill="white"/>
<g clip-path="url(#clip0_1200_4605)">
<path d="M28.0005 138.429C24.0222 138.429 20.2069 139.858 17.3939 142.404C14.5808 144.949 13.0005 148.401 13.0005 152C13.0005 155.599 14.5808 159.051 17.3939 161.596C20.2069 164.142 24.0222 165.571 28.0005 165.571H52.0005C55.9787 165.571 59.794 164.142 62.6071 161.596C65.4201 159.051 67.0005 155.599 67.0005 152C67.0005 148.401 65.4201 144.949 62.6071 142.404C59.794 139.858 55.9787 138.429 52.0005 138.429H28.0005ZM28.0005 133H52.0005C54.7582 133 57.489 133.491 60.0368 134.446C62.5847 135.401 64.8997 136.801 66.8497 138.565C68.7998 140.329 70.3466 142.424 71.402 144.729C72.4573 147.034 73.0005 149.505 73.0005 152C73.0005 154.495 72.4573 156.966 71.402 159.271C70.3466 161.576 68.7998 163.671 66.8497 165.435C64.8997 167.199 62.5847 168.599 60.0368 169.554C57.489 170.509 54.7582 171 52.0005 171H28.0005C25.2427 171 22.512 170.509 19.9641 169.554C17.4163 168.599 15.1013 167.199 13.1512 165.435C11.2012 163.671 9.65437 161.576 8.59902 159.271C7.54367 156.966 7.00049 154.495 7.00049 152C7.00049 149.505 7.54367 147.034 8.59902 144.729C9.65437 142.424 11.2012 140.329 13.1512 138.565C15.1013 136.801 17.4163 135.401 19.9641 134.446C22.512 133.491 25.2427 133 28.0005 133ZM28.0005 160.143C25.6135 160.143 23.3244 159.285 21.6365 157.758C19.9487 156.231 19.0005 154.16 19.0005 152C19.0005 149.84 19.9487 147.769 21.6365 146.242C23.3244 144.715 25.6135 143.857 28.0005 143.857C30.3874 143.857 32.6766 144.715 34.3645 146.242C36.0523 147.769 37.0005 149.84 37.0005 152C37.0005 154.16 36.0523 156.231 34.3645 157.758C32.6766 159.285 30.3874 160.143 28.0005 160.143Z" fill="white"/>
</g>
<defs>
<clipPath id="clip0_1200_4605">
<rect width="66" height="38" fill="white" transform="translate(7.00049 133)"/>
</clipPath>
</defs>
</svg>
