<svg width="80" height="171" viewBox="0 0 80 171" fill="none" xmlns="http://www.w3.org/2000/svg">
<path d="M61.4918 57.1208H18.5082C13.913 57.0918 9.49078 55.3685 6.0917 52.2822C2.69262 49.1959 0.556665 44.9646 0.0944876 40.4017C-0.36769 35.8387 0.876541 31.2664 3.58796 27.5636C6.29938 23.8609 10.2866 21.2891 14.783 20.3429C16.0201 14.5846 19.1984 9.42379 23.7875 5.72167C28.3767 2.01955 34.0991 0 40 0C45.9009 0 51.6233 2.01955 56.2125 5.72167C60.8016 9.42379 63.9799 14.5846 65.217 20.3429C69.7134 21.2891 73.7006 23.8609 76.412 27.5636C79.1235 31.2664 80.3677 35.8387 79.9055 40.4017C79.4433 44.9646 77.3074 49.1959 73.9083 52.2822C70.5092 55.3685 66.087 57.0918 61.4918 57.1208ZM40 5.64311C35.1103 5.64797 30.3907 7.43519 26.7285 10.6688C23.0663 13.9024 20.7137 18.3597 20.113 23.2027L19.941 25.6622H17.4766C14.0567 25.7987 10.8311 27.2856 8.50954 29.7956C6.18798 32.3056 4.96059 35.6332 5.09739 39.0464C5.23419 42.4596 6.72397 45.6788 9.23899 47.9957C11.754 50.3127 15.0883 51.5376 18.5082 51.4011H61.4918C64.9117 51.5376 68.246 50.3127 70.761 47.9957C73.276 45.6788 74.7658 42.4596 74.9026 39.0464C75.0394 35.6332 73.812 32.3056 71.4905 29.7956C69.1689 27.2856 65.9433 25.7987 62.5234 25.6622H60.059L59.7724 23.3171C59.2 18.4728 56.8751 14.0038 53.2343 10.7494C49.5935 7.49501 44.8874 5.67923 40 5.64311ZM34.2689 79.9998C33.8193 80.0052 33.3757 79.897 32.9794 79.6852C32.3044 79.3424 31.793 78.7468 31.5567 78.0287C31.3204 77.3106 31.3786 76.5284 31.7185 75.853L37.4496 64.4135C37.6011 64.0505 37.826 63.7225 38.1102 63.4501C38.3945 63.1777 38.7319 62.9667 39.1015 62.8304C39.4712 62.6941 39.865 62.6353 40.2584 62.6577C40.6518 62.6801 41.0364 62.7833 41.388 62.9607C41.7397 63.1382 42.0509 63.3861 42.3022 63.689C42.5535 63.9919 42.7395 64.3433 42.8486 64.7212C42.9577 65.0991 42.9875 65.4954 42.9362 65.8853C42.8849 66.2752 42.7535 66.6504 42.5504 66.9874L36.8192 78.4269C36.5811 78.8985 36.2168 79.2951 35.7666 79.5728C35.3164 79.8504 34.798 79.9982 34.2689 79.9998ZM51.4623 79.9998C51.0127 80.0052 50.5691 79.897 50.1728 79.6852C49.4979 79.3424 48.9864 78.7468 48.7501 78.0287C48.5139 77.3106 48.572 76.5284 48.9119 75.853L54.6431 64.4135C54.7945 64.0505 55.0194 63.7225 55.3036 63.4501C55.5879 63.1777 55.9253 62.9667 56.2949 62.8304C56.6646 62.6941 57.0584 62.6353 57.4518 62.6577C57.8452 62.6801 58.2298 62.7833 58.5814 62.9607C58.9331 63.1382 59.2443 63.3861 59.4956 63.689C59.7469 63.9919 59.9329 64.3433 60.042 64.7212C60.1511 65.0991 60.1809 65.4954 60.1296 65.8853C60.0783 66.2752 59.9469 66.6504 59.7438 66.9874L54.0126 78.4269C53.7745 78.8985 53.4102 79.2951 52.96 79.5728C52.5098 79.8504 51.9914 79.9982 51.4623 79.9998ZM17.0755 79.9998C16.6259 80.0052 16.1823 79.897 15.786 79.6852C15.111 79.3424 14.5996 78.7468 14.3633 78.0287C14.127 77.3106 14.1852 76.5284 14.5251 75.853L20.2562 64.4135C20.4077 64.0505 20.6326 63.7225 20.9168 63.4501C21.2011 63.1777 21.5385 62.9667 21.9081 62.8304C22.2778 62.6941 22.6716 62.6353 23.065 62.6577C23.4584 62.6801 23.843 62.7833 24.1946 62.9607C24.5463 63.1382 24.8575 63.3861 25.1088 63.689C25.3601 63.9919 25.5461 64.3433 25.6552 64.7212C25.7643 65.0991 25.7941 65.4954 25.7428 65.8853C25.6915 66.2752 25.5601 66.6504 25.357 66.9874L19.6258 78.4269C19.3877 78.8985 19.0234 79.2951 18.5732 79.5728C18.123 79.8504 17.6046 79.9982 17.0755 79.9998Z" fill="white"/>
<path d="M14.7734 116V114.195L16.6367 113.844V101.105L14.7734 100.754V98.9375H22.6602C23.9414 98.9375 25.0352 99.1367 25.9414 99.5352C26.8477 99.9258 27.5391 100.488 28.0156 101.223C28.4922 101.957 28.7305 102.844 28.7305 103.883C28.7305 104.883 28.4922 105.754 28.0156 106.496C27.5469 107.238 26.8867 107.816 26.0352 108.23C25.1914 108.637 24.1992 108.848 23.0586 108.863L19.5898 108.898V113.844L21.4531 114.195V116H14.7734ZM25.8711 116L22.6133 108.148L25.3789 107.691L28.1445 113.891L29.4805 114.172V116H25.8711ZM19.5898 106.602H22.5312C23.6406 106.602 24.4609 106.379 24.9922 105.934C25.5234 105.48 25.7891 104.824 25.7891 103.965C25.7891 103.129 25.5312 102.465 25.0156 101.973C24.5 101.473 23.7148 101.223 22.6602 101.223H19.5898V106.602ZM34.8833 116.246C33.5942 116.246 32.5903 115.914 31.8716 115.25C31.1528 114.586 30.7934 113.672 30.7934 112.508C30.7934 111.711 31.0122 111.012 31.4497 110.41C31.8872 109.809 32.5278 109.34 33.3716 109.004C34.2153 108.66 35.2388 108.488 36.4419 108.488H38.3755V107.422C38.3755 106.75 38.1723 106.215 37.7661 105.816C37.3677 105.418 36.7856 105.219 36.02 105.219C35.5825 105.219 35.1958 105.273 34.8598 105.383C34.5239 105.484 34.2231 105.633 33.9575 105.828L33.688 107.539H31.52L31.4966 104.41C32.1216 104.004 32.8169 103.684 33.5825 103.449C34.3481 103.207 35.1997 103.086 36.1372 103.086C37.7466 103.086 39.0122 103.465 39.9341 104.223C40.8638 104.973 41.3286 106.051 41.3286 107.457V113.047C41.3286 113.219 41.3286 113.387 41.3286 113.551C41.3364 113.715 41.3481 113.875 41.3638 114.031L42.6528 114.195V116H38.7973C38.7192 115.727 38.645 115.461 38.5747 115.203C38.5122 114.945 38.4653 114.688 38.4341 114.43C38.0122 114.961 37.5005 115.398 36.8989 115.742C36.3052 116.078 35.6333 116.246 34.8833 116.246ZM35.5513 113.961C36.145 113.961 36.6997 113.824 37.2153 113.551C37.7309 113.27 38.1177 112.918 38.3755 112.496V110.375H36.4067C35.5239 110.375 34.8559 110.582 34.4028 110.996C33.9575 111.402 33.7348 111.879 33.7348 112.426C33.7348 112.918 33.8911 113.297 34.2036 113.562C34.5161 113.828 34.9653 113.961 35.5513 113.961ZM43.5322 116V114.195L45.29 113.844V105.488L43.4267 105.137V103.32H48.2431V113.844L49.9892 114.195V116H43.5322ZM45.1728 100.449V97.7188H48.2431V100.449H45.1728ZM50.7748 116V114.195L52.5327 113.844V105.488L50.6811 105.137V103.32H55.2514L55.4038 105.16C55.8256 104.504 56.3491 103.996 56.9741 103.637C57.6069 103.27 58.3217 103.086 59.1186 103.086C60.4233 103.086 61.4389 103.488 62.1655 104.293C62.892 105.09 63.2553 106.34 63.2553 108.043V113.844L65.0131 114.195V116H58.6498V114.195L60.3022 113.844V108.066C60.3022 107.105 60.1108 106.426 59.728 106.027C59.3452 105.621 58.7748 105.418 58.017 105.418C57.4467 105.418 56.9467 105.547 56.517 105.805C56.0952 106.055 55.7514 106.406 55.4858 106.859V113.844L57.0913 114.195V116H50.7748Z" fill="white"/>
<g clip-path="url(#clip0_1200_4591)">
<path d="M28 138.429C24.0218 138.429 20.2064 139.858 17.3934 142.404C14.5804 144.949 13 148.401 13 152C13 155.599 14.5804 159.051 17.3934 161.596C20.2064 164.142 24.0218 165.571 28 165.571H52C55.9782 165.571 59.7936 164.142 62.6066 161.596C65.4197 159.051 67 155.599 67 152C67 148.401 65.4197 144.949 62.6066 142.404C59.7936 139.858 55.9782 138.429 52 138.429H28ZM28 133H52C54.7578 133 57.4885 133.491 60.0363 134.446C62.5842 135.401 64.8992 136.801 66.8492 138.565C68.7993 140.329 70.3461 142.424 71.4015 144.729C72.4568 147.034 73 149.505 73 152C73 154.495 72.4568 156.966 71.4015 159.271C70.3461 161.576 68.7993 163.671 66.8492 165.435C64.8992 167.199 62.5842 168.599 60.0363 169.554C57.4885 170.509 54.7578 171 52 171H28C25.2422 171 22.5115 170.509 19.9636 169.554C17.4158 168.599 15.1008 167.199 13.1508 165.435C11.2007 163.671 9.65388 161.576 8.59853 159.271C7.54318 156.966 7 154.495 7 152C7 149.505 7.54318 147.034 8.59853 144.729C9.65388 142.424 11.2007 140.329 13.1508 138.565C15.1008 136.801 17.4158 135.401 19.9636 134.446C22.5115 133.491 25.2422 133 28 133ZM28 160.143C25.6131 160.143 23.3239 159.285 21.636 157.758C19.9482 156.231 19 154.16 19 152C19 149.84 19.9482 147.769 21.636 146.242C23.3239 144.715 25.6131 143.857 28 143.857C30.3869 143.857 32.6761 144.715 34.364 146.242C36.0518 147.769 37 149.84 37 152C37 154.16 36.0518 156.231 34.364 157.758C32.6761 159.285 30.3869 160.143 28 160.143Z" fill="white"/>
</g>
<defs>
<clipPath id="clip0_1200_4591">
<rect width="66" height="38" fill="white" transform="translate(7 133)"/>
</clipPath>
</defs>
</svg>
