<svg width="80" height="80" viewBox="0 0 80 80" fill="none" xmlns="http://www.w3.org/2000/svg">
<path d="M45 5C45 7.76562 47.2344 10 50 10H55C57.7656 10 60 12.2344 60 15C60 17.7656 57.7656 20 55 20H5C2.23438 20 0 22.2344 0 25C0 27.7656 2.23438 30 5 30H55C63.2812 30 70 23.2812 70 15C70 6.71875 63.2812 0 55 0H50C47.2344 0 45 2.23438 45 5ZM55 60C55 62.7656 57.2344 65 60 65H65C73.2812 65 80 58.2812 80 50C80 41.7188 73.2812 35 65 35H5C2.23438 35 0 37.2344 0 40C0 42.7656 2.23438 45 5 45H65C67.7656 45 70 47.2344 70 50C70 52.7656 67.7656 55 65 55H60C57.2344 55 55 57.2344 55 60ZM20 80H25C33.2812 80 40 73.2812 40 65C40 56.7188 33.2812 50 25 50H5C2.23438 50 0 52.2344 0 55C0 57.7656 2.23438 60 5 60H25C27.7656 60 30 62.2344 30 65C30 67.7656 27.7656 70 25 70H20C17.2344 70 15 72.2344 15 75C15 77.7656 17.2344 80 20 80Z" fill="white"/>
</svg>
