<svg width="96" height="171" viewBox="0 0 96 171" fill="none" xmlns="http://www.w3.org/2000/svg">
<path d="M44 50.9091H24L52 0V29.0909H72L44 80V50.9091Z" fill="white"/>
<path d="M4.82812 116V114.195L6.69141 113.844V101.199H3.25781L3 103.379H0.785156V98.9375H15.5625V103.379H13.3359L13.0781 101.199H9.64453V113.844L11.5078 114.195V116H4.82812ZM16.4419 116V114.195L18.1997 113.844V99.8867L16.3364 99.5352V97.7188H21.1411V104.961C21.5552 104.367 22.0669 103.906 22.6763 103.578C23.2856 103.25 23.9731 103.086 24.7388 103.086C26.0434 103.086 27.0669 103.504 27.8091 104.34C28.5591 105.168 28.9341 106.449 28.9341 108.184V113.844L30.6919 114.195V116H24.3286V114.195L25.9927 113.844V108.16C25.9927 107.191 25.7973 106.492 25.4067 106.062C25.0161 105.633 24.4419 105.418 23.6841 105.418C23.145 105.418 22.6567 105.539 22.2192 105.781C21.7895 106.016 21.4302 106.348 21.1411 106.777V113.844L22.8052 114.195V116H16.4419ZM36.4931 116.246C35.1338 116.246 34.0713 115.816 33.3056 114.957C32.5478 114.09 32.1689 112.746 32.1689 110.926V105.488L30.7392 105.137V103.32H32.1689H35.122V110.949C35.122 112.043 35.2939 112.812 35.6377 113.258C35.9892 113.695 36.5283 113.914 37.2548 113.914C37.8955 113.914 38.4384 113.789 38.8838 113.539C39.3369 113.281 39.6963 112.918 39.9619 112.449V105.488L38.3681 105.137V103.32H39.9619H42.915V113.844L44.415 114.195V116H40.3017L40.1025 114.277C39.7041 114.91 39.1963 115.398 38.5791 115.742C37.9697 116.078 37.2744 116.246 36.4931 116.246ZM45.2592 116V114.195L47.017 113.844V105.488L45.1655 105.137V103.32H49.7358L49.8881 105.16C50.31 104.504 50.8334 103.996 51.4584 103.637C52.0913 103.27 52.8061 103.086 53.603 103.086C54.9077 103.086 55.9233 103.488 56.6498 104.293C57.3764 105.09 57.7397 106.34 57.7397 108.043V113.844L59.4975 114.195V116H53.1342V114.195L54.7866 113.844V108.066C54.7866 107.105 54.5952 106.426 54.2123 106.027C53.8295 105.621 53.2592 105.418 52.5014 105.418C51.9311 105.418 51.4311 105.547 51.0014 105.805C50.5795 106.055 50.2358 106.406 49.9702 106.859V113.844L51.5756 114.195V116H45.2592ZM65.1347 116.246C64.1113 116.246 63.2363 115.988 62.5097 115.473C61.7831 114.957 61.2245 114.238 60.8339 113.316C60.4511 112.387 60.2597 111.305 60.2597 110.07V109.824C60.2597 108.473 60.4511 107.293 60.8339 106.285C61.2245 105.277 61.7831 104.492 62.5097 103.93C63.2441 103.367 64.1152 103.086 65.123 103.086C65.8495 103.086 66.4823 103.227 67.0214 103.508C67.5683 103.781 68.037 104.176 68.4277 104.691V99.8867L66.5644 99.5352V97.7188H68.4277H71.3808V113.844L73.1386 114.195V116H68.8261L68.5917 114.465C68.1933 115.051 67.705 115.496 67.1269 115.801C66.5566 116.098 65.8925 116.246 65.1347 116.246ZM65.9667 113.914C66.5292 113.914 67.0136 113.793 67.4198 113.551C67.8261 113.301 68.162 112.941 68.4277 112.473V106.883C68.1698 106.43 67.8339 106.074 67.4198 105.816C67.0136 105.551 66.537 105.418 65.9902 105.418C65.3495 105.418 64.8222 105.605 64.4081 105.98C64.0019 106.348 63.7011 106.863 63.5058 107.527C63.3105 108.184 63.2128 108.949 63.2128 109.824V110.07C63.2128 111.242 63.4277 112.176 63.8573 112.871C64.2948 113.566 64.998 113.914 65.9667 113.914ZM79.8539 116.246C78.6586 116.246 77.6156 115.98 76.725 115.449C75.8422 114.91 75.1547 114.168 74.6625 113.223C74.1781 112.277 73.9359 111.195 73.9359 109.977V109.484C73.9359 108.25 74.1742 107.152 74.6508 106.191C75.1352 105.223 75.7992 104.465 76.643 103.918C77.4867 103.363 78.4477 103.086 79.5258 103.086C80.6742 103.086 81.6352 103.316 82.4086 103.777C83.1898 104.238 83.7797 104.895 84.1781 105.746C84.5766 106.59 84.7758 107.605 84.7758 108.793V110.48H76.9945L76.9711 110.539C77.0023 111.203 77.1391 111.793 77.3812 112.309C77.6312 112.824 77.9828 113.23 78.4359 113.527C78.8969 113.824 79.4555 113.973 80.1117 113.973C80.7992 113.973 81.4242 113.879 81.9867 113.691C82.5492 113.504 83.0687 113.238 83.5453 112.895L84.4711 114.746C83.9711 115.168 83.3344 115.523 82.5609 115.812C81.7875 116.102 80.8852 116.246 79.8539 116.246ZM77.0414 108.406H81.9516V108.102C81.9516 107.547 81.8656 107.062 81.6937 106.648C81.5297 106.227 81.268 105.898 80.9086 105.664C80.557 105.43 80.1078 105.312 79.5609 105.312C79.0844 105.312 78.6664 105.445 78.307 105.711C77.9477 105.977 77.6586 106.34 77.4398 106.801C77.2289 107.254 77.0844 107.77 77.0062 108.348L77.0414 108.406ZM86.1005 116V114.195L87.8583 113.844V105.488L86.0067 105.137V103.32H90.577L90.7294 104.914L90.7528 105.172C91.0888 104.5 91.4989 103.984 91.9833 103.625C92.4755 103.266 93.0497 103.086 93.7059 103.086C93.9247 103.086 94.1552 103.105 94.3973 103.145C94.6473 103.184 94.8505 103.227 95.0067 103.273L94.6669 106.004L93.0145 105.91C92.4755 105.879 92.0302 105.984 91.6786 106.227C91.3348 106.469 91.0458 106.805 90.8114 107.234V113.844L92.5692 114.195V116H86.1005Z" fill="white"/>
<g clip-path="url(#clip0_1200_4595)">
<path d="M36 138.429C32.0218 138.429 28.2064 139.858 25.3934 142.404C22.5804 144.949 21 148.401 21 152C21 155.599 22.5804 159.051 25.3934 161.596C28.2064 164.142 32.0218 165.571 36 165.571H60C63.9782 165.571 67.7936 164.142 70.6066 161.596C73.4197 159.051 75 155.599 75 152C75 148.401 73.4197 144.949 70.6066 142.404C67.7936 139.858 63.9782 138.429 60 138.429H36ZM36 133H60C62.7578 133 65.4885 133.491 68.0363 134.446C70.5842 135.401 72.8992 136.801 74.8492 138.565C76.7993 140.329 78.3461 142.424 79.4015 144.729C80.4568 147.034 81 149.505 81 152C81 154.495 80.4568 156.966 79.4015 159.271C78.3461 161.576 76.7993 163.671 74.8492 165.435C72.8992 167.199 70.5842 168.599 68.0363 169.554C65.4885 170.509 62.7578 171 60 171H36C33.2422 171 30.5115 170.509 27.9636 169.554C25.4158 168.599 23.1008 167.199 21.1508 165.435C19.2007 163.671 17.6539 161.576 16.5985 159.271C15.5432 156.966 15 154.495 15 152C15 149.505 15.5432 147.034 16.5985 144.729C17.6539 142.424 19.2007 140.329 21.1508 138.565C23.1008 136.801 25.4158 135.401 27.9636 134.446C30.5115 133.491 33.2422 133 36 133ZM36 160.143C33.6131 160.143 31.3239 159.285 29.636 157.758C27.9482 156.231 27 154.16 27 152C27 149.84 27.9482 147.769 29.636 146.242C31.3239 144.715 33.6131 143.857 36 143.857C38.3869 143.857 40.6761 144.715 42.364 146.242C44.0518 147.769 45 149.84 45 152C45 154.16 44.0518 156.231 42.364 157.758C40.6761 159.285 38.3869 160.143 36 160.143Z" fill="white"/>
</g>
<defs>
<clipPath id="clip0_1200_4595">
<rect width="66" height="38" fill="white" transform="translate(15 133)"/>
</clipPath>
</defs>
</svg>
