<svg width="80" height="171" viewBox="0 0 80 171" fill="none" xmlns="http://www.w3.org/2000/svg">
<path d="M80.0005 40.0146L68.3814 34.695C67.391 29.2813 64.9148 26.1742 64.9148 26.1742C63.4325 24.3389 61.6719 22.8829 59.7337 21.8894C57.7955 20.8959 55.7178 20.3845 53.6195 20.3845C51.5212 20.3845 49.4435 20.8959 47.5053 21.8894C45.5672 22.8829 43.8066 24.3389 42.3243 26.1742L36.6862 33.1415L11.4291 0C7.61954 18.8304 11.4291 37.6608 20.7624 52.8192L0.000488281 77.6753C0.000488281 77.6753 33.8672 87.0905 53.6005 68.0248C64.1148 57.8564 66.4767 51.9248 67.9624 45.6637L80.0005 40.0146ZM59.8481 41.0502C58.3624 42.8862 55.9243 42.8862 54.4386 41.0502C54.0854 40.6147 53.8052 40.0974 53.6141 39.5279C53.4229 38.9584 53.3245 38.3479 53.3245 37.7314C53.3245 37.1148 53.4229 36.5043 53.6141 35.9349C53.8052 35.3654 54.0854 34.8481 54.4386 34.4125C55.9243 32.5766 58.3624 32.5766 59.8481 34.4125C61.3338 36.2485 61.3338 39.2143 59.8481 41.0502Z" fill="white"/>
<path d="M17.2739 116V114.195L19.1372 113.844V101.105L17.2739 100.754V98.9375H19.1372H24.7622C26.6763 98.9375 28.1685 99.3281 29.2388 100.109C30.3169 100.883 30.856 102.043 30.856 103.59C30.856 104.363 30.6333 105.059 30.188 105.676C29.7427 106.285 29.1255 106.738 28.3364 107.035C29.0239 107.184 29.6021 107.453 30.0708 107.844C30.5396 108.234 30.895 108.711 31.1372 109.273C31.3872 109.828 31.5122 110.438 31.5122 111.102C31.5122 112.703 30.9849 113.922 29.9302 114.758C28.8833 115.586 27.4224 116 25.5474 116H17.2739ZM22.0903 113.727H25.5474C26.5161 113.727 27.2583 113.504 27.7739 113.059C28.2974 112.605 28.5591 111.953 28.5591 111.102C28.5591 110.5 28.4614 109.988 28.2661 109.566C28.0708 109.145 27.7739 108.82 27.3755 108.594C26.9771 108.367 26.4653 108.254 25.8403 108.254H22.0903V113.727ZM22.0903 106.133H25.0903C25.9653 106.133 26.6528 105.922 27.1528 105.5C27.6528 105.078 27.9028 104.488 27.9028 103.73C27.9028 102.879 27.6372 102.25 27.106 101.844C26.5747 101.43 25.7935 101.223 24.7622 101.223H22.0903V106.133ZM32.3799 116V114.195L34.1377 113.844V105.488L32.2744 105.137V103.32H37.0908V113.844L38.8369 114.195V116H32.3799ZM34.0205 100.449V97.7188H37.0908V100.449H34.0205ZM39.8335 116V114.195L41.5913 113.844V105.488L39.7397 105.137V103.32H44.31L44.4624 104.914L44.4858 105.172C44.8217 104.5 45.2319 103.984 45.7163 103.625C46.2085 103.266 46.7827 103.086 47.4389 103.086C47.6577 103.086 47.8881 103.105 48.1303 103.145C48.3803 103.184 48.5835 103.227 48.7397 103.273L48.3999 106.004L46.7475 105.91C46.2085 105.879 45.7631 105.984 45.4116 106.227C45.0678 106.469 44.7788 106.805 44.5444 107.234V113.844L46.3022 114.195V116H39.8335ZM54.1542 116.246C53.1308 116.246 52.2558 115.988 51.5292 115.473C50.8027 114.957 50.2441 114.238 49.8535 113.316C49.4706 112.387 49.2792 111.305 49.2792 110.07V109.824C49.2792 108.473 49.4706 107.293 49.8535 106.285C50.2441 105.277 50.8027 104.492 51.5292 103.93C52.2636 103.367 53.1347 103.086 54.1425 103.086C54.8691 103.086 55.5019 103.227 56.041 103.508C56.5878 103.781 57.0566 104.176 57.4472 104.691V99.8867L55.5839 99.5352V97.7188H57.4472H60.4003V113.844L62.1581 114.195V116H57.8456L57.6113 114.465C57.2128 115.051 56.7246 115.496 56.1464 115.801C55.5761 116.098 54.9121 116.246 54.1542 116.246ZM54.9863 113.914C55.5488 113.914 56.0331 113.793 56.4394 113.551C56.8456 113.301 57.1816 112.941 57.4472 112.473V106.883C57.1894 106.43 56.8535 106.074 56.4394 105.816C56.0331 105.551 55.5566 105.418 55.0097 105.418C54.3691 105.418 53.8417 105.605 53.4277 105.98C53.0214 106.348 52.7206 106.863 52.5253 107.527C52.33 108.184 52.2324 108.949 52.2324 109.824V110.07C52.2324 111.242 52.4472 112.176 52.8769 112.871C53.3144 113.566 54.0175 113.914 54.9863 113.914Z" fill="white"/>
<g clip-path="url(#clip0_1200_4609)">
<path d="M28.0005 138.429C24.0222 138.429 20.2069 139.858 17.3939 142.404C14.5808 144.949 13.0005 148.401 13.0005 152C13.0005 155.599 14.5808 159.051 17.3939 161.596C20.2069 164.142 24.0222 165.571 28.0005 165.571H52.0005C55.9787 165.571 59.794 164.142 62.6071 161.596C65.4201 159.051 67.0005 155.599 67.0005 152C67.0005 148.401 65.4201 144.949 62.6071 142.404C59.794 139.858 55.9787 138.429 52.0005 138.429H28.0005ZM28.0005 133H52.0005C54.7582 133 57.489 133.491 60.0368 134.446C62.5847 135.401 64.8997 136.801 66.8497 138.565C68.7998 140.329 70.3466 142.424 71.402 144.729C72.4573 147.034 73.0005 149.505 73.0005 152C73.0005 154.495 72.4573 156.966 71.402 159.271C70.3466 161.576 68.7998 163.671 66.8497 165.435C64.8997 167.199 62.5847 168.599 60.0368 169.554C57.489 170.509 54.7582 171 52.0005 171H28.0005C25.2427 171 22.512 170.509 19.9641 169.554C17.4163 168.599 15.1013 167.199 13.1512 165.435C11.2012 163.671 9.65437 161.576 8.59902 159.271C7.54367 156.966 7.00049 154.495 7.00049 152C7.00049 149.505 7.54367 147.034 8.59902 144.729C9.65437 142.424 11.2012 140.329 13.1512 138.565C15.1013 136.801 17.4163 135.401 19.9641 134.446C22.512 133.491 25.2427 133 28.0005 133ZM28.0005 160.143C25.6135 160.143 23.3244 159.285 21.6365 157.758C19.9487 156.231 19.0005 154.16 19.0005 152C19.0005 149.84 19.9487 147.769 21.6365 146.242C23.3244 144.715 25.6135 143.857 28.0005 143.857C30.3874 143.857 32.6766 144.715 34.3645 146.242C36.0523 147.769 37.0005 149.84 37.0005 152C37.0005 154.16 36.0523 156.231 34.3645 157.758C32.6766 159.285 30.3874 160.143 28.0005 160.143Z" fill="white"/>
</g>
<defs>
<clipPath id="clip0_1200_4609">
<rect width="66" height="38" fill="white" transform="translate(7.00049 133)"/>
</clipPath>
</defs>
</svg>
