<svg width="80" height="80" viewBox="0 0 80 80" fill="none" xmlns="http://www.w3.org/2000/svg">
<path d="M61.4918 57.1208H18.5082C13.913 57.0918 9.49078 55.3685 6.0917 52.2822C2.69262 49.1959 0.556665 44.9646 0.0944876 40.4017C-0.36769 35.8387 0.876541 31.2664 3.58796 27.5636C6.29938 23.8609 10.2866 21.2891 14.783 20.3429C16.0201 14.5846 19.1984 9.42379 23.7875 5.72167C28.3767 2.01955 34.0991 0 40 0C45.9009 0 51.6233 2.01955 56.2125 5.72167C60.8016 9.42379 63.9799 14.5846 65.217 20.3429C69.7134 21.2891 73.7006 23.8609 76.412 27.5636C79.1235 31.2664 80.3677 35.8387 79.9055 40.4017C79.4433 44.9646 77.3074 49.1959 73.9083 52.2822C70.5092 55.3685 66.087 57.0918 61.4918 57.1208ZM40 5.64311C35.1103 5.64797 30.3907 7.43519 26.7285 10.6688C23.0663 13.9024 20.7137 18.3597 20.113 23.2027L19.941 25.6622H17.4766C14.0567 25.7987 10.8311 27.2856 8.50954 29.7956C6.18798 32.3056 4.96059 35.6332 5.09739 39.0464C5.23419 42.4596 6.72397 45.6788 9.23899 47.9957C11.754 50.3127 15.0883 51.5376 18.5082 51.4011H61.4918C64.9117 51.5376 68.246 50.3127 70.761 47.9957C73.276 45.6788 74.7658 42.4596 74.9026 39.0464C75.0394 35.6332 73.812 32.3056 71.4905 29.7956C69.1689 27.2856 65.9433 25.7987 62.5234 25.6622H60.059L59.7724 23.3171C59.2 18.4728 56.8751 14.0038 53.2343 10.7494C49.5935 7.49501 44.8874 5.67923 40 5.64311ZM34.2689 79.9998C33.8193 80.0052 33.3757 79.897 32.9794 79.6852C32.3044 79.3424 31.793 78.7468 31.5567 78.0287C31.3204 77.3106 31.3786 76.5284 31.7185 75.853L37.4496 64.4135C37.6011 64.0505 37.826 63.7225 38.1102 63.4501C38.3945 63.1777 38.7319 62.9667 39.1015 62.8304C39.4712 62.6941 39.865 62.6353 40.2584 62.6577C40.6518 62.6801 41.0364 62.7833 41.388 62.9607C41.7397 63.1382 42.0509 63.3861 42.3022 63.689C42.5535 63.9919 42.7395 64.3433 42.8486 64.7212C42.9577 65.0991 42.9875 65.4954 42.9362 65.8853C42.8849 66.2752 42.7535 66.6504 42.5504 66.9874L36.8192 78.4269C36.5811 78.8985 36.2168 79.2951 35.7666 79.5728C35.3164 79.8504 34.798 79.9982 34.2689 79.9998ZM51.4623 79.9998C51.0127 80.0052 50.5691 79.897 50.1728 79.6852C49.4979 79.3424 48.9864 78.7468 48.7501 78.0287C48.5139 77.3106 48.572 76.5284 48.9119 75.853L54.6431 64.4135C54.7945 64.0505 55.0194 63.7225 55.3036 63.4501C55.5879 63.1777 55.9253 62.9667 56.2949 62.8304C56.6646 62.6941 57.0584 62.6353 57.4518 62.6577C57.8452 62.6801 58.2298 62.7833 58.5814 62.9607C58.9331 63.1382 59.2443 63.3861 59.4956 63.689C59.7469 63.9919 59.9329 64.3433 60.042 64.7212C60.1511 65.0991 60.1809 65.4954 60.1296 65.8853C60.0783 66.2752 59.9469 66.6504 59.7438 66.9874L54.0126 78.4269C53.7745 78.8985 53.4102 79.2951 52.96 79.5728C52.5098 79.8504 51.9914 79.9982 51.4623 79.9998ZM17.0755 79.9998C16.6259 80.0052 16.1823 79.897 15.786 79.6852C15.111 79.3424 14.5996 78.7468 14.3633 78.0287C14.127 77.3106 14.1852 76.5284 14.5251 75.853L20.2562 64.4135C20.4077 64.0505 20.6326 63.7225 20.9168 63.4501C21.2011 63.1777 21.5385 62.9667 21.9081 62.8304C22.2778 62.6941 22.6716 62.6353 23.065 62.6577C23.4584 62.6801 23.843 62.7833 24.1946 62.9607C24.5463 63.1382 24.8575 63.3861 25.1088 63.689C25.3601 63.9919 25.5461 64.3433 25.6552 64.7212C25.7643 65.0991 25.7941 65.4954 25.7428 65.8853C25.6915 66.2752 25.5601 66.6504 25.357 66.9874L19.6258 78.4269C19.3877 78.8985 19.0234 79.2951 18.5732 79.5728C18.123 79.8504 17.6046 79.9982 17.0755 79.9998Z" fill="white"/>
</svg>
