<svg width="80" height="80" viewBox="0 0 80 80" fill="none" xmlns="http://www.w3.org/2000/svg">
<path d="M80 40.0146L68.381 34.695C67.3905 29.2813 64.9143 26.1742 64.9143 26.1742C63.432 24.3389 61.6714 22.8829 59.7332 21.8894C57.7951 20.8959 55.7174 20.3845 53.619 20.3845C51.5207 20.3845 49.443 20.8959 47.5049 21.8894C45.5667 22.8829 43.8061 24.3389 42.3238 26.1742L36.6857 33.1415L11.4286 0C7.61905 18.8304 11.4286 37.6608 20.7619 52.8192L0 77.6753C0 77.6753 33.8667 87.0905 53.6 68.0248C64.1143 57.8564 66.4762 51.9248 67.9619 45.6637L80 40.0146ZM59.8476 41.0502C58.3619 42.8862 55.9238 42.8862 54.4381 41.0502C54.0849 40.6147 53.8048 40.0974 53.6136 39.5279C53.4224 38.9584 53.324 38.3479 53.324 37.7314C53.324 37.1148 53.4224 36.5043 53.6136 35.9349C53.8048 35.3654 54.0849 34.8481 54.4381 34.4125C55.9238 32.5766 58.3619 32.5766 59.8476 34.4125C61.3333 36.2485 61.3333 39.2143 59.8476 41.0502Z" fill="white"/>
</svg>
