<svg width="80" height="80" viewBox="0 0 80 80" fill="none" xmlns="http://www.w3.org/2000/svg">
<path d="M0 36.5394V77.071C0 77.8478 0.248883 78.5928 0.691897 79.1421C1.13491 79.6914 1.73577 80 2.36228 80H63.7581C64.3846 80 64.9854 79.6914 65.4284 79.1421C65.8715 78.5928 66.1203 77.8478 66.1203 77.071V44.4184C62.3052 46.17 59.4516 48.932 56.7114 51.8757V51.8581C56.6706 51.9071 56.6296 51.9559 56.5885 52.0045L55.3034 53.4046L55.2302 53.4837C53.3334 55.3375 51.1912 56.7686 48.8993 57.7132C46.7071 58.6212 43.9834 59.1396 41.0352 59.3124C37.8453 59.6919 34.6339 58.9425 31.7735 57.1511C28.913 55.3597 26.5207 52.5997 24.8739 49.191C23.2271 45.7824 22.3933 41.8648 22.4691 37.8925C22.545 33.9202 23.5274 30.0559 25.3024 26.7477C26.6936 28.421 28.5565 29.3552 30.4947 29.3516C32.1342 29.3516 33.6531 28.6955 34.8839 27.5825C35.0658 27.436 35.1768 27.354 35.25 27.3071H35.2547C35.2925 27.3276 35.3563 27.3657 35.4532 27.4302C36.7572 28.6776 38.3582 29.3534 40.0053 29.3516C41.9022 29.3516 43.6361 28.4729 44.9519 27.0289C45.0302 26.9541 45.116 26.8921 45.207 26.8444C45.2737 26.8736 45.3372 26.9129 45.396 26.9615C46.2821 27.9593 47.3493 28.6773 48.5069 29.0547C49.6646 29.432 50.8786 29.4575 52.0458 29.129C52.2321 29.5181 52.4804 29.8561 52.7756 30.1223C53.0707 30.3884 53.4065 30.5772 53.7625 30.6772C54.1184 30.7771 54.4871 30.786 54.8459 30.7034C55.2047 30.6208 55.5462 30.4483 55.8495 30.1966C56.1528 29.9449 56.4115 29.6192 56.6099 29.2394C56.8083 28.8596 56.9422 28.4337 57.0034 27.9876C57.0646 27.5414 57.0518 27.0846 56.9659 26.6448C56.8799 26.205 56.7226 25.7915 56.5035 25.4296C57.4406 23.7844 57.9193 21.8051 57.867 19.792C57.8146 17.7788 57.2341 15.8418 56.2134 14.2749C55.1928 12.7079 53.7878 11.5965 52.2116 11.1093C50.6353 10.6222 48.974 10.7858 47.4796 11.5754C47.3995 11.4456 47.3184 11.3167 47.2362 11.1888C47.5845 10.5476 47.7423 9.77621 47.6824 9.0067C47.6225 8.23719 47.3488 7.51741 46.908 6.97059C46.4673 6.42376 45.887 6.0839 45.2664 6.00917C44.6458 5.93445 44.0236 6.12952 43.5062 6.56098C39.7974 2.94658 34.3972 0 26.9702 0C13.7083 0 0 16.6543 0 36.5394ZM23.4433 17.0468C23.1684 18.0272 23.0287 19.058 23.0299 20.0959C23.0299 21.5926 23.3157 23.0074 23.826 24.258C21.6324 27.9801 20.3519 32.4081 20.1382 37.0105C19.9244 41.6128 20.7866 46.1938 22.6212 50.2034C24.4557 54.2131 27.1847 57.481 30.4804 59.6148C33.7761 61.7486 37.4985 62.6576 41.2006 62.2326C42.8695 62.1422 44.532 61.9191 46.1779 61.5648C43.1731 63.3691 39.6698 64.5553 35.4319 64.5553C25.3946 64.5553 13.7083 53.3607 13.7083 38.6834C13.7083 27.8607 18.3219 20.8458 23.4433 17.0468ZM25.3922 20.0959C25.3921 18.9259 25.6538 17.7788 26.148 16.7821C26.6422 15.7854 27.3496 14.9781 28.1917 14.45C29.0337 13.922 29.9773 13.6937 30.9177 13.7907C31.8581 13.8877 32.7584 14.3061 33.5185 14.9995L33.5704 15.0463L33.6271 15.0873C34.0925 15.4183 34.6523 15.6907 35.2973 15.6819C35.9351 15.6731 36.5256 15.3949 37.069 14.9116L37.0973 14.8969L37.1776 14.8296C38.0145 14.1361 38.9988 13.767 40.0053 13.7693C41.0589 13.7693 42.0321 14.1647 42.8424 14.8384L42.8967 14.8823L42.9109 14.894L42.9322 14.9116L43.0833 15.0492L43.107 15.0697L43.1259 15.0873C43.7401 15.6116 44.4133 15.9484 45.1716 15.9426C45.9181 15.9397 46.6008 15.6058 47.2339 15.1254L47.2835 15.0873L47.3307 15.0434C48.1061 14.3185 49.0323 13.883 50.0004 13.788C50.9685 13.6931 51.9383 13.9427 52.796 14.5075C53.6537 15.0722 54.3635 15.9288 54.8422 16.9764C55.3209 18.024 55.5485 19.2193 55.4984 20.4218C55.4482 21.6243 55.1223 22.7841 54.559 23.7649C53.9957 24.7457 53.2184 25.5068 52.3183 25.9589C51.4182 26.4109 50.4328 26.5351 49.4777 26.3168C48.5227 26.0986 47.6377 25.5469 46.9268 24.7267L46.8559 24.6476L46.778 24.5832C46.289 24.1731 45.7197 23.8656 45.0606 23.9183C44.4228 23.9651 43.9101 24.3401 43.5086 24.7091L43.4613 24.7501L43.4188 24.7999C42.4828 25.8474 41.2661 26.4258 40.0053 26.4226C38.8123 26.4226 37.7139 25.9159 36.8469 25.0635L36.7808 24.9991L36.7099 24.9464C36.2776 24.6359 35.7296 24.2991 35.0681 24.3693C34.4539 24.4338 33.9437 24.838 33.5539 25.1602L33.5303 25.1807L33.509 25.2012C32.7486 25.8915 31.8488 26.3072 30.9095 26.4022C29.9702 26.4972 29.028 26.2677 28.1874 25.7393C27.3468 25.2109 26.6407 24.4042 26.1473 23.4086C25.6539 22.413 25.3926 21.2674 25.3922 20.0989V20.0959Z" fill="white"/>
<path d="M76.5404 27.8139C76.9898 27.8304 77.4374 27.7349 77.8566 27.533C78.2757 27.3312 78.658 27.0271 78.9806 26.6387C79.3033 26.2503 79.5598 25.7856 79.7349 25.2721C79.9101 24.7586 80.0003 24.2067 80.0003 23.6492C80.0003 23.0916 79.9101 22.5398 79.7349 22.0262C79.5598 21.5127 79.3033 21.048 78.9806 20.6597C78.658 20.2713 78.2757 19.9672 77.8566 19.7653C77.4374 19.5635 76.9898 19.468 76.5404 19.4845C75.6668 19.5166 74.8376 19.9695 74.2289 20.747C73.6201 21.5245 73.2796 22.5655 73.2796 23.6492C73.2796 24.7328 73.6201 25.7738 74.2289 26.5514C74.8376 27.3289 75.6668 27.7817 76.5404 27.8139ZM79.9007 45.0218C79.914 45.5791 79.837 46.134 79.6742 46.6538C79.5114 47.1735 79.2661 47.6474 78.9529 48.0475C78.6397 48.4475 78.2649 48.7655 77.8508 48.9827C77.4366 49.1999 76.9915 49.3118 76.5418 49.3118C76.0922 49.3118 75.6471 49.1999 75.2329 48.9827C74.8188 48.7655 74.444 48.4475 74.1308 48.0475C73.8175 47.6474 73.5723 47.1735 73.4095 46.6538C73.2467 46.134 73.1696 45.5791 73.183 45.0218C73.2089 43.9386 73.5741 42.9106 74.2012 42.1558C74.8283 41.401 75.6679 40.9788 76.5418 40.9788C77.4158 40.9788 78.2554 41.401 78.8825 42.1558C79.5096 42.9106 79.8748 43.9386 79.9007 45.0218ZM47.375 46.1165C47.8245 46.133 48.2721 46.0375 48.6912 45.8357C49.1104 45.6338 49.4926 45.3297 49.8153 44.9413C50.1379 44.553 50.3944 44.0883 50.5695 43.5748C50.7447 43.0612 50.835 42.5094 50.835 41.9518C50.835 41.3943 50.7447 40.8424 50.5695 40.3289C50.3944 39.8154 50.1379 39.3507 49.8153 38.9623C49.4926 38.5739 49.1104 38.2698 48.6912 38.068C48.2721 37.8661 47.8245 37.7706 47.375 37.7871C46.5014 37.8193 45.6723 38.2721 45.0635 39.0496C44.4548 39.8272 44.1143 40.8682 44.1143 41.9518C44.1143 43.0355 44.4548 44.0765 45.0635 44.854C45.6723 45.6315 46.5014 46.0844 47.375 46.1165Z" fill="white"/>
</svg>
