<svg width="104" height="50" viewBox="0 0 104 50" fill="none" xmlns="http://www.w3.org/2000/svg">
<rect width="104" height="50" fill="#0A77FF"/>
<path d="M21.076 30V19.0909H23.0522V24.1033H23.1854L27.4414 19.0909H29.8544L25.6357 23.9862L29.8917 30H27.516L24.2614 25.3232L23.0522 26.7507V30H21.076ZM31.6548 30V21.8182H33.5831V30H31.6548ZM32.6243 20.657C32.3189 20.657 32.0561 20.5558 31.8359 20.3533C31.6158 20.1474 31.5057 19.9006 31.5057 19.6129C31.5057 19.3217 31.6158 19.0749 31.8359 18.8725C32.0561 18.6665 32.3189 18.5636 32.6243 18.5636C32.9332 18.5636 33.196 18.6665 33.4126 18.8725C33.6328 19.0749 33.7429 19.3217 33.7429 19.6129C33.7429 19.9006 33.6328 20.1474 33.4126 20.3533C33.196 20.5558 32.9332 20.657 32.6243 20.657ZM35.566 30V21.8182H37.4356V23.1818H37.5209C37.67 22.7095 37.9257 22.3455 38.2879 22.0898C38.6537 21.8306 39.0709 21.701 39.5397 21.701C39.6462 21.701 39.7652 21.7063 39.8966 21.717C40.0315 21.7241 40.1434 21.7365 40.2322 21.7543V23.5281C40.1505 23.4996 40.0209 23.4748 39.8433 23.4535C39.6693 23.4286 39.5006 23.4162 39.3373 23.4162C38.9857 23.4162 38.6697 23.4925 38.3891 23.6452C38.1121 23.7944 37.8937 24.0021 37.7339 24.2685C37.5741 24.5348 37.4942 24.842 37.4942 25.19V30H35.566ZM41.5132 30V21.8182H43.4415V30H41.5132ZM42.4827 20.657C42.1773 20.657 41.9145 20.5558 41.6943 20.3533C41.4742 20.1474 41.3641 19.9006 41.3641 19.6129C41.3641 19.3217 41.4742 19.0749 41.6943 18.8725C41.9145 18.6665 42.1773 18.5636 42.4827 18.5636C42.7916 18.5636 43.0544 18.6665 43.271 18.8725C43.4912 19.0749 43.6013 19.3217 43.6013 19.6129C43.6013 19.9006 43.4912 20.1474 43.271 20.3533C43.0544 20.5558 42.7916 20.657 42.4827 20.657ZM45.4244 30V21.8182H47.2674V23.2085H47.3633C47.5337 22.7397 47.8161 22.3739 48.2102 22.1112C48.6044 21.8448 49.0749 21.7116 49.6218 21.7116C50.1758 21.7116 50.6428 21.8466 51.0227 22.1165C51.4063 22.3828 51.6761 22.7468 51.8324 23.2085H51.9176C52.0987 22.7539 52.4041 22.3917 52.8338 22.1218C53.267 21.8484 53.7802 21.7116 54.3732 21.7116C55.1261 21.7116 55.7404 21.9496 56.2163 22.4254C56.6921 22.9013 56.93 23.5955 56.93 24.5082V30H54.9964V24.8065C54.9964 24.2987 54.8615 23.9276 54.5916 23.6932C54.3217 23.4553 53.9915 23.3363 53.6009 23.3363C53.1357 23.3363 52.7717 23.4819 52.5089 23.7731C52.2496 24.0607 52.12 24.4354 52.12 24.897V30H50.229V24.7266C50.229 24.304 50.1012 23.9666 49.8455 23.7145C49.5934 23.4624 49.2631 23.3363 48.8548 23.3363C48.5778 23.3363 48.3256 23.4073 48.0984 23.5494C47.8711 23.6879 47.69 23.8849 47.555 24.1406C47.4201 24.3928 47.3526 24.6875 47.3526 25.0249V30H45.4244Z" fill="white"/>
<path d="M68.167 25H79.0003M74.8337 20L79.2444 24.4107C79.5698 24.7362 79.5698 25.2638 79.2444 25.5893L74.8337 30" stroke="white" stroke-width="1.67" stroke-linecap="round"/>
</svg>
