<svg width="692" height="533" viewBox="0 0 692 533" fill="none" xmlns="http://www.w3.org/2000/svg">
<g clip-path="url(#clip0_1209_10069)">
<path d="M114.771 431.966C114.696 431.631 114.59 431.305 114.452 430.992H114.562C114.723 430.947 114.881 430.893 115.037 430.831C119.454 435.709 123.476 440.946 127.063 446.493V448.276C123.422 442.493 119.31 437.037 114.771 431.966Z" fill="#1A1A1A"/>
<path d="M92.8444 412.822C92.9339 412.468 92.9755 412.102 92.968 411.736C98.0694 415.18 102.911 419.012 107.451 423.2C107.521 423.737 107.623 424.269 107.755 424.793C103.099 420.408 98.1134 416.406 92.8444 412.822Z" fill="#1A1A1A"/>
<path d="M84.2078 407.456C78.0999 403.994 71.744 401.013 65.195 398.539C63.0703 397.735 60.9646 397 58.8875 396.318C59.2898 396.159 59.6664 395.939 60.0045 395.665C61.825 396.274 63.6644 396.922 65.5277 397.613C72.6188 400.28 79.4849 403.538 86.0568 407.353C85.9142 407.353 85.7764 407.353 85.6338 407.353C85.1569 407.358 84.6807 407.393 84.2078 407.456Z" fill="#1A1A1A"/>
<path d="M53.1028 394.555C45.3939 392.376 37.5373 390.787 29.5982 389.802C29.737 389.501 29.8376 389.184 29.8977 388.857C37.3374 389.796 44.705 391.261 51.9478 393.24C52.2975 393.71 52.6838 394.149 53.1028 394.555Z" fill="#1A1A1A"/>
<path d="M96.7705 358.283C101.986 362.816 106.964 367.63 111.681 372.703C111.124 372.513 110.551 372.371 109.97 372.28C105.492 367.54 100.786 363.032 95.8674 358.775C96.1922 358.664 96.4972 358.5 96.7705 358.288V358.283Z" fill="#1A1A1A"/>
<path d="M17.1876 314.96C18.9321 315.447 21.4655 316.168 24.6692 317.22C24.0685 317.325 23.476 317.475 22.8963 317.668C21.4703 317.205 20.1537 316.811 19.0414 316.489C18.2619 316.265 17.5727 316.071 16.9738 315.91C17.0274 315.767 17.0718 315.62 17.1068 315.472C17.143 315.303 17.17 315.132 17.1876 314.96Z" fill="#1A1A1A"/>
<path d="M31.8417 319.747C38.9478 322.416 45.9129 325.464 52.7083 328.879C52.1153 328.883 51.5231 328.925 50.9353 329.005H50.8212C43.9196 325.596 37.6121 322.952 32.2504 320.921C32.1874 320.569 32.0837 320.226 31.9415 319.898C31.9225 319.859 31.8749 319.806 31.8417 319.747Z" fill="#1A1A1A"/>
<path d="M117.124 378.815C119.757 381.903 122.332 385.132 124.848 388.502C124.763 388.956 124.702 389.414 124.667 389.875C122.186 386.505 119.64 383.275 117.029 380.184C117.029 380.077 117.081 379.969 117.095 379.857C117.138 379.512 117.147 379.163 117.124 378.815Z" fill="#1A1A1A"/>
<path d="M60.8695 333.193C64.9573 335.463 69.1733 337.976 73.4702 340.761C77.6245 343.45 81.8454 346.396 86.0852 349.605C86.2516 350.17 86.437 350.72 86.6461 351.251C82.0498 347.72 77.4629 344.501 72.9616 341.584C68.9357 338.974 64.9762 336.607 61.1309 334.45C61.1309 334.348 61.1309 334.245 61.1309 334.143C61.0782 333.818 60.9906 333.499 60.8695 333.193Z" fill="#1A1A1A"/>
<path d="M136.07 405.415C135.799 405.585 135.538 405.766 135.276 405.951C133.708 403.276 132.095 400.678 130.438 398.159C130.781 398.126 131.12 398.059 131.45 397.959C133.028 400.381 134.568 402.866 136.07 405.415Z" fill="#1A1A1A"/>
<path d="M166.671 371.739C166.894 371.645 167.102 371.519 167.289 371.364C167.388 371.283 167.48 371.193 167.565 371.096C168.519 381.637 169.998 392.121 171.995 402.508H171.044C169.086 392.333 167.627 382.064 166.671 371.739Z" fill="#1A1A1A"/>
<path d="M164.737 338.463C165.065 338.419 165.386 338.326 165.687 338.185C165.797 343.177 166.015 349.298 166.419 356.102C166.107 356.735 165.829 357.385 165.587 358.05C165.107 350.569 164.86 343.864 164.737 338.463Z" fill="#1A1A1A"/>
<path d="M167.289 371.364C167.102 371.519 166.894 371.645 166.671 371.739C165.245 372.358 163.211 371.89 160.868 370.765C159.353 370.011 157.896 369.142 156.509 368.165C153.255 365.882 150.215 363.297 147.426 360.441C146.233 359.228 145.131 357.926 144.127 356.545C142.363 354.051 141.532 351.777 142.363 350.185C143.195 348.592 145.591 348.066 148.847 348.748C150.699 349.159 152.492 349.813 154.18 350.696C158.257 352.823 161.819 355.854 164.608 359.569L164.96 360.056C164.851 360.512 164.765 360.974 164.703 361.439C164.428 363.582 164.703 365.389 165.269 366.587C165.835 367.785 166.652 368.389 167.517 368.447C167.794 368.467 168.072 368.441 168.34 368.369C168.43 369.351 168.145 370.33 167.546 371.101C167.467 371.195 167.381 371.283 167.289 371.364Z" fill="#135589"/>
<path d="M167.536 368.442C166.671 368.384 165.863 367.79 165.288 366.582C164.713 365.374 164.447 363.577 164.722 361.434C164.784 360.969 164.87 360.507 164.979 360.051C165.137 359.362 165.339 358.683 165.583 358.021C165.824 357.356 166.102 356.705 166.415 356.073C166.662 355.586 166.933 355.069 167.227 354.573C168.683 352.18 170.505 350.042 172.622 348.242C174.515 346.639 176.564 345.239 178.735 344.063C180.377 343.161 182.087 342.396 183.849 341.774C185.131 341.301 186.469 341.007 187.828 340.898C188.954 340.839 189.9 341.044 190.547 341.653C191.193 342.261 191.464 343.221 191.312 344.477C191.049 346.048 190.46 347.542 189.586 348.86C188.47 350.616 187.166 352.238 185.698 353.696C184.154 355.279 182.447 356.788 180.769 358.22C179.091 359.652 177.675 360.889 176.377 362.033L172.95 365.097C171.947 366.002 171.02 366.816 170.16 367.449C169.624 367.863 169.018 368.173 168.373 368.364C168.1 368.438 167.818 368.464 167.536 368.442Z" fill="#135589"/>
<path d="M164.608 338.463C161.124 338.813 157.778 333.593 157.131 326.833C156.485 320.074 158.781 314.293 162.265 313.942C165.749 313.592 169.09 318.812 169.737 325.572C170.317 331.616 168.544 336.865 165.682 338.166C165.381 338.306 165.06 338.4 164.732 338.443L164.608 338.463Z" fill="#135589"/>
<path d="M114.452 430.992C114.743 431.646 114.904 432.353 114.928 433.072C114.929 434.776 114.368 436.43 113.335 437.766C112.469 439.039 111.189 439.954 109.724 440.348C108.259 440.741 106.705 440.587 105.34 439.914C103.8 439.269 102.518 438.111 101.7 436.627C101.287 435.844 101.071 434.969 101.071 434.08C101.071 433.19 101.287 432.315 101.7 431.533C102.207 430.604 102.896 429.792 103.724 429.149C104.552 428.505 105.5 428.043 106.51 427.792C107.273 427.589 108.06 427.497 108.848 427.52C109.063 427.928 109.308 428.318 109.58 428.689C110.987 430.583 112.803 431.367 114.452 430.992Z" fill="#135589"/>
<path d="M114.453 430.992C112.803 431.372 110.987 430.588 109.557 428.689C109.284 428.318 109.04 427.928 108.825 427.52C108.399 426.736 108.062 425.904 107.822 425.041C107.822 424.953 107.779 424.861 107.755 424.773C107.623 424.249 107.521 423.717 107.451 423.181C107.322 422.213 107.286 421.234 107.342 420.259C107.442 418.652 107.802 417.074 108.406 415.588C108.912 414.322 109.647 413.165 110.574 412.179C112.261 410.441 114.205 409.91 115.802 410.563C117.399 411.215 118.498 412.837 119.168 414.707C119.508 415.684 119.742 416.697 119.866 417.726C120.137 419.944 119.998 422.194 119.458 424.359C119.205 425.369 118.848 426.349 118.393 427.281C117.585 428.879 116.492 430.203 115.009 430.792C114.853 430.854 114.694 430.908 114.533 430.953L114.453 430.992Z" fill="#135589"/>
<path d="M92.8445 412.822C92.8445 412.871 92.8207 412.924 92.8064 412.973C92.5438 413.728 92.1755 414.44 91.7132 415.087C91.5033 415.412 91.3128 415.751 91.1428 416.1C91.042 416.455 90.8898 416.793 90.6912 417.103C90.629 417.189 90.5623 417.272 90.4916 417.351L90.2112 417.614C90.021 417.785 89.8214 417.945 89.617 418.101C89.1982 418.43 88.7601 418.733 88.3051 419.007C87.3364 419.589 86.3083 420.061 85.2393 420.415C83.1888 421.125 81.0056 421.34 78.8605 421.043C76.9212 420.726 75.21 419.889 74.3212 418.34C73.4323 416.791 73.6129 414.79 74.8535 412.837C76.0941 410.884 78.3804 409.048 81.3274 408.069C82.2656 407.761 83.2325 407.554 84.2126 407.451C84.6859 407.394 85.1621 407.366 85.6386 407.368C85.7812 407.368 85.919 407.368 86.0616 407.368C86.5747 407.384 87.086 407.436 87.5921 407.524C87.8963 407.582 88.1958 407.655 88.4857 407.733L89.3794 408.001C90.0568 408.191 90.7083 408.468 91.3186 408.824C91.8177 409.143 92.2363 409.579 92.5402 410.095C92.8217 410.585 92.9724 411.143 92.9775 411.712C92.9841 412.087 92.9394 412.46 92.8445 412.822Z" fill="#135589"/>
<path d="M85.4341 383.578C87.1881 383.495 88.8184 384.762 90.1541 386.714C93.0581 391.44 94.2523 397.06 93.5289 402.595C93.1058 404.943 92.1362 406.784 90.5058 407.465C88.8755 408.147 86.8934 407.436 85.0539 405.581C83.2144 403.725 81.5888 400.711 80.8236 397.122C80.0583 393.532 80.3197 390.08 81.2418 387.62C82.164 385.161 83.6945 383.661 85.4341 383.578Z" fill="#135589"/>
<path d="M57.5612 396.596C57.7279 396.826 57.8638 397.078 57.9653 397.346C58.588 399.031 57.8084 401.047 56.2304 403.029C52.2455 407.528 46.9697 410.617 41.1627 411.848C38.6958 412.233 36.5996 411.892 35.5016 410.49C34.4037 409.087 34.551 406.866 35.9009 404.422C37.2508 401.977 39.7462 399.357 43.0973 397.394C46.4483 395.432 49.9371 394.54 52.6607 394.614L53.1931 394.638C53.3452 394.779 53.4925 394.925 53.6684 395.052C54.7422 396.03 56.1245 396.578 57.5612 396.596Z" fill="#135589"/>
<path d="M58.859 396.333C58.4435 396.493 58.005 396.582 57.5613 396.596C56.1164 396.584 54.7246 396.035 53.6447 395.052C53.4926 394.925 53.3452 394.779 53.1693 394.638L53.0791 394.555C52.6593 394.143 52.2729 393.697 51.924 393.221C50.8852 391.795 50.1162 390.183 49.6568 388.468C48.9053 385.946 48.9152 383.25 49.6853 380.734C50.4125 378.625 51.7672 377.189 53.4878 376.838C55.2085 376.487 56.9625 377.301 58.4455 378.786C60.0508 380.529 61.22 382.644 61.8533 384.951C62.4865 387.258 62.5649 389.688 62.0816 392.032C61.7853 393.445 61.0478 394.721 59.9807 395.665C59.6426 395.939 59.266 396.159 58.8637 396.318L58.859 396.333Z" fill="#135589"/>
<path d="M17.7865 394.078C11.3221 393.591 6.28372 390.313 6.53564 386.739C6.78756 383.164 12.2395 380.656 18.6991 381.133C25.1587 381.611 30.2019 384.893 29.9499 388.468C29.9398 388.598 29.9224 388.728 29.8977 388.857C29.8376 389.184 29.737 389.501 29.5982 389.802C28.2673 392.641 23.4143 394.492 17.7865 394.078Z" fill="#135589"/>
<path d="M125.085 387.498C125.705 385.083 127.118 382.961 129.088 381.489C130.808 380.291 132.69 380.028 134.264 380.797C135.837 381.567 136.868 383.14 137.368 384.976C137.854 386.981 137.818 389.083 137.263 391.07C136.708 393.057 135.654 394.86 134.207 396.298C133.422 397.058 132.479 397.625 131.45 397.959C131.12 398.059 130.78 398.126 130.437 398.159C130.098 398.195 129.755 398.195 129.415 398.159C127.685 397.949 126.221 396.698 125.375 394.75C124.749 393.212 124.506 391.538 124.667 389.88C124.702 389.419 124.762 388.96 124.848 388.507C124.914 388.17 124.99 387.834 125.085 387.498Z" fill="#135589"/>
<path d="M117.124 378.815C117.147 379.163 117.138 379.512 117.095 379.857C117.095 379.969 117.048 380.077 117.029 380.184C116.34 383.544 112.418 385.731 108.055 385.102C103.553 384.45 100.297 381.051 100.787 377.5C101.277 373.95 105.322 371.603 109.818 372.251L109.965 372.28C110.547 372.371 111.119 372.513 111.677 372.703C114.78 373.755 116.953 376.166 117.124 378.815Z" fill="#135589"/>
<path d="M85.9616 349.177C85.011 345.646 85.1393 342.217 85.9902 339.758C86.841 337.299 88.3668 335.799 90.0779 335.677C91.7891 335.555 93.4812 336.739 94.8692 338.565C97.8907 342.943 99.3308 348.261 98.9426 353.608C98.7002 355.639 98.0253 357.348 96.7894 358.283C96.5161 358.495 96.2111 358.659 95.8863 358.77C94.7931 359.175 93.5097 358.999 92.1741 358.283C92.2398 358 92.2701 357.708 92.2644 357.417C92.2216 355.629 90.7529 354.037 88.343 352.985C87.996 352.834 87.6253 352.698 87.2403 352.566C87.0359 352.147 86.841 351.714 86.6651 351.266C86.456 350.735 86.2706 350.185 86.1042 349.62C86.0424 349.469 85.9996 349.328 85.9616 349.177Z" fill="#135589"/>
<path d="M92.2455 357.402C92.2513 357.694 92.2209 357.985 92.1552 358.269C91.8225 359.73 90.5819 361.059 88.7804 362.136C83.4766 364.934 77.3509 365.628 71.5786 364.084C69.202 363.309 67.5288 362.004 67.1866 360.241C66.8443 358.478 67.9471 356.603 70.0718 355.035C72.1965 353.467 75.3526 352.25 78.965 351.84C81.7359 351.493 84.547 351.737 87.2214 352.556C87.6064 352.688 87.9771 352.824 88.3241 352.975C90.734 354.047 92.2027 355.615 92.2455 357.402Z" fill="#135589"/>
<path d="M52.7082 328.879C53.0362 328.879 53.3642 328.879 53.6589 328.908C53.811 329.078 53.9678 329.244 54.1342 329.395C56.0355 331.26 58.0271 331.942 59.6099 331.28C60.1612 331.813 60.5871 332.467 60.8552 333.193C60.9715 333.508 61.0529 333.834 61.0976 334.167C61.0976 334.27 61.0976 334.372 61.0976 334.474C61.3163 337.912 57.604 341.195 52.5989 341.891C47.4464 342.602 42.8928 340.304 42.4223 336.753C41.9517 333.203 45.6972 329.799 50.7879 329.049H50.902C51.4999 328.953 52.1032 328.896 52.7082 328.879Z" fill="#135589"/>
<path d="M54.1485 329.395C53.9917 329.244 53.8348 329.078 53.6732 328.908C51.6703 326.557 50.279 323.726 49.6282 320.678C48.7726 316.942 48.977 313.373 49.8706 310.816C50.7642 308.259 52.2948 306.706 54.0297 306.618C55.7646 306.53 57.4187 307.835 58.7829 309.847C61.7378 314.732 63.0562 320.472 62.5379 326.195C62.1957 328.63 61.3021 330.529 59.686 331.25L59.6147 331.279C58.0414 331.942 56.0355 331.26 54.1485 329.395Z" fill="#135589"/>
<path d="M24.8688 317.186C25.1801 317.477 25.5139 317.743 25.8669 317.98C27.6161 319.148 29.4841 319.397 31.0289 318.642C31.3565 318.963 31.631 319.336 31.8417 319.747C31.875 319.806 31.913 319.859 31.9416 319.918C32.0837 320.245 32.1874 320.588 32.2505 320.941C32.4767 322.462 32.1666 324.015 31.3759 325.324C30.1648 327.33 28.4911 329.001 26.502 330.19C24.5129 331.379 22.2692 332.049 19.9682 332.141C17.9338 332.141 16.1419 331.46 15.12 329.999C14.098 328.538 14.079 326.56 14.9678 324.53C16.087 322.185 17.8801 320.247 20.1061 318.978C20.9876 318.451 21.9213 318.022 22.8914 317.697C23.4711 317.504 24.0636 317.355 24.6644 317.249L24.8688 317.186Z" fill="#135589"/>
<path d="M25.867 317.98C25.5139 317.743 25.1801 317.478 24.8688 317.186C23.3491 315.768 22.2141 313.971 21.5748 311.97C20.7277 309.572 20.6743 306.956 21.4227 304.524C22.1262 302.479 23.4951 301.115 25.2253 300.764C26.9555 300.414 28.6856 301.13 30.1544 302.41C31.728 303.883 32.9116 305.741 33.5949 307.809C34.2781 309.878 34.4386 312.09 34.0615 314.24C33.6527 316.188 32.6925 317.814 31.124 318.623C31.0995 318.634 31.0741 318.644 31.048 318.652C29.4842 319.397 27.6162 319.148 25.867 317.98Z" fill="#135589"/>
<path d="M0.888953 307.689C1.95367 306.262 3.67433 305.581 5.51857 305.425C7.50549 305.312 9.48873 305.706 11.2911 306.57C13.0934 307.434 14.6588 308.742 15.8473 310.378C16.8351 311.681 17.316 313.314 17.1972 314.96C17.1787 315.124 17.1517 315.286 17.1164 315.447C17.0814 315.596 17.037 315.743 16.9833 315.886C16.4747 317.41 15.1676 318.598 13.2806 319.144C11.232 319.747 8.5274 319.543 5.92264 318.301C3.31788 317.059 1.43561 315.053 0.575283 313.056C-0.285047 311.059 -0.166259 309.111 0.888953 307.689Z" fill="#135589"/>
<path d="M288.016 534.235H253.793C253.919 534.106 253.992 533.932 253.997 533.748V520.6H281.898C284.665 520.602 287.399 519.983 289.908 518.788C288.604 523.003 287.938 527.398 287.93 531.82C287.935 532.638 287.968 533.437 288.016 534.235Z" fill="#EFF0F1"/>
<path d="M593.328 531.835C593.328 520.551 588.97 509.808 581.113 500.043C604.446 503.939 622.423 517.439 626.035 534.235H593.238C593.276 533.437 593.328 532.638 593.328 531.835Z" fill="#EFF0F1"/>
<path d="M300.916 499.113V423.658C322.239 427.934 338.138 444.599 338.138 464.463V464.668C340.952 464.538 343.804 464.47 346.694 464.463C349.584 464.457 352.436 464.527 355.25 464.673C331.546 473.166 312.595 485.097 300.916 499.113Z" fill="#EFF0F1"/>
<path d="M173.967 533.749C173.972 533.932 174.045 534.106 174.172 534.236H155.397C155.587 529.59 155.815 525.041 156.157 520.6H173.967V533.749Z" fill="#EFF0F1"/>
<path d="M593.243 534.236H560.883L566.768 486.179C572.057 490.216 576.871 494.868 581.113 500.044C588.97 509.783 593.328 520.551 593.328 531.835C593.328 532.638 593.276 533.437 593.243 534.236Z" fill="#2A93D5"/>
<path d="M370.926 475.056C370.929 475.158 370.953 475.259 370.997 475.351C371.04 475.443 371.102 475.525 371.178 475.592C371.254 475.658 371.343 475.708 371.438 475.737C371.534 475.766 371.635 475.775 371.734 475.762L386.797 473.687C387.981 483.495 389.497 493.269 391.441 502.386C394.084 514.751 397.501 525.883 401.974 534.235H288.016C287.968 533.437 287.935 532.638 287.935 531.834C287.942 527.413 288.609 523.018 289.912 518.802C293.202 517.237 295.985 514.741 297.935 511.608C299.885 508.474 300.919 504.835 300.916 501.12V499.094C312.595 485.078 331.546 473.146 355.236 464.653C360.154 462.884 365.271 461.272 370.589 459.817C370.779 469.523 370.926 475.056 370.926 475.056Z" fill="#2A93D5"/>
<path d="M272.943 375.109C265.236 375.109 258.988 368.688 258.988 360.767C258.988 352.846 265.236 346.425 272.943 346.425C280.651 346.425 286.899 352.846 286.899 360.767C286.899 368.688 280.651 375.109 272.943 375.109Z" fill="white"/>
<path d="M266.793 354.485C268.514 352.725 269.879 350.634 270.809 348.333C271.74 346.031 272.218 343.564 272.216 341.073C272.217 340.88 272.29 340.695 272.421 340.557C272.555 340.421 272.736 340.344 272.924 340.343H272.958C273.147 340.343 273.328 340.419 273.462 340.556C273.596 340.693 273.671 340.879 273.671 341.073C273.671 343.564 274.15 346.03 275.08 348.331C276.01 350.632 277.374 352.723 279.093 354.484C280.813 356.245 282.854 357.642 285.1 358.595C287.346 359.547 289.753 360.037 292.184 360.037C292.373 360.037 292.555 360.114 292.689 360.251C292.822 360.388 292.897 360.573 292.897 360.767C292.897 360.961 292.822 361.147 292.688 361.283C292.554 361.42 292.373 361.496 292.184 361.498C287.277 361.504 282.572 363.504 279.102 367.059C275.631 370.614 273.678 375.433 273.671 380.461C273.671 380.655 273.596 380.841 273.462 380.978C273.328 381.115 273.147 381.192 272.958 381.192H272.91C272.721 381.191 272.54 381.114 272.406 380.978C272.276 380.839 272.202 380.654 272.202 380.461C272.194 375.433 270.241 370.614 266.771 367.059C263.3 363.504 258.596 361.504 253.688 361.498C253.499 361.496 253.318 361.42 253.184 361.283C253.051 361.147 252.975 360.961 252.975 360.767C252.975 360.573 253.05 360.388 253.184 360.251C253.318 360.114 253.499 360.037 253.688 360.037C256.122 360.042 258.532 359.554 260.781 358.601C263.03 357.648 265.073 356.249 266.793 354.485ZM272.943 375.109C273.854 371.683 275.62 368.559 278.067 366.044C280.514 363.53 283.558 361.711 286.899 360.767C283.558 359.823 280.514 358.005 278.067 355.49C275.62 352.975 273.854 349.851 272.943 346.425C272.032 349.851 270.267 352.975 267.82 355.49C265.373 358.005 262.329 359.823 258.988 360.767C262.329 361.711 265.373 363.53 267.82 366.044C270.267 368.559 272.032 371.683 272.943 375.109Z" fill="black"/>
<path d="M671.238 256.516C663.531 256.516 657.283 250.095 657.283 242.174C657.283 234.253 663.531 227.832 671.238 227.832C678.946 227.832 685.194 234.253 685.194 242.174C685.194 250.095 678.946 256.516 671.238 256.516Z" fill="white"/>
<path d="M651.498 242.69C651.365 242.552 651.29 242.367 651.289 242.174C651.289 241.98 651.364 241.794 651.498 241.657C651.632 241.52 651.813 241.443 652.002 241.443C656.909 241.436 661.612 239.435 665.082 235.88C668.551 232.326 670.504 227.507 670.511 222.48C670.511 222.384 670.529 222.289 670.565 222.2C670.601 222.111 670.654 222.031 670.72 221.963C670.854 221.826 671.035 221.749 671.224 221.749H671.257C671.446 221.75 671.627 221.827 671.761 221.963C671.828 222.031 671.881 222.111 671.917 222.2C671.952 222.289 671.971 222.384 671.97 222.48C671.969 224.971 672.449 227.439 673.382 229.74C674.315 232.04 675.684 234.13 677.408 235.887C679.123 237.648 681.16 239.046 683.403 239.999C685.646 240.953 688.051 241.444 690.479 241.443C690.668 241.443 690.85 241.52 690.983 241.657C691.117 241.794 691.192 241.98 691.192 242.174C691.191 242.367 691.116 242.552 690.983 242.69C690.85 242.827 690.668 242.904 690.479 242.904C688.051 242.903 685.647 243.393 683.404 244.345C681.161 245.298 679.123 246.695 677.408 248.456C675.687 250.216 674.322 252.306 673.392 254.608C672.462 256.91 671.986 259.377 671.989 261.868C671.989 262.062 671.914 262.247 671.78 262.384C671.646 262.52 671.465 262.597 671.276 262.598H671.229C671.04 262.598 670.858 262.521 670.725 262.384C670.591 262.247 670.516 262.062 670.516 261.868C670.516 256.838 668.566 252.015 665.095 248.459C661.624 244.902 656.916 242.904 652.007 242.904C651.912 242.905 651.819 242.886 651.732 242.849C651.644 242.813 651.565 242.758 651.498 242.69ZM671.229 256.516C672.14 253.089 673.907 249.965 676.354 247.45C678.802 244.935 681.847 243.117 685.189 242.174C681.847 241.231 678.802 239.412 676.354 236.898C673.907 234.383 672.14 231.258 671.229 227.832C670.318 231.258 668.552 234.382 666.105 236.896C663.658 239.411 660.614 241.23 657.273 242.174C660.614 243.118 663.658 244.936 666.105 247.451C668.552 249.966 670.318 253.09 671.229 256.516Z" fill="black"/>
<path d="M67.1866 470.2C69.4631 470.202 71.688 470.896 73.5799 472.193C75.4718 473.49 76.9459 475.333 77.8158 477.488C78.6856 479.644 78.9122 482.015 78.467 484.302C78.0217 486.59 76.9245 488.69 75.3141 490.339C73.7037 491.988 71.6524 493.11 69.4195 493.564C67.1866 494.019 64.8724 493.785 62.7694 492.892C60.6663 491.999 58.8689 490.487 57.6043 488.547C56.3397 486.608 55.6648 484.328 55.6648 481.995C55.6654 480.446 55.964 478.911 56.5433 477.48C57.1227 476.049 57.9715 474.748 59.0414 473.653C60.1113 472.558 61.3813 471.689 62.7789 471.097C64.1764 470.504 65.6741 470.2 67.1866 470.2ZM67.1866 489.816C68.6973 489.815 70.1738 489.356 71.4295 488.495C72.6851 487.634 73.6633 486.411 74.2406 484.981C74.8179 483.55 74.9682 481.977 74.6725 480.459C74.3769 478.941 73.6486 477.547 72.5796 476.453C71.5107 475.359 70.1492 474.615 68.6674 474.314C67.1855 474.013 65.6497 474.169 64.2543 474.762C62.859 475.355 61.6666 476.359 60.8281 477.647C59.9896 478.934 59.5425 480.447 59.5434 481.995C59.544 483.023 59.7422 484.041 60.1267 484.99C60.5111 485.939 61.0743 486.801 61.784 487.528C62.4938 488.254 63.3362 488.83 64.2632 489.223C65.1901 489.615 66.1835 489.817 67.1866 489.816Z" fill="#2A93D5"/>
<path d="M641.331 436.218C644.544 433.009 647.507 429.547 650.191 425.864H651.517C651.706 425.864 651.888 425.787 652.021 425.65C652.155 425.513 652.23 425.327 652.23 425.134C652.23 424.94 652.155 424.754 652.021 424.617C651.888 424.48 651.706 424.403 651.517 424.403H651.18C651.441 423.994 651.707 423.585 651.955 423.166C654.374 419.1 655.928 414.799 656.232 409.886H656.969C657.127 409.886 657.28 409.832 657.405 409.733C657.529 409.635 657.619 409.496 657.658 409.34C657.536 412.688 656.829 415.987 655.572 419.08C653.224 424.924 649.155 429.979 644.411 435.049C641.165 438.511 637.609 441.984 634.045 445.69L633.046 444.647C635.884 441.706 638.698 438.945 641.331 436.218Z" fill="black"/>
<path d="M609.199 320.799C609.199 320.799 609.199 320.848 609.199 320.873C608.668 316.782 608.404 312.659 608.41 308.532C608.41 308.338 608.485 308.152 608.619 308.015C608.753 307.879 608.934 307.802 609.123 307.802C609.312 307.802 609.494 307.879 609.627 308.015C609.761 308.152 609.836 308.338 609.836 308.532C609.832 312.389 610.067 316.242 610.54 320.069H609.912C609.723 320.069 609.542 320.146 609.408 320.283C609.275 320.42 609.199 320.606 609.199 320.799Z" fill="black"/>
<path d="M622.979 458.722H621.639C621.449 458.722 621.268 458.799 621.134 458.936C621.001 459.073 620.926 459.259 620.926 459.452C620.926 459.646 621.001 459.832 621.134 459.969C621.268 460.106 621.449 460.183 621.639 460.183H621.957C621.9 460.261 621.843 460.339 621.791 460.421C619.172 464.263 616.942 468.369 615.136 472.674H614.604C614.415 472.667 614.231 472.737 614.092 472.869C613.953 473.001 613.872 473.184 613.865 473.378C613.858 473.572 613.926 473.76 614.055 473.902C614.184 474.044 614.362 474.128 614.552 474.135C612.445 479.591 611.048 485.307 610.397 491.136H609.922C609.733 491.136 609.551 491.213 609.418 491.35C609.284 491.487 609.209 491.673 609.209 491.867C609.209 492.061 609.284 492.246 609.418 492.383C609.551 492.52 609.733 492.597 609.922 492.597H610.236C609.988 495.183 609.851 497.886 609.851 500.72C609.851 500.914 609.776 501.1 609.642 501.237C609.508 501.374 609.327 501.451 609.138 501.451C608.949 501.451 608.767 501.374 608.634 501.237C608.5 501.1 608.425 500.914 608.425 500.72C608.425 487.085 611.448 476.332 615.982 467.429C620.398 458.766 626.23 451.845 632.067 445.714C632.4 446.06 632.733 446.411 633.061 446.761C629.433 450.504 626.065 454.5 622.979 458.722Z" fill="black"/>
<path d="M656.969 408.425H656.256V408.259C656.256 402.108 654.288 396.742 651.118 391.55H651.508C651.697 391.55 651.878 391.473 652.012 391.336C652.146 391.199 652.221 391.013 652.221 390.82C652.221 390.626 652.146 390.44 652.012 390.303C651.878 390.166 651.697 390.089 651.508 390.089H650.186C649.778 389.466 649.359 388.843 648.917 388.224C644.639 382.166 638.864 376.22 633.046 369.489L633.997 368.384C636.849 371.676 639.701 374.798 642.363 377.846C646.579 382.648 650.395 387.284 653.176 392.208C655.957 397.131 657.692 402.357 657.687 408.279C657.687 408.527 657.687 408.766 657.687 409.014C657.655 408.844 657.566 408.692 657.434 408.584C657.303 408.476 657.138 408.419 656.969 408.425Z" fill="black"/>
<path d="M614.59 339.987H615.65C616.157 341.243 616.69 342.471 617.251 343.669C618.671 346.705 620.271 349.648 622.043 352.483H621.905C621.716 352.483 621.534 352.56 621.401 352.697C621.267 352.834 621.192 353.02 621.192 353.214C621.192 353.408 621.267 353.593 621.401 353.73C621.534 353.867 621.716 353.944 621.905 353.944H622.96C626.033 358.614 629.405 363.068 633.056 367.278C632.737 367.648 632.419 368.014 632.105 368.384C629.253 365.028 626.401 361.478 623.687 357.611C619.733 352.019 616.459 345.953 613.938 339.549C613.994 339.679 614.085 339.789 614.2 339.867C614.316 339.945 614.451 339.987 614.59 339.987Z" fill="black"/>
<path d="M609.912 321.53H610.735C611.547 327.347 613.006 333.049 615.084 338.526H614.609C614.42 338.526 614.238 338.603 614.105 338.74C613.971 338.877 613.896 339.063 613.896 339.257C613.896 339.35 613.913 339.443 613.948 339.529C611.645 333.559 610.064 327.323 609.238 320.96C609.272 321.119 609.357 321.261 609.479 321.364C609.601 321.468 609.754 321.526 609.912 321.53Z" fill="black"/>
<path d="M614.59 391.545H614.989C614.704 392.032 614.423 392.466 614.162 392.933C611.472 397.701 609.846 402.649 609.841 408.254C609.841 408.308 609.841 408.361 609.841 408.42H609.123C608.958 408.419 608.798 408.478 608.67 408.585C608.543 408.693 608.456 408.843 608.425 409.009C608.425 408.761 608.425 408.522 608.425 408.254C608.425 401.636 610.606 395.885 613.986 390.44C613.921 390.554 613.886 390.683 613.886 390.815C613.886 391.007 613.96 391.191 614.092 391.328C614.223 391.465 614.402 391.543 614.59 391.545Z" fill="black"/>
<path d="M656.194 320.069H655.572C656.039 316.242 656.271 312.389 656.266 308.532C656.266 308.338 656.341 308.152 656.474 308.015C656.608 307.879 656.79 307.802 656.979 307.802C657.168 307.802 657.349 307.879 657.483 308.015C657.617 308.152 657.692 308.338 657.692 308.532C657.699 312.679 657.434 316.821 656.898 320.931C656.9 320.887 656.9 320.843 656.898 320.799C656.898 320.607 656.824 320.423 656.692 320.286C656.561 320.15 656.382 320.072 656.194 320.069Z" fill="black"/>
<path d="M644.468 352.483H644.078C646.555 348.516 648.689 344.334 650.457 339.987H651.517C651.648 339.987 651.777 339.95 651.889 339.879C652 339.809 652.09 339.708 652.149 339.588C651.516 341.211 650.849 342.781 650.148 344.297C648.661 347.469 646.983 350.543 645.124 353.501C645.163 353.411 645.182 353.313 645.181 353.214C645.181 353.02 645.106 352.834 644.972 352.697C644.839 352.56 644.657 352.483 644.468 352.483Z" fill="black"/>
<path d="M651.517 338.526H651.042C653.12 333.049 654.579 327.347 655.391 321.53H656.194C656.361 321.53 656.522 321.47 656.65 321.361C656.778 321.251 656.864 321.099 656.893 320.931C656.068 327.272 654.491 333.487 652.197 339.437C652.218 339.369 652.229 339.298 652.23 339.227C652.223 339.039 652.144 338.86 652.012 338.73C651.879 338.599 651.701 338.526 651.517 338.526Z" fill="black"/>
<path d="M656.194 492.592C656.384 492.592 656.565 492.515 656.699 492.378C656.832 492.241 656.907 492.056 656.907 491.862C656.907 491.668 656.832 491.482 656.699 491.345C656.565 491.208 656.384 491.131 656.194 491.131H655.719C655.065 485.302 653.665 479.586 651.555 474.13C651.736 474.119 651.905 474.038 652.029 473.903C652.152 473.768 652.221 473.59 652.221 473.405C652.219 473.211 652.144 473.026 652.011 472.89C651.877 472.753 651.696 472.675 651.508 472.674H650.98C650.324 471.096 649.621 469.572 648.87 468.101C647.464 465.357 645.883 462.712 644.136 460.183H644.193C644.382 460.183 644.563 460.106 644.697 459.969C644.83 459.832 644.906 459.646 644.906 459.452C644.906 459.259 644.83 459.073 644.697 458.936C644.563 458.799 644.382 458.722 644.193 458.722H643.118C640.036 454.497 636.669 450.499 633.042 446.756C632.714 446.406 632.381 446.055 632.048 445.709C629.229 442.787 626.416 439.997 623.754 437.245C619.538 432.862 615.711 428.606 612.926 423.931C610.312 419.548 608.62 414.775 608.425 409.321C608.46 409.482 608.548 409.627 608.674 409.73C608.8 409.834 608.957 409.89 609.119 409.891H609.912C610.087 412.868 610.746 415.794 611.861 418.549C612.704 420.593 613.735 422.55 614.941 424.393H614.609C614.42 424.393 614.238 424.47 614.104 424.607C613.971 424.744 613.896 424.93 613.896 425.124C613.896 425.318 613.971 425.503 614.104 425.64C614.238 425.777 614.42 425.854 614.609 425.854H615.925C618.005 428.747 620.281 431.485 622.737 434.051C625.94 437.459 629.496 440.937 633.075 444.657L634.073 445.699C638.252 449.995 642.077 454.638 645.509 459.579C652.501 469.879 657.715 482.809 657.711 500.706C657.711 500.899 657.636 501.085 657.502 501.222C657.368 501.359 657.187 501.436 656.998 501.436C656.809 501.436 656.627 501.359 656.494 501.222C656.36 501.085 656.285 500.899 656.285 500.706C656.285 497.871 656.147 495.173 655.895 492.583L656.194 492.592Z" fill="black"/>
<path d="M624.8 378.825C621.588 382.364 618.62 386.126 615.916 390.084H614.59C614.476 390.083 614.365 390.11 614.264 390.163C614.163 390.215 614.076 390.292 614.01 390.386C614.647 389.368 615.317 388.36 616.03 387.357C620.46 381.133 626.278 375.124 632.105 368.364C632.419 367.994 632.737 367.629 633.056 367.259C635.855 363.972 638.641 360.504 641.26 356.745C641.902 355.824 642.529 354.884 643.161 353.925H644.468C644.573 353.925 644.676 353.901 644.77 353.856C644.865 353.81 644.948 353.744 645.015 353.662C641.703 358.834 638.022 363.748 634.002 368.364L633.051 369.47C630.237 372.752 627.428 375.83 624.8 378.825Z" fill="black"/>
<path d="M656.194 321.53H609.912C609.751 321.53 609.594 321.474 609.467 321.37C609.341 321.267 609.253 321.122 609.218 320.96C609.216 320.931 609.216 320.902 609.218 320.872C609.218 320.872 609.218 320.824 609.218 320.799C609.218 320.606 609.294 320.42 609.427 320.283C609.561 320.146 609.742 320.069 609.931 320.069H656.194C656.384 320.069 656.565 320.146 656.699 320.283C656.832 320.42 656.907 320.606 656.907 320.799C656.91 320.843 656.91 320.887 656.907 320.931C656.878 321.101 656.79 321.256 656.659 321.365C656.528 321.475 656.364 321.534 656.194 321.53Z" fill="black"/>
<path d="M651.517 339.987H614.59C614.451 339.987 614.316 339.945 614.2 339.867C614.085 339.789 613.994 339.679 613.938 339.549C613.904 339.462 613.886 339.37 613.886 339.276C613.886 339.082 613.961 338.896 614.095 338.759C614.229 338.622 614.41 338.546 614.599 338.546H651.517C651.706 338.546 651.888 338.622 652.021 338.759C652.155 338.896 652.23 339.082 652.23 339.276C652.229 339.347 652.218 339.418 652.197 339.485C652.184 339.527 652.168 339.568 652.149 339.607C652.088 339.724 651.996 339.82 651.885 339.887C651.774 339.954 651.646 339.989 651.517 339.987Z" fill="black"/>
<path d="M644.468 353.944H621.905C621.716 353.944 621.534 353.867 621.401 353.73C621.267 353.593 621.192 353.408 621.192 353.214C621.192 353.02 621.267 352.834 621.401 352.697C621.534 352.56 621.716 352.483 621.905 352.483H644.468C644.657 352.483 644.839 352.56 644.972 352.697C645.106 352.834 645.181 353.02 645.181 353.214C645.182 353.313 645.163 353.41 645.124 353.501C645.096 353.566 645.059 353.627 645.015 353.681C644.948 353.763 644.865 353.83 644.77 353.875C644.676 353.92 644.573 353.944 644.468 353.944Z" fill="black"/>
<path d="M609.199 491.867C609.199 491.673 609.275 491.487 609.408 491.35C609.542 491.213 609.723 491.136 609.912 491.136H656.194C656.383 491.136 656.565 491.213 656.699 491.35C656.832 491.487 656.907 491.673 656.907 491.867C656.907 492.06 656.832 492.246 656.699 492.383C656.565 492.52 656.383 492.597 656.194 492.597H609.912C609.723 492.597 609.542 492.52 609.408 492.383C609.275 492.246 609.199 492.06 609.199 491.867Z" fill="black"/>
<path d="M614.59 474.135H614.537C614.348 474.128 614.17 474.044 614.041 473.902C613.912 473.76 613.844 473.571 613.85 473.378C613.857 473.184 613.939 473.001 614.078 472.869C614.216 472.737 614.4 472.667 614.59 472.674H651.517C651.706 472.675 651.887 472.753 652.02 472.889C652.153 473.026 652.229 473.211 652.23 473.405C652.231 473.59 652.162 473.768 652.038 473.903C651.914 474.038 651.745 474.119 651.565 474.13H614.59V474.135Z" fill="black"/>
<path d="M621.639 460.183C621.449 460.183 621.268 460.106 621.134 459.969C621.001 459.832 620.926 459.646 620.926 459.452C620.926 459.258 621.001 459.073 621.134 458.936C621.268 458.799 621.449 458.722 621.639 458.722H644.202C644.391 458.722 644.573 458.799 644.706 458.936C644.84 459.073 644.915 459.258 644.915 459.452C644.915 459.646 644.84 459.832 644.706 459.969C644.573 460.106 644.391 460.183 644.202 460.183H621.639Z" fill="black"/>
<path d="M614.59 390.084H651.517C651.706 390.084 651.888 390.161 652.021 390.298C652.155 390.435 652.23 390.621 652.23 390.815C652.23 391.009 652.155 391.194 652.021 391.331C651.888 391.468 651.706 391.545 651.517 391.545H614.59C614.4 391.545 614.219 391.468 614.085 391.331C613.952 391.194 613.877 391.009 613.877 390.815C613.877 390.683 613.911 390.554 613.976 390.44L614.01 390.386C614.075 390.292 614.163 390.215 614.264 390.163C614.364 390.11 614.476 390.083 614.59 390.084Z" fill="black"/>
<path d="M651.517 424.403C651.706 424.403 651.888 424.48 652.021 424.617C652.155 424.754 652.23 424.94 652.23 425.134C652.23 425.327 652.155 425.513 652.021 425.65C651.888 425.787 651.706 425.864 651.517 425.864H614.59C614.4 425.864 614.219 425.787 614.085 425.65C613.952 425.513 613.877 425.327 613.877 425.134C613.877 424.94 613.952 424.754 614.085 424.617C614.219 424.48 614.4 424.403 614.59 424.403H651.517Z" fill="black"/>
<path d="M656.969 409.886H609.128C608.967 409.885 608.81 409.829 608.684 409.725C608.558 409.622 608.47 409.477 608.434 409.316C608.429 409.262 608.429 409.209 608.434 409.155C608.43 409.108 608.43 409.061 608.434 409.014C608.465 408.848 608.552 408.698 608.68 408.59C608.807 408.482 608.968 408.424 609.133 408.425H656.969C657.131 408.424 657.288 408.48 657.414 408.584C657.541 408.688 657.628 408.833 657.663 408.994C657.67 409.048 657.67 409.102 657.663 409.155C657.67 409.217 657.67 409.279 657.663 409.34C657.623 409.497 657.533 409.636 657.407 409.735C657.282 409.834 657.128 409.887 656.969 409.886Z" fill="black"/>
<path d="M485.474 117.21C507.543 128.027 535.007 148.753 556.572 188.507C565.708 205.367 569.082 222.475 569.087 238.575C569.087 257.49 564.42 275.007 558.982 288.984C548.894 257.056 535.41 226.361 518.774 197.453C518.685 197.296 518.54 197.179 518.37 197.126C518.201 197.073 518.017 197.087 517.857 197.166L479.808 114.595C481.652 115.418 483.539 116.261 485.474 117.21Z" fill="white"/>
<path d="M558.982 288.984C564.419 275.007 569.087 257.49 569.087 238.575C569.087 222.475 565.712 205.367 556.572 188.507C535.007 148.753 507.543 128.027 485.473 117.21C483.539 116.236 481.671 115.394 479.808 114.595L479.656 114.259C479.778 114.201 479.881 114.108 479.953 113.991C480.026 113.875 480.064 113.74 480.064 113.602C480.064 113.464 480.026 113.328 479.953 113.212C479.881 113.096 479.778 113.003 479.656 112.944C481.737 113.837 483.881 114.819 486.087 115.891C508.379 126.814 536.1 147.765 557.812 187.796C567.086 204.889 570.508 222.265 570.508 238.575C570.508 258.488 565.413 276.809 559.657 291.171C559.438 290.44 559.21 289.71 558.982 288.984Z" fill="black"/>
<path d="M153.909 205.415C148.272 201.651 143.88 197.54 141.308 193.917C139.583 191.482 138.703 189.305 138.713 187.679C138.701 187.085 138.835 186.497 139.103 185.969C139.279 185.619 139.523 185.309 139.82 185.059C140.171 184.78 140.562 184.562 140.98 184.411C142.13 184.029 143.336 183.853 144.545 183.89C146.918 183.948 149.28 184.25 151.594 184.791C154.213 185.356 157.032 186.15 159.855 187.041C165.507 188.833 171.182 191.034 175.384 192.675C176.782 193.235 178.211 193.713 179.662 194.107C180.665 194.397 181.7 194.561 182.742 194.594C183.344 194.616 183.943 194.5 184.496 194.253C184.991 194.02 185.383 193.605 185.594 193.089C185.728 192.749 185.794 192.385 185.789 192.018C185.776 191.456 185.68 190.899 185.503 190.367C185.29 189.715 185.029 189.08 184.724 188.468C183.896 186.847 182.957 185.288 181.915 183.802C180.975 182.509 180.45 180.948 180.413 179.337C180.391 177.952 180.878 176.61 181.777 175.577C182.184 175.112 182.683 174.739 183.239 174.483C183.796 174.227 184.399 174.094 185.009 174.092C186.21 174.111 187.37 174.543 188.303 175.319C189.708 176.486 190.836 177.965 191.602 179.643C193.142 182.75 195.88 186.461 199.093 190.279C202.306 194.097 206.042 198.071 209.583 201.67C212.91 205.026 216.033 208.05 218.443 210.319C214.717 210.49 211.741 211.4 209.412 212.788C207.057 214.188 205.108 216.205 203.765 218.632C202.31 221.324 201.421 224.299 201.156 227.364C194.834 223.181 186.003 218.627 173.991 214.936C166.892 212.75 160.131 209.544 153.909 205.415Z" fill="white"/>
<path d="M219.674 210.29C219.242 210.29 218.823 210.29 218.41 210.324C216 208.055 212.858 205.03 209.55 201.675C206.009 198.086 202.282 194.117 199.059 190.284C195.837 186.452 193.108 182.755 191.568 179.648C190.812 177.971 189.696 176.491 188.303 175.319C187.382 174.555 186.241 174.126 185.057 174.096C184.446 174.099 183.843 174.232 183.287 174.488C182.73 174.744 182.232 175.116 181.824 175.582C180.925 176.615 180.438 177.957 180.46 179.341C180.498 180.953 181.023 182.514 181.962 183.807C183.004 185.293 183.943 186.852 184.771 188.473C185.077 189.085 185.337 189.72 185.551 190.372C185.727 190.904 185.823 191.461 185.836 192.023C185.842 192.39 185.775 192.754 185.641 193.094C185.431 193.61 185.039 194.025 184.543 194.258C183.991 194.505 183.391 194.621 182.789 194.599C181.747 194.565 180.713 194.402 179.709 194.112C178.258 193.718 176.83 193.24 175.431 192.68C171.229 191.039 165.554 188.838 159.903 187.046C157.079 186.154 154.261 185.361 151.642 184.796C149.327 184.255 146.966 183.953 144.593 183.895C143.384 183.857 142.178 184.034 141.028 184.416C140.593 184.56 140.185 184.778 139.82 185.059C139.516 185.301 139.264 185.604 139.079 185.95C138.811 186.477 138.677 187.065 138.689 187.659C138.689 189.286 139.559 191.482 141.284 193.898C143.856 197.521 148.248 201.631 153.885 205.396C160.1 209.523 166.853 212.728 173.944 214.917C185.955 218.608 194.786 223.161 201.108 227.345C201.046 227.978 201.013 228.543 200.994 229.02C194.753 224.788 185.846 220.108 173.535 216.314C163.282 213.154 154.27 208.035 147.791 202.678C144.926 200.398 142.359 197.75 140.153 194.799C138.342 192.242 137.301 189.841 137.301 187.703C137.288 186.866 137.481 186.038 137.862 185.297C138.142 184.778 138.52 184.321 138.974 183.953C139.702 183.392 140.541 183 141.432 182.804C142.466 182.567 143.524 182.456 144.583 182.473C147.055 182.53 149.516 182.843 151.927 183.408C159.955 185.142 169.613 188.891 175.93 191.356C177.279 191.896 178.656 192.356 180.056 192.734C180.947 192.991 181.865 193.136 182.789 193.167C183.079 193.172 183.368 193.139 183.65 193.07C183.879 193.027 184.087 192.905 184.239 192.724C184.364 192.524 184.424 192.289 184.41 192.052C184.396 191.641 184.323 191.233 184.191 190.844C183.716 189.383 182.547 187.236 180.793 184.674C179.683 183.136 179.069 181.283 179.034 179.371C179.009 177.619 179.633 175.923 180.779 174.622C181.32 174.01 181.98 173.52 182.717 173.185C183.453 172.849 184.25 172.675 185.057 172.674C186.549 172.707 187.989 173.239 189.159 174.189C190.739 175.489 192.009 177.141 192.871 179.02C194.297 181.942 196.987 185.575 200.172 189.364C204.953 195.052 210.895 201.081 215.639 205.678C217.706 207.685 219.541 209.413 220.958 210.733L219.94 210.363C219.858 210.319 219.767 210.295 219.674 210.29Z" fill="black"/>
<path d="M505.204 457.29C524.26 454.636 545.744 451.646 569.985 448.276L559.448 534.235H498.003C498.445 530.583 500.27 515.111 502.1 495.928C503.25 483.841 504.391 470.283 505.204 457.29Z" fill="#135589"/>
<path d="M560.883 534.236L560.783 535.059C560.761 535.235 560.677 535.397 560.547 535.515C560.416 535.632 560.249 535.697 560.075 535.697H497.2C497.373 535.697 497.54 535.632 497.669 535.514C497.799 535.397 497.882 535.235 497.903 535.059C497.903 535.059 497.941 534.771 498.003 534.236H559.448L569.985 448.276L571.449 448.076L566.782 486.179L560.883 534.236Z" fill="black"/>
<path d="M501.064 491.609C499.106 512.739 497.033 530.271 496.577 534.099C496.577 534.153 496.577 534.187 496.577 534.235H403.623C399.07 526.025 395.543 514.712 392.848 502.094C390.913 493.031 389.402 483.291 388.223 473.512C406.665 470.97 442.348 466.036 503.778 457.504C503.056 468.895 502.081 480.729 501.064 491.609Z" fill="#135589"/>
<path d="M386.797 473.687L388.223 473.492C389.402 483.271 390.913 493.011 392.848 502.074C395.543 514.736 399.07 526.025 403.623 534.216H496.567C496.567 534.167 496.567 534.133 496.567 534.08C497.043 530.252 499.096 512.72 501.054 491.589C502.062 480.71 503.037 468.876 503.745 457.465L505.171 457.261C504.367 470.264 503.217 483.822 502.067 495.909C500.237 515.092 498.412 530.563 497.97 534.216C497.908 534.752 497.875 535.039 497.87 535.039C497.849 535.215 497.766 535.377 497.636 535.495C497.507 535.612 497.339 535.677 497.166 535.677H403.186C403.061 535.676 402.938 535.642 402.83 535.578C402.722 535.514 402.631 535.422 402.568 535.312C402.368 534.956 402.174 534.586 401.974 534.216C397.501 525.864 394.084 514.736 391.441 502.366C389.497 493.269 387.98 483.495 386.797 473.687Z" fill="black"/>
<path d="M383.028 97.784H382.98L382.799 97.8571C382.643 97.9204 382.4 98.0178 382.091 98.1298C381.469 98.3587 380.565 98.6606 379.453 98.9674C376.631 99.7511 373.722 100.16 370.798 100.185C367.417 100.239 364.068 99.5151 360.997 98.0665C357.783 96.4837 354.76 93.8783 352.341 89.6755C346.3 79.1661 343.22 65.9052 343.22 53.2725C343.217 49.5495 343.5 45.832 344.066 42.1544C347.134 41.9727 350.181 41.5197 353.173 40.8005C356.6 40.036 359.975 39.1301 362.888 38.5311C364.55 38.1506 366.244 37.9304 367.946 37.8737C368.829 37.8168 369.712 37.9964 370.508 38.3948C370.984 38.6902 371.391 39.0892 371.701 39.5636C372.038 40.0918 372.295 40.6699 372.461 41.2778C372.836 42.8185 373.004 44.4046 372.96 45.9919C372.96 48.4269 372.732 51.0713 372.732 53.4819C372.719 54.5622 372.789 55.6418 372.941 56.7107C373.063 57.6611 373.361 58.5787 373.821 59.4136C374.122 59.9397 374.529 60.3944 375.014 60.7479C375.738 61.2443 376.586 61.5196 377.457 61.5417C377.599 61.5417 377.742 61.5417 377.88 61.5417C378.506 61.5526 379.13 61.4538 379.724 61.2495C380.239 61.0675 380.708 60.7716 381.098 60.3827C381.809 59.6081 382.282 58.6358 382.457 57.5873C382.599 56.8573 382.696 56.1189 382.747 55.3764C382.823 54.3634 382.866 53.3212 382.952 52.3326C383.007 51.13 383.268 49.9466 383.722 48.836C383.959 48.3133 384.308 47.8522 384.744 47.487C385.349 47.0114 386.068 46.7104 386.825 46.6153C386.962 46.5911 387.1 46.5781 387.239 46.5763C387.611 46.5726 387.977 46.6809 388.289 46.888C388.652 47.1454 388.957 47.4771 389.188 47.862C389.876 49.1115 390.368 50.4639 390.647 51.87C391.474 55.279 392.073 59.808 393.209 64.1228C393.979 67.001 395.006 69.7866 396.574 72.0901C397.453 73.413 398.563 74.5573 399.849 75.465C401.456 76.5567 403.301 77.2257 405.22 77.413C406.524 77.56 407.835 77.6364 409.146 77.6418C411.157 77.6825 413.162 77.41 415.093 76.8334C417.632 82.6095 420.507 88.2249 423.701 93.6494C417.907 93.8734 410.221 95.0617 402.682 98.9723C397.821 101.491 393.481 104.949 389.901 109.155L383.945 98.047C383.851 97.895 383.705 97.7841 383.535 97.7355C383.366 97.687 383.185 97.7042 383.028 97.784Z" fill="white"/>
<path d="M344.056 42.1788C343.49 45.8564 343.208 49.5739 343.21 53.2969C343.21 65.9296 346.29 79.1905 352.332 89.6999C354.751 93.9027 357.774 96.5179 360.987 98.0909C364.058 99.5395 367.408 100.263 370.788 100.209C373.712 100.185 376.621 99.7755 379.444 98.9918C380.556 98.685 381.459 98.3831 382.082 98.1542C382.391 98.0422 382.633 97.9448 382.79 97.8815L382.971 97.8084H383.018C383.181 97.7361 383.364 97.7284 383.532 97.7869C383.7 97.8455 383.84 97.966 383.926 98.125L389.882 109.233C389.549 109.623 389.221 110.022 388.898 110.431L382.98 99.396C379.071 100.87 374.944 101.647 370.779 101.695C367.185 101.739 363.628 100.956 360.369 99.4058C356.465 97.4477 353.233 94.3213 351.1 90.4402C344.921 79.6532 341.789 66.1682 341.784 53.2969C341.781 49.5797 342.056 45.8677 342.606 42.1934H343.082C343.405 42.2031 343.733 42.1934 344.056 42.1788Z" fill="black"/>
<path d="M423.691 93.7031C420.497 88.2785 417.623 82.6632 415.083 76.8871C415.538 76.7397 415.984 76.5658 416.419 76.366C419.031 82.3221 422.014 88.1001 425.35 93.6641C424.818 93.669 424.266 93.6836 423.691 93.7031Z" fill="black"/>
<path d="M423.658 201.889C423.732 201.763 423.766 201.616 423.756 201.469C423.746 201.321 423.693 201.181 423.603 201.065C423.513 200.95 423.391 200.865 423.253 200.823C423.115 200.78 422.968 200.782 422.831 200.828L399.626 124.954C400.866 124.15 402.164 123.322 403.504 122.48C413.287 116.309 425.312 109.287 434.129 105.893C435.992 105.148 437.911 104.558 439.866 104.13C449.088 104.68 457.886 106.75 464.797 108.883C469.637 110.351 474.378 112.14 478.99 114.24L479.047 114.269C479.142 114.316 479.246 114.34 479.351 114.34C479.457 114.34 479.561 114.316 479.656 114.269L479.808 114.605L517.857 197.165L517.8 197.19C517.719 197.238 517.647 197.303 517.59 197.379C517.533 197.456 517.492 197.543 517.468 197.637C517.444 197.73 517.438 197.827 517.451 197.923C517.464 198.018 517.496 198.11 517.543 198.193C547.574 250.516 577.562 325.947 577.562 418.549C577.562 427.497 577.272 436.604 576.692 445.87C437.761 465.199 384.905 472.479 373.849 473.999L372.328 474.203C372.328 473.94 372.328 473.614 372.328 473.229C372.3 472.046 372.257 470.307 372.209 468.028C372.11 463.494 371.976 456.905 371.843 448.665C371.577 432.185 371.311 409.116 371.311 382.765C371.311 348.86 371.753 309.521 373.212 271.783C377.191 267.356 381.041 262.813 384.715 258.274C398.985 240.449 411.999 221.607 423.658 201.889ZM383.184 377.359C383.093 377.378 383.006 377.416 382.928 377.47C382.85 377.523 382.784 377.592 382.732 377.672C382.68 377.752 382.645 377.842 382.627 377.936C382.609 378.03 382.61 378.127 382.628 378.221C382.668 378.411 382.779 378.577 382.938 378.683C383.096 378.79 383.289 378.829 383.474 378.791L383.788 378.723L384.691 378.538C385.48 378.377 386.626 378.148 388.052 377.875C390.005 377.5 392.501 377.033 395.305 376.546L422.479 373.078C424.048 372.991 425.55 372.942 426.952 372.942C427.641 372.942 428.307 372.942 428.944 372.976C429.037 372.979 429.131 372.964 429.218 372.93C429.306 372.896 429.386 372.845 429.455 372.779C429.523 372.714 429.578 372.635 429.617 372.548C429.656 372.46 429.677 372.366 429.68 372.27C429.683 372.174 429.668 372.079 429.635 371.989C429.602 371.899 429.552 371.816 429.488 371.746C429.424 371.676 429.348 371.62 429.262 371.58C429.177 371.54 429.085 371.518 428.991 371.515C428.335 371.515 427.655 371.476 426.952 371.476C418.957 371.476 408.039 372.937 399.093 374.398C390.148 375.859 383.194 377.32 383.184 377.32V377.359Z" fill="white"/>
<path d="M479.998 113.913C479.926 114.066 479.805 114.188 479.656 114.259C479.561 114.306 479.457 114.331 479.351 114.331C479.246 114.331 479.142 114.306 479.047 114.259L478.99 114.23C474.378 112.131 469.637 110.341 464.797 108.873C457.886 106.74 449.088 104.67 439.866 104.12C440.161 104.061 440.456 104.003 440.732 103.964C440.861 103.944 440.982 103.888 441.083 103.802C441.183 103.716 441.259 103.604 441.302 103.477C441.345 103.356 441.356 103.226 441.333 103.099C441.311 102.972 441.255 102.854 441.174 102.756C454.463 103.98 467.469 107.421 479.675 112.944C479.842 113.03 479.969 113.18 480.03 113.361C480.09 113.542 480.079 113.741 479.998 113.913Z" fill="black"/>
<path d="M569.985 448.276C545.744 451.646 524.26 454.636 505.204 457.29L503.778 457.494C442.348 466.027 406.665 470.96 388.223 473.502L386.797 473.697L371.734 475.771C371.635 475.784 371.534 475.776 371.438 475.747C371.342 475.717 371.254 475.668 371.178 475.602C371.101 475.535 371.04 475.453 370.996 475.361C370.953 475.268 370.929 475.168 370.926 475.065C370.926 475.065 370.779 469.533 370.588 459.847C370.275 443.63 369.861 415.773 369.861 382.76C369.861 349.347 370.289 310.684 371.686 273.424C372.187 272.879 372.685 272.33 373.179 271.778C371.729 309.516 371.278 348.855 371.278 382.76C371.278 409.111 371.544 432.18 371.81 448.66C371.943 456.9 372.076 463.489 372.176 468.023C372.224 470.288 372.266 472.041 372.295 473.224C372.295 473.624 372.295 473.95 372.295 474.198L373.816 473.994C384.872 472.475 437.727 465.194 576.659 445.865C577.28 436.599 577.581 427.494 577.562 418.549C577.562 325.947 547.574 250.535 517.543 198.193C517.496 198.11 517.464 198.018 517.451 197.923C517.438 197.827 517.444 197.73 517.468 197.637C517.492 197.543 517.533 197.456 517.59 197.379C517.647 197.303 517.719 197.238 517.8 197.19L517.857 197.166C518.017 197.087 518.201 197.073 518.37 197.126C518.54 197.179 518.685 197.296 518.774 197.453C535.412 226.369 548.896 257.072 558.982 289.008C559.21 289.734 559.457 290.469 559.661 291.19C572.442 332.384 578.96 375.348 578.988 418.574C578.988 427.742 578.685 437.08 578.08 446.586C578.069 446.754 578.002 446.913 577.889 447.035C577.776 447.158 577.625 447.237 577.462 447.258L571.411 448.076L569.985 448.276Z" fill="black"/>
<path d="M422.427 201.13C422.427 201.13 422.322 201.32 422.109 201.68C421.895 202.04 421.586 202.576 421.158 203.268C420.331 204.656 419.114 206.677 417.545 209.204C414.408 214.259 409.874 221.35 404.274 229.478C393.076 245.739 377.623 266.153 360.65 282.76C349.337 293.834 337.359 303.214 325.523 308.537C318.769 311.585 312.081 313.309 305.607 313.309C304.555 313.309 303.51 313.264 302.47 313.173C289.708 312.038 277.24 306.613 265.68 299.011C254.121 291.409 243.464 281.64 234.309 271.861C230.031 267.293 226.115 262.73 222.574 258.386C222.211 256.542 222.031 254.666 222.037 252.785C222.037 246.109 224.156 239.602 226.357 234.684C227.682 231.675 229.261 228.791 231.077 226.064V226.03C231.132 225.952 231.172 225.864 231.193 225.771C231.215 225.677 231.219 225.581 231.204 225.486C231.189 225.391 231.156 225.3 231.107 225.219C231.058 225.137 230.994 225.066 230.918 225.01C230.842 224.953 230.756 224.913 230.665 224.891C230.574 224.868 230.48 224.865 230.387 224.88C230.295 224.895 230.206 224.929 230.126 224.979C230.046 225.029 229.977 225.095 229.922 225.173C228.136 227.839 226.574 230.656 225.254 233.593C222.93 238.682 220.592 245.563 220.587 252.785C220.588 253.924 220.652 255.063 220.777 256.194C214.174 247.983 208.045 239.385 202.42 230.442L202.382 230.379C202.382 230.242 202.382 230.043 202.382 229.785C202.389 228.074 202.579 226.369 202.948 224.7C203.454 222.244 204.452 219.922 205.88 217.882C207 216.328 208.421 215.026 210.054 214.059C212.392 212.681 215.463 211.775 219.532 211.756C228.287 214.834 238.882 220.035 249.733 225.367C260.585 230.7 271.831 236.193 281.689 239.69C288.263 242.037 294.262 243.537 299.276 243.537C301.55 243.594 303.813 243.185 305.931 242.334C307.882 241.518 309.555 240.131 310.741 238.346C313.445 234.28 319.672 225.46 327.605 214.347C335.538 203.233 345.192 189.831 354.751 176.575C365.964 161.04 377.067 145.714 385.171 134.533C385.501 134.365 385.819 134.173 386.122 133.958L386.464 133.72L387.458 133.033C388.318 132.439 389.568 131.572 391.127 130.535C393.385 129.01 396.294 127.077 399.593 124.954L422.798 200.828C422.643 200.881 422.512 200.988 422.427 201.13Z" fill="white"/>
<path d="M385.143 134.552H385.181C377.072 145.753 365.968 161.06 354.76 176.595C345.192 189.851 335.548 203.258 327.615 214.366C319.682 225.475 313.455 234.299 310.75 238.365C309.564 240.15 307.891 241.537 305.94 242.354C303.822 243.204 301.56 243.613 299.286 243.557C294.271 243.557 288.273 242.057 281.699 239.71C271.841 236.189 260.69 230.729 249.791 225.382C238.891 220.035 228.344 214.848 219.589 211.771C215.52 211.771 212.459 212.696 210.111 214.074C208.478 215.041 207.057 216.342 205.938 217.897C204.51 219.937 203.511 222.259 203.005 224.715C202.636 226.383 202.446 228.088 202.439 229.799C202.439 230.057 202.439 230.257 202.439 230.393L202.477 230.457C208.102 239.399 214.231 247.998 220.834 256.209C220.926 257.105 221.062 257.996 221.243 258.878C221.281 259.068 221.392 259.234 221.55 259.34C221.708 259.447 221.901 259.484 222.087 259.445C222.272 259.406 222.434 259.292 222.538 259.13C222.642 258.968 222.679 258.771 222.64 258.581C222.64 258.522 222.64 258.464 222.607 258.41C226.148 262.754 230.079 267.317 234.343 271.885C243.474 281.664 254.126 291.433 265.714 299.035C277.302 306.637 289.741 312.063 302.504 313.197C303.543 313.288 304.589 313.334 305.641 313.334C312.115 313.334 318.802 311.61 325.557 308.561C337.373 303.233 349.37 293.859 360.683 282.784C377.657 266.178 393.109 245.773 404.308 229.502C409.907 221.374 414.442 214.283 417.579 209.228C419.147 206.701 420.364 204.68 421.191 203.292C421.605 202.6 421.918 202.065 422.142 201.704C422.365 201.344 422.46 201.154 422.46 201.154C422.55 200.998 422.695 200.883 422.864 200.833C423.001 200.787 423.149 200.785 423.287 200.828C423.425 200.87 423.547 200.955 423.637 201.07C423.726 201.185 423.78 201.326 423.79 201.473C423.799 201.621 423.765 201.767 423.691 201.894C412.021 221.608 398.996 240.445 384.715 258.264C381.041 262.803 377.191 267.347 373.212 271.773C372.718 272.322 372.221 272.871 371.72 273.419C363.787 282.112 355.35 290.299 346.708 297.063C339.935 302.362 333.033 306.803 326.146 309.9C319.259 312.998 312.362 314.77 305.655 314.77C304.562 314.77 303.478 314.727 302.399 314.629C288.895 313.426 275.833 307.568 263.827 299.493C245.822 287.372 230.174 270.273 219.009 256.151C212.583 248.127 206.615 239.728 201.137 230.997C201.077 230.897 201.041 230.783 201.032 230.666C201.032 230.666 201.032 230.33 201.032 229.775C201.032 229.565 201.032 229.312 201.032 229.039C201.032 228.552 201.084 227.997 201.146 227.364C201.411 224.299 202.3 221.324 203.756 218.632C205.098 216.205 207.047 214.188 209.403 212.788C211.741 211.4 214.717 210.49 218.434 210.319C218.847 210.319 219.265 210.285 219.698 210.285C219.777 210.283 219.856 210.297 219.931 210.324L220.948 210.694C232.651 214.941 247.224 222.631 261.312 229.341C268.556 232.794 275.667 235.984 282.165 238.307C288.662 240.63 294.523 242.076 299.276 242.071C301.362 242.127 303.438 241.758 305.384 240.985C307.083 240.277 308.538 239.069 309.567 237.513C312.481 233.13 319.363 223.39 328.066 211.215C344.817 187.781 368.283 155.362 382.947 135.146C383.712 135.109 384.46 134.906 385.143 134.552Z" fill="black"/>
<path d="M439.239 102.756C437.329 103.197 435.455 103.783 433.63 104.51C431.054 105.484 428.235 106.784 425.288 108.255C419.399 111.201 413.001 114.902 407.088 118.525C395.262 125.777 385.357 132.731 385.352 132.736L385.314 132.765L385.143 132.872C384.948 132.995 384.746 133.108 384.539 133.208C384.034 133.488 383.477 133.654 382.904 133.695C382.63 133.708 382.359 133.624 382.139 133.457C381.84 133.185 381.639 132.818 381.568 132.414C381.454 131.902 381.399 131.377 381.407 130.851C381.467 129.068 381.73 127.298 382.191 125.577C387.134 112.16 395.12 104.592 403.338 100.316C411.556 96.0406 420.046 95.1056 425.854 95.1056C428.222 95.0822 430.588 95.245 432.931 95.5926L439.239 102.756Z" fill="#135589"/>
<path d="M441.302 103.497C441.259 103.623 441.183 103.736 441.083 103.821C440.982 103.907 440.861 103.963 440.731 103.984C440.456 104.022 440.161 104.081 439.866 104.139C437.911 104.568 435.992 105.158 434.129 105.902C425.312 109.311 413.286 116.319 403.504 122.489C402.164 123.332 400.866 124.16 399.626 124.963C396.327 127.087 393.418 129.02 391.16 130.544C389.601 131.591 388.351 132.448 387.491 133.043L386.497 133.729L386.155 133.968C385.852 134.183 385.535 134.375 385.205 134.543H385.167C384.485 134.903 383.737 135.113 382.971 135.156H382.909C382.527 135.16 382.149 135.084 381.797 134.932C381.192 134.652 380.713 134.149 380.451 133.525C380.106 132.679 379.944 131.767 379.976 130.851C380.037 128.94 380.316 127.042 380.808 125.197L380.836 125.114C382.729 119.793 385.458 114.825 388.917 110.407C389.234 109.998 389.562 109.599 389.901 109.209C393.478 105.003 397.815 101.546 402.673 99.0259C410.211 95.1299 417.883 93.927 423.691 93.703C424.266 93.703 424.818 93.6689 425.35 93.6641H425.825C428.359 93.6378 430.89 93.8284 433.393 94.2338C433.547 94.2631 433.687 94.3436 433.792 94.4627L441.14 102.742C441.234 102.839 441.299 102.962 441.327 103.095C441.356 103.229 441.347 103.368 441.302 103.497ZM432.912 95.6267C430.569 95.2791 428.203 95.1163 425.835 95.1397C420.027 95.1397 411.547 96.0796 403.319 100.351C395.091 104.621 387.115 112.194 382.172 125.611C381.711 127.332 381.448 129.102 381.388 130.885C381.38 131.411 381.435 131.936 381.549 132.448C381.62 132.852 381.821 133.219 382.12 133.491C382.34 133.658 382.611 133.742 382.885 133.729C383.458 133.688 384.015 133.522 384.52 133.242C384.727 133.142 384.929 133.03 385.124 132.906L385.295 132.799L385.333 132.77C385.333 132.77 395.243 125.811 407.069 118.559C412.982 114.936 419.38 111.254 425.269 108.289C428.216 106.828 431.035 105.537 433.611 104.544C435.435 103.817 437.31 103.231 439.22 102.79L432.912 95.6267Z" fill="black"/>
<path d="M415.155 75.3189C413.216 75.9811 411.18 76.2909 409.137 76.2344C407.878 76.2295 406.619 76.1564 405.368 76.0153C403.432 75.8371 401.587 75.0915 400.054 73.8676C398.613 72.6505 397.445 71.131 396.627 69.4116C394.825 65.8419 393.912 61.2788 393.138 57.1003C392.733 54.5717 392.179 52.0705 391.479 49.6103C391.169 48.526 390.673 47.5068 390.015 46.6007C389.694 46.1821 389.297 45.8315 388.846 45.5682C388.35 45.2904 387.794 45.1463 387.229 45.1494C387.016 45.1505 386.803 45.1684 386.593 45.203C385.715 45.3287 384.876 45.6513 384.135 46.1478C383.503 46.5945 382.979 47.1843 382.605 47.8717C381.873 49.2061 381.654 50.7937 381.502 52.3424C381.416 53.3845 381.378 54.4267 381.297 55.391C381.267 56.4977 381.036 57.5891 380.618 58.61C380.425 59.0302 380.124 59.3887 379.748 59.6473C379.175 59.9988 378.513 60.1682 377.847 60.1343H377.495C376.891 60.1239 376.303 59.9381 375.798 59.5986C375.358 59.2712 375.015 58.8265 374.805 58.3129C374.296 57.1831 374.12 55.4786 374.125 53.5306C374.125 51.2077 374.348 48.5584 374.353 46.0406C374.372 44.7245 374.276 43.4093 374.068 42.1106C373.891 40.9283 373.475 39.797 372.846 38.7892C372.419 38.141 371.86 37.596 371.206 37.1919C370.192 36.6498 369.055 36.3974 367.912 36.4614C366.116 36.515 364.328 36.7449 362.575 37.1481C360.593 37.5571 358.43 38.0928 356.205 38.6091C351.761 39.6853 347.046 40.7421 343.058 40.7421C341.2 40.7919 339.351 40.4607 337.62 39.7681C336.09 39.1295 334.827 37.9611 334.051 36.4663C333.421 35.2076 333.032 33.8373 332.905 32.4291C332.863 32.0524 332.843 31.6735 332.843 31.2944C332.843 28.6256 333.875 25.8984 335.733 23.2151C337.903 20.2459 340.506 17.6373 343.452 15.4816C349.836 10.6116 358.292 6.52083 366.391 4.03228C371.815 2.40084 377.058 1.46094 381.397 1.46094C383.089 1.44003 384.778 1.61814 386.431 1.99176C387.739 2.27332 388.98 2.8179 390.081 3.59398C392.263 5.21081 394.678 7.90877 397.126 11.3324C399.834 15.1919 402.285 19.2352 404.46 23.4342C409.34 32.7287 413.357 42.4725 416.457 52.5372C418.358 58.8194 419.561 64.5952 419.784 69.0074V69.0561V69.1194C419.784 69.173 419.784 69.2558 419.784 69.3629C419.776 70.3287 419.534 71.2775 419.081 72.1242C418.468 73.2686 417.355 74.5105 415.155 75.3189Z" fill="black"/>
<path d="M415.083 76.8871C413.153 77.4636 411.148 77.7362 409.137 77.6955C407.825 77.69 406.515 77.6136 405.211 77.4666C403.292 77.2794 401.447 76.6103 399.84 75.5186C398.554 74.6109 397.443 73.4666 396.565 72.1437C394.996 69.8402 393.97 67.0546 393.2 64.1764C392.045 59.8616 391.465 55.318 390.638 51.9236C390.359 50.5176 389.867 49.1651 389.178 47.9156C388.948 47.5307 388.642 47.199 388.28 46.9416C387.967 46.7346 387.602 46.6262 387.23 46.6299C387.091 46.6317 386.953 46.6447 386.816 46.6689C386.059 46.764 385.34 47.065 384.734 47.5406C384.299 47.9058 383.949 48.3669 383.712 48.8896C383.259 50.0003 382.998 51.1836 382.942 52.3862C382.857 53.3602 382.814 54.417 382.738 55.43C382.687 56.1725 382.59 56.911 382.448 57.6409C382.273 58.6894 381.8 59.6617 381.088 60.4363C380.698 60.8252 380.229 61.1212 379.715 61.3032C379.121 61.5074 378.497 61.6062 377.87 61.5954C377.733 61.5954 377.59 61.5954 377.447 61.5954C376.576 61.5732 375.729 61.2979 375.004 60.8016C374.519 60.4481 374.113 59.9933 373.811 59.4672C373.352 58.6323 373.053 57.7147 372.932 56.7643C372.78 55.6954 372.71 54.6158 372.723 53.5356C372.723 51.1006 372.951 48.4757 372.951 46.0456C372.995 44.4582 372.827 42.8722 372.452 41.3314C372.285 40.7235 372.029 40.1454 371.691 39.6172C371.382 39.1428 370.975 38.7438 370.498 38.4484C369.703 38.05 368.82 37.8704 367.936 37.9273C366.234 37.9841 364.541 38.2042 362.879 38.5848C359.965 39.1838 356.59 40.0896 353.163 40.8542C350.171 41.5733 347.124 42.0263 344.056 42.208C343.728 42.208 343.405 42.208 343.106 42.208H342.63C339.907 42.1496 337.402 41.6188 335.434 40.2016C334.333 39.4271 333.43 38.3933 332.801 37.1871C332.09 35.7663 331.653 34.2188 331.512 32.6288C331.465 32.1971 331.441 31.763 331.441 31.3285C331.473 29.2328 331.972 27.1723 332.9 25.3044C334.535 21.8954 337.411 18.6033 341.033 15.6082C346.461 11.1181 353.582 7.2319 360.83 4.45602C368.079 1.68014 375.442 2.10569e-06 381.397 2.10569e-06C383.2 -0.0220516 384.999 0.169142 386.759 0.569788C388.254 0.903129 389.669 1.53711 390.923 2.43499C394.084 4.7677 397.444 8.94613 400.771 14.1862C405.772 22.0415 410.696 32.2879 414.461 42.2859C416.266 47.023 417.816 51.858 419.105 56.7692C420.197 60.7332 420.902 64.7985 421.21 68.9052C421.21 68.9636 421.21 69.1195 421.21 69.363C421.205 70.0677 421.101 70.7681 420.901 71.4424C420.383 73.1604 419.284 74.633 417.802 75.5965C417.362 75.8899 416.899 76.1472 416.419 76.366C415.984 76.5658 415.538 76.7397 415.083 76.8871ZM419.784 69.363C419.784 69.2558 419.784 69.173 419.784 69.1195V69.0561V69.0074C419.57 64.5953 418.358 58.8195 416.457 52.5372C413.36 42.4729 409.346 32.7291 404.469 23.4343C402.294 19.2352 399.844 15.192 397.135 11.3324C394.687 7.92344 392.273 5.21087 390.091 3.59404C388.99 2.81795 387.749 2.27337 386.44 1.99182C384.785 1.61745 383.093 1.43934 381.397 1.46099C377.058 1.46099 371.815 2.4009 366.415 4.05669C358.335 6.54524 349.86 10.6409 343.476 15.506C340.53 17.6618 337.927 20.2703 335.757 23.2395C333.899 25.9228 332.867 28.65 332.867 31.3188C332.866 31.6979 332.887 32.0768 332.929 32.4535C333.056 33.8617 333.445 35.2321 334.074 36.4907C334.85 37.9855 336.114 39.1539 337.644 39.7925C339.375 40.4851 341.224 40.8163 343.082 40.7665C347.07 40.7665 351.785 39.7097 356.229 38.6335C358.454 38.0929 360.616 37.5572 362.598 37.1725C364.352 36.7694 366.14 36.5394 367.936 36.4858C369.078 36.4219 370.216 36.6742 371.23 37.2163C371.884 37.6204 372.443 38.1655 372.87 38.8136C373.499 39.8214 373.915 40.9527 374.092 42.135C374.3 43.4337 374.396 44.7489 374.377 46.065C374.377 48.5828 374.149 51.2321 374.149 53.555C374.149 55.503 374.32 57.2075 374.828 58.3374C375.039 58.851 375.382 59.2956 375.822 59.623C376.327 59.9626 376.915 60.1483 377.519 60.1587H377.87C378.537 60.1926 379.199 60.0232 379.772 59.6717C380.148 59.4131 380.449 59.0546 380.642 58.6344C381.06 57.6135 381.29 56.5221 381.321 55.4154C381.402 54.4414 381.44 53.4089 381.526 52.3668C381.664 50.8035 381.896 49.2305 382.628 47.8961C382.993 47.2025 383.509 46.6043 384.135 46.1478C384.874 45.6527 385.709 45.3301 386.583 45.203C386.794 45.1685 387.007 45.1506 387.22 45.1495C387.785 45.1463 388.341 45.2904 388.836 45.5683C389.288 45.8315 389.685 46.1822 390.005 46.6007C390.664 47.5069 391.16 48.526 391.469 49.6104C392.169 52.0705 392.723 54.5717 393.128 57.1004C393.903 61.2788 394.816 65.842 396.617 69.4117C397.435 71.131 398.604 72.6505 400.044 73.8677C401.577 75.0916 403.422 75.8372 405.358 76.0153C406.61 76.1564 407.868 76.2296 409.128 76.2345C411.17 76.291 413.207 75.9811 415.145 75.3189C417.346 74.4862 418.472 73.2687 419.071 72.1242C419.528 71.2784 419.773 70.3296 419.784 69.363Z" fill="black"/>
<path d="M118.745 66.402C122.005 60.6214 125.832 56.8958 129.876 54.5972C133.719 52.4567 138.033 51.3634 142.406 51.422C148.77 51.422 154.926 53.443 159.57 55.542C162.398 56.8022 165.115 58.3076 167.693 60.0418H167.722C167.841 60.1277 167.984 60.1738 168.13 60.1738C168.277 60.1738 168.419 60.1277 168.539 60.0418H168.568L168.667 59.9736L169.071 59.7009C169.428 59.4672 169.951 59.1311 170.621 58.7269C172.441 57.6297 174.318 56.6347 176.244 55.7465C180.94 53.5794 187.286 51.422 193.831 51.422C198.204 51.3634 202.518 52.4567 206.36 54.5972C210.405 56.8958 214.232 60.6214 217.492 66.402C219.277 69.5876 220.196 73.2047 220.154 76.8773C220.154 82.283 218.372 88.0782 215.439 93.9222H192.015L185.765 75.8546C185.72 75.7208 185.639 75.6033 185.53 75.5167C185.421 75.4301 185.289 75.3782 185.152 75.3676C185.014 75.3561 184.876 75.386 184.754 75.4534C184.633 75.5208 184.533 75.623 184.467 75.7475L168.035 106.803L151.114 81.4161C151.049 81.3211 150.964 81.2426 150.865 81.1869C150.766 81.1311 150.656 81.0996 150.543 81.0947C150.431 81.0922 150.319 81.1169 150.218 81.1669C150.116 81.2168 150.027 81.2905 149.959 81.382L140.576 93.9173H120.807C117.875 88.0734 116.092 82.2635 116.097 76.8724C116.052 73.2028 116.966 69.5876 118.745 66.402Z" fill="#3DDAD7"/>
<path d="M195.238 121.092C186.796 129.892 177.741 138.053 168.145 145.51L167.27 144.838C166.433 144.185 165.221 143.226 163.719 141.998C160.715 139.563 156.552 136.033 151.927 131.772C142.677 123.264 131.583 111.805 124.225 99.9901C123.274 98.461 122.387 96.9285 121.563 95.3929H140.966C141.075 95.392 141.183 95.3656 141.281 95.3159C141.379 95.2661 141.464 95.1942 141.531 95.1055L150.529 83.0865L167.555 108.629C167.624 108.733 167.718 108.817 167.827 108.873C167.937 108.929 168.059 108.955 168.181 108.948C168.303 108.942 168.422 108.903 168.525 108.837C168.629 108.77 168.714 108.676 168.772 108.566L184.976 77.9194L190.86 94.9254C190.91 95.0671 191.001 95.1897 191.121 95.2768C191.24 95.3639 191.383 95.4112 191.53 95.4124H214.702C214.018 96.711 213.283 97.9967 212.497 99.2694C207.853 106.876 201.612 114.395 195.238 121.092Z" fill="#3DDAD7"/>
<path d="M121.549 95.3978C122.367 96.9334 123.254 98.4658 124.211 99.995C131.569 111.785 142.663 123.269 151.912 131.776C156.537 136.033 160.701 139.568 163.705 142.003C165.207 143.231 166.419 144.19 167.256 144.843L168.13 145.515C177.727 138.058 186.782 129.897 195.224 121.097C201.583 114.4 207.839 106.881 212.487 99.2597C213.273 97.961 214.008 96.6753 214.693 95.4026H216.347C215.396 97.2013 214.37 98.995 213.267 100.784C205.785 112.769 194.62 124.306 185.318 132.867C176.016 141.429 168.582 146.99 168.572 147.015C168.45 147.107 168.302 147.157 168.149 147.157C167.997 147.157 167.849 147.107 167.726 147.015C158.37 139.79 149.522 131.901 141.246 123.405C134.63 116.558 128.004 108.771 123.018 100.779C121.899 98.9934 120.872 97.1997 119.938 95.3978H121.549Z" fill="black"/>
<path d="M215.463 93.9368C218.396 88.0929 220.183 82.283 220.178 76.8919C220.22 73.2193 219.301 69.6022 217.516 66.4166C214.256 60.636 210.429 56.9104 206.384 54.6118C202.542 52.4713 198.228 51.378 193.855 51.4366C187.286 51.4366 180.94 53.594 176.268 55.7611C174.342 56.6493 172.465 57.6443 170.645 58.7416C169.975 59.1458 169.452 59.4818 169.095 59.7155L168.691 59.9883L168.592 60.0564H168.563C168.443 60.1424 168.3 60.1884 168.154 60.1884C168.008 60.1884 167.865 60.1424 167.745 60.0564H167.717C165.139 58.3223 162.422 56.8168 159.594 55.5566C154.95 53.4576 148.794 51.4366 142.43 51.4366C138.057 51.378 133.743 52.4713 129.9 54.6118C125.855 56.9104 122.029 60.636 118.768 66.4166C116.984 69.6022 116.065 73.2193 116.107 76.8919C116.107 82.2976 117.884 88.0929 120.817 93.9368H119.225C116.416 88.1708 114.681 82.3999 114.681 76.8919C114.638 72.9644 115.623 69.0968 117.533 65.691C120.898 59.7155 124.919 55.7709 129.206 53.3359C133.261 51.0761 137.814 49.9207 142.43 49.9805C149.303 49.9805 155.815 52.2158 160.625 54.4316C163.234 55.6268 165.751 57.0219 168.154 58.6052C170.558 57.0219 173.075 55.6268 175.683 54.4316C180.494 52.2158 187.005 49.9853 193.879 49.9805C198.494 49.9207 203.047 51.0761 207.102 53.3359C211.38 55.7709 215.411 59.7155 218.776 65.691C220.685 69.0968 221.67 72.9644 221.628 76.8919C221.628 82.4145 219.893 88.1854 217.084 93.9368H215.463Z" fill="black"/>
<path d="M601.571 141.901C601.571 141.901 579.107 112.009 589.949 101.344C600.791 90.6788 612.032 104.875 612.032 104.875C612.032 104.875 628.935 99.0308 632.533 114.001C636.131 128.971 601.571 141.901 601.571 141.901Z" fill="#2A93D5"/>
<path d="M125.161 245.992C133.242 254.451 115.299 276.75 115.299 276.75C115.299 276.75 89.1322 265.983 92.2503 254.602C95.3684 243.221 108.164 248.135 108.164 248.135C108.164 248.135 117.095 237.533 125.161 245.992Z" fill="#2A93D5"/>
<path d="M231.771 95.3977H191.535C191.388 95.3966 191.245 95.3493 191.125 95.2622C191.005 95.1751 190.915 95.0524 190.865 94.9107L184.976 77.9194L168.753 108.6C168.695 108.711 168.61 108.804 168.506 108.871C168.403 108.938 168.284 108.976 168.162 108.982C168.04 108.989 167.918 108.963 167.808 108.907C167.699 108.851 167.605 108.767 167.536 108.664L150.51 83.1205L141.512 95.1396C141.446 95.2283 141.36 95.3002 141.262 95.3499C141.164 95.3997 141.056 95.426 140.947 95.427H103.52C103.331 95.427 103.15 95.35 103.016 95.213C102.882 95.076 102.807 94.8902 102.807 94.6965C102.807 94.5027 102.882 94.3169 103.016 94.1799C103.15 94.0429 103.331 93.966 103.52 93.966H140.595L149.978 81.4307C150.046 81.3391 150.135 81.2654 150.237 81.2155C150.338 81.1656 150.45 81.1409 150.563 81.1433C150.675 81.1482 150.786 81.1798 150.884 81.2355C150.983 81.2913 151.069 81.3697 151.133 81.4648L168.054 106.852L184.5 75.7669C184.566 75.6424 184.666 75.5403 184.788 75.4728C184.909 75.4054 185.047 75.3756 185.185 75.387C185.322 75.3977 185.454 75.4495 185.563 75.5361C185.672 75.6227 185.754 75.7402 185.798 75.874L192.049 93.9416H231.771C231.96 93.9416 232.142 94.0186 232.275 94.1556C232.409 94.2926 232.484 94.4784 232.484 94.6721C232.484 94.8659 232.409 95.0517 232.275 95.1887C232.142 95.3256 231.96 95.4026 231.771 95.4026V95.3977Z" fill="white"/>
<path d="M225.316 233.612C226.636 230.675 228.198 227.858 229.984 225.192C230.039 225.114 230.108 225.049 230.188 224.998C230.268 224.948 230.356 224.914 230.449 224.899C230.541 224.884 230.636 224.888 230.727 224.91C230.818 224.932 230.904 224.973 230.98 225.029C231.056 225.085 231.12 225.156 231.169 225.238C231.218 225.32 231.251 225.411 231.266 225.505C231.28 225.6 231.277 225.697 231.255 225.79C231.233 225.884 231.194 225.972 231.139 226.049V226.083C229.323 228.81 227.744 231.694 226.419 234.703C224.195 239.602 222.051 246.128 222.051 252.805C222.046 254.685 222.226 256.562 222.588 258.405C222.588 258.459 222.588 258.517 222.621 258.576C222.66 258.766 222.623 258.963 222.519 259.126C222.415 259.288 222.253 259.401 222.067 259.44C221.882 259.48 221.689 259.442 221.531 259.336C221.373 259.229 221.262 259.063 221.224 258.873C221.043 257.991 220.907 257.1 220.815 256.204C220.69 255.072 220.626 253.934 220.625 252.795C220.653 245.583 223.001 238.701 225.316 233.612Z" fill="black"/>
<path d="M422.46 373.078L395.286 376.546C396.565 376.322 397.905 376.093 399.298 375.864C406.613 374.661 415.259 373.468 422.46 373.078Z" fill="#135589"/>
<path d="M426.914 371.481C427.617 371.481 428.297 371.481 428.953 371.52C429.047 371.523 429.139 371.545 429.224 371.585C429.309 371.625 429.386 371.681 429.45 371.751C429.514 371.821 429.564 371.904 429.597 371.993C429.63 372.083 429.645 372.179 429.642 372.275C429.639 372.371 429.618 372.465 429.579 372.553C429.54 372.64 429.485 372.719 429.417 372.784C429.348 372.85 429.268 372.901 429.18 372.935C429.093 372.969 428.999 372.984 428.906 372.981C428.269 372.981 427.603 372.947 426.914 372.947C425.512 372.947 424.01 372.996 422.441 373.083C415.24 373.473 406.594 374.666 399.279 375.869C397.886 376.098 396.546 376.327 395.267 376.551C392.463 377.038 389.967 377.525 388.014 377.88C386.588 378.153 385.442 378.367 384.653 378.543L383.75 378.728L383.436 378.796C383.251 378.833 383.058 378.795 382.9 378.688C382.741 378.582 382.63 378.416 382.59 378.226C382.572 378.132 382.571 378.035 382.589 377.941C382.607 377.847 382.642 377.757 382.694 377.677C382.746 377.597 382.812 377.528 382.89 377.474C382.968 377.421 383.055 377.383 383.146 377.364C383.146 377.364 390.11 375.903 399.055 374.442C408.001 372.981 418.938 371.486 426.914 371.481Z" fill="black"/>
<path d="M175.389 520.614H252.576V532.994H175.389V520.614Z" fill="white"/>
<path d="M253.797 534.236C253.664 534.373 253.483 534.45 253.294 534.45H174.685C174.496 534.45 174.315 534.373 174.181 534.236C174.055 534.106 173.982 533.932 173.977 533.749V520.6H175.403V532.979H252.576V520.6H254.002V533.749C253.997 533.932 253.923 534.106 253.797 534.236Z" fill="black"/>
<path d="M146.066 403.969H281.903C286.567 403.969 291.041 405.867 294.339 409.246C297.637 412.626 299.49 417.209 299.49 421.988V501.12C299.49 505.899 297.637 510.482 294.339 513.861C291.041 517.24 286.567 519.139 281.903 519.139H146.066C141.402 519.139 136.928 517.24 133.63 513.861C130.332 510.482 128.479 505.899 128.479 501.12V421.983C128.479 417.204 130.332 412.621 133.63 409.241C136.928 405.862 141.402 403.964 146.066 403.964V403.969ZM135.694 463.757V495.524C135.694 497.794 136.13 500.041 136.977 502.138C137.824 504.235 139.066 506.14 140.632 507.745C142.198 509.35 144.058 510.623 146.104 511.492C148.15 512.361 150.344 512.808 152.559 512.808H275.41C279.883 512.808 284.172 510.987 287.335 507.747C290.498 504.506 292.275 500.112 292.275 495.529V427.583C292.275 423.001 290.498 418.606 287.335 415.365C284.172 412.125 279.883 410.305 275.41 410.305H152.559C148.086 410.305 143.797 412.125 140.634 415.365C137.471 418.606 135.694 423.001 135.694 427.583V463.757Z" fill="black"/>
<path d="M146.066 402.508H281.903C286.946 402.508 291.782 404.56 295.347 408.213C298.913 411.866 300.916 416.821 300.916 421.987V501.12C300.916 506.286 298.913 511.241 295.347 514.894C291.782 518.547 286.946 520.599 281.903 520.599H146.066C141.024 520.599 136.188 518.547 132.622 514.894C129.056 511.241 127.053 506.286 127.053 501.12V421.983C127.051 418.827 127.799 415.719 129.231 412.926C130.664 410.132 132.739 407.739 135.276 405.951C135.538 405.766 135.799 405.585 136.07 405.415C139.072 403.51 142.535 402.503 146.066 402.508ZM128.479 501.139C128.479 505.918 130.332 510.501 133.63 513.88C136.928 517.26 141.402 519.158 146.066 519.158H281.903C286.568 519.158 291.041 517.26 294.339 513.88C297.637 510.501 299.49 505.918 299.49 501.139V421.983C299.49 417.204 297.637 412.62 294.339 409.241C291.041 405.862 286.568 403.964 281.903 403.964H146.066C141.402 403.964 136.928 405.862 133.63 409.241C130.332 412.62 128.479 417.204 128.479 421.983V501.139Z" fill="black"/>
<path d="M165.488 473.147C165.563 473.235 165.658 473.304 165.765 473.347C165.872 473.39 165.987 473.406 166.101 473.394C166.215 473.382 166.324 473.342 166.42 473.278C166.516 473.214 166.596 473.127 166.652 473.025L171.653 463.772H178.183L185.741 477.213C185.808 477.332 185.907 477.429 186.025 477.494C186.144 477.558 186.277 477.588 186.411 477.578C186.544 477.568 186.672 477.52 186.779 477.439C186.887 477.358 186.97 477.247 187.02 477.12L192.201 463.772H210.928L216.608 471.077C216.672 471.158 216.753 471.224 216.844 471.271C216.935 471.318 217.034 471.345 217.136 471.35C217.239 471.354 217.341 471.335 217.436 471.296C217.531 471.257 217.617 471.197 217.687 471.121L224.375 463.791H236.258L242.014 472.723C242.08 472.825 242.168 472.908 242.273 472.966C242.378 473.024 242.494 473.054 242.613 473.054C242.732 473.053 242.849 473.021 242.954 472.963C243.058 472.904 243.147 472.82 243.212 472.718L248.859 463.757H267.425L267.815 464.244C267.881 464.326 267.964 464.391 268.057 464.436C268.151 464.48 268.253 464.503 268.357 464.502H290.526C290.638 464.502 290.749 464.474 290.849 464.42V495.539C290.845 499.732 289.217 503.752 286.322 506.716C283.427 509.68 279.503 511.345 275.41 511.347H152.559C150.531 511.347 148.524 510.939 146.65 510.144C144.777 509.349 143.075 508.184 141.641 506.715C140.207 505.246 139.07 503.502 138.294 501.583C137.519 499.664 137.12 497.606 137.121 495.529V464.488H158.244L165.488 473.147ZM256.982 493.498C256.982 494.234 257.124 494.962 257.399 495.641C257.674 496.32 258.077 496.937 258.585 497.457C259.094 497.976 259.697 498.387 260.361 498.668C261.024 498.948 261.735 499.091 262.453 499.089H268.2C269.647 499.089 271.035 498.5 272.058 497.451C273.082 496.403 273.656 494.981 273.656 493.498C273.656 492.015 273.082 490.593 272.058 489.545C271.035 488.497 269.647 487.907 268.2 487.907H262.453C261.006 487.907 259.618 488.497 258.595 489.545C257.571 490.593 256.996 492.015 256.996 493.498H256.982ZM205.648 493.498C205.648 494.981 206.222 496.403 207.246 497.451C208.269 498.5 209.657 499.089 211.104 499.089H216.865C218.312 499.089 219.7 498.5 220.724 497.451C221.747 496.403 222.322 494.981 222.322 493.498C222.322 492.015 221.747 490.593 220.724 489.545C219.7 488.497 218.312 487.907 216.865 487.907H211.118C209.671 487.907 208.283 488.497 207.26 489.545C206.237 490.593 205.662 492.015 205.662 493.498H205.648ZM154.313 493.498C154.313 494.981 154.888 496.403 155.911 497.451C156.934 498.5 158.322 499.089 159.77 499.089H165.53C166.978 499.089 168.366 498.5 169.389 497.451C170.412 496.403 170.987 494.981 170.987 493.498C170.987 492.015 170.412 490.593 169.389 489.545C168.366 488.497 166.978 487.907 165.53 487.907H159.784C159.066 487.906 158.355 488.049 157.691 488.329C157.028 488.609 156.424 489.02 155.916 489.54C155.408 490.059 155.005 490.676 154.73 491.355C154.455 492.035 154.313 492.763 154.313 493.498Z" fill="white"/>
<path d="M275.501 463.027H268.689L257.381 449.284C257.31 449.196 257.219 449.127 257.117 449.082C257.014 449.038 256.903 449.018 256.792 449.026C256.681 449.034 256.573 449.069 256.478 449.127C256.382 449.185 256.301 449.266 256.241 449.362L247.157 463.757H237.946L232.033 454.563C231.974 454.47 231.895 454.393 231.803 454.336C231.711 454.28 231.607 454.245 231.5 454.236C231.392 454.227 231.285 454.242 231.184 454.282C231.084 454.322 230.994 454.385 230.92 454.465L222.436 463.757H212.768L198.76 445.831C198.683 445.73 198.581 445.652 198.465 445.605C198.349 445.558 198.223 445.543 198.099 445.562C197.976 445.58 197.859 445.632 197.762 445.712C197.664 445.792 197.589 445.897 197.543 446.016L190.651 463.757H179.814L175.441 455.99C175.379 455.877 175.289 455.784 175.18 455.719C175.071 455.654 174.947 455.619 174.821 455.619C174.695 455.619 174.571 455.654 174.462 455.719C174.353 455.784 174.263 455.877 174.2 455.99L170.008 463.748H159.499L159.099 463.261C159.033 463.179 158.95 463.114 158.857 463.069C158.763 463.025 158.661 463.002 158.558 463.002H137.106V427.583C137.106 423.388 138.733 419.364 141.628 416.397C144.523 413.43 148.45 411.762 152.545 411.761H275.41C279.505 411.763 283.431 413.431 286.326 416.398C289.221 419.365 290.847 423.388 290.849 427.583V463.134C290.748 463.082 290.638 463.054 290.526 463.051L275.501 463.027Z" fill="white"/>
<path d="M152.559 410.319H275.41C279.881 410.319 284.168 412.137 287.33 415.375C290.492 418.612 292.271 423.003 292.275 427.583V495.509C292.277 497.78 291.843 500.029 290.996 502.128C290.15 504.226 288.908 506.133 287.342 507.74C285.776 509.346 283.916 510.621 281.868 511.49C279.821 512.36 277.627 512.808 275.41 512.808H152.559C148.086 512.808 143.797 510.987 140.634 507.747C137.471 504.506 135.695 500.112 135.695 495.529V463.757C135.695 463.951 135.77 464.137 135.903 464.274C136.037 464.411 136.218 464.488 136.407 464.488H137.12V495.524C137.119 497.602 137.518 499.66 138.293 501.579C139.068 503.499 140.205 505.244 141.639 506.713C143.073 508.183 144.775 509.348 146.649 510.143C148.523 510.938 150.531 511.347 152.559 511.347H275.41C279.504 511.345 283.43 509.678 286.325 506.712C289.22 503.746 290.847 499.724 290.849 495.529V464.41C290.966 464.349 291.064 464.257 291.133 464.142C291.201 464.028 291.238 463.896 291.238 463.762C291.238 463.628 291.201 463.496 291.133 463.382C291.064 463.268 290.966 463.175 290.849 463.114V427.583C290.847 423.388 289.221 419.365 286.326 416.398C283.431 413.431 279.505 411.763 275.41 411.761H152.559C148.464 411.762 144.537 413.429 141.642 416.397C138.747 419.364 137.12 423.388 137.12 427.583V463.012H136.407C136.218 463.012 136.037 463.089 135.903 463.226C135.77 463.363 135.695 463.549 135.695 463.743V427.583C135.698 423.003 137.477 418.612 140.639 415.375C143.801 412.137 148.089 410.319 152.559 410.319Z" fill="black"/>
<path d="M165.901 471.393L159.513 463.757H170.027L165.901 471.393Z" fill="white"/>
<path d="M174.852 457.84L178.179 463.757H171.653L174.852 457.84Z" fill="white"/>
<path d="M217.207 469.47L212.753 463.757H222.422L217.207 469.47Z" fill="white"/>
<path d="M190.665 463.757L186.24 475.163L179.828 463.757H190.665Z" fill="white"/>
<path d="M242.599 470.984L237.946 463.757H247.157L242.599 470.984Z" fill="white"/>
<path d="M198.427 447.725L210.928 463.757H192.201L198.427 447.725Z" fill="white"/>
<path d="M231.329 456.141L236.234 463.757H224.375L231.329 456.141Z" fill="white"/>
<path d="M256.916 450.983L267.425 463.757H248.854L256.916 450.983Z" fill="white"/>
<path d="M136.407 463.027H158.572C158.675 463.026 158.777 463.049 158.871 463.093C158.965 463.138 159.048 463.203 159.114 463.285L159.513 463.772L165.901 471.413L170.022 463.777L174.215 456.019C174.277 455.906 174.367 455.813 174.476 455.748C174.585 455.683 174.709 455.649 174.835 455.649C174.961 455.649 175.085 455.683 175.194 455.748C175.303 455.813 175.393 455.906 175.455 456.019L179.828 463.786L186.24 475.192L190.68 463.757L197.572 446.016C197.617 445.897 197.692 445.792 197.79 445.712C197.888 445.632 198.004 445.58 198.128 445.561C198.251 445.543 198.378 445.558 198.494 445.605C198.61 445.652 198.711 445.73 198.789 445.831L212.768 463.757L217.207 469.465L222.436 463.752L230.906 454.465C230.979 454.385 231.069 454.322 231.17 454.282C231.27 454.242 231.378 454.227 231.485 454.236C231.593 454.245 231.696 454.28 231.789 454.336C231.881 454.393 231.959 454.47 232.018 454.563L237.946 463.757L242.599 470.984L247.157 463.757L256.241 449.362C256.301 449.266 256.382 449.185 256.478 449.127C256.573 449.069 256.681 449.034 256.792 449.026C256.903 449.018 257.014 449.038 257.117 449.082C257.219 449.127 257.31 449.196 257.381 449.284L268.689 463.027H290.526C290.638 463.029 290.748 463.058 290.849 463.11C290.966 463.17 291.064 463.263 291.133 463.377C291.201 463.491 291.238 463.623 291.238 463.757C291.238 463.891 291.201 464.023 291.133 464.137C291.064 464.252 290.966 464.344 290.849 464.405C290.749 464.459 290.638 464.487 290.526 464.488H268.357C268.253 464.488 268.151 464.466 268.057 464.421C267.964 464.376 267.881 464.311 267.815 464.23L267.425 463.743L256.916 450.969L248.835 463.743L243.188 472.703C243.123 472.805 243.034 472.889 242.93 472.948C242.825 473.006 242.708 473.038 242.589 473.039C242.471 473.039 242.354 473.009 242.249 472.951C242.145 472.893 242.056 472.81 241.991 472.708L236.215 463.743L231.31 456.126L224.356 463.743L217.668 471.072C217.598 471.148 217.512 471.208 217.417 471.247C217.322 471.287 217.219 471.305 217.117 471.301C217.015 471.296 216.915 471.27 216.825 471.223C216.734 471.176 216.653 471.109 216.589 471.028L210.909 463.723L198.408 447.691L192.182 463.723L187.001 477.072C186.951 477.199 186.868 477.309 186.76 477.39C186.653 477.471 186.525 477.519 186.392 477.529C186.258 477.539 186.125 477.51 186.006 477.445C185.888 477.38 185.789 477.283 185.722 477.164L178.164 463.723L174.837 457.806L171.638 463.723L166.638 472.976C166.581 473.078 166.502 473.165 166.406 473.229C166.31 473.293 166.2 473.333 166.086 473.345C165.972 473.357 165.857 473.341 165.751 473.298C165.644 473.255 165.549 473.186 165.473 473.098L158.229 464.439H136.393C136.204 464.439 136.023 464.362 135.889 464.225C135.755 464.088 135.68 463.902 135.68 463.709C135.68 463.515 135.755 463.329 135.889 463.192C136.023 463.055 136.204 462.978 136.393 462.978L136.407 463.027Z" fill="black"/>
<path d="M262.453 487.907H268.2C269.647 487.907 271.035 488.496 272.058 489.545C273.081 490.593 273.656 492.015 273.656 493.498C273.656 494.981 273.081 496.403 272.058 497.451C271.035 498.5 269.647 499.089 268.2 499.089H262.453C261.006 499.089 259.618 498.5 258.595 497.451C257.571 496.403 256.996 494.981 256.996 493.498C256.996 492.015 257.571 490.593 258.595 489.545C259.618 488.496 261.006 487.907 262.453 487.907ZM258.422 493.498C258.422 494.041 258.526 494.578 258.728 495.079C258.93 495.581 259.227 496.036 259.602 496.42C259.976 496.803 260.421 497.108 260.91 497.315C261.399 497.522 261.924 497.629 262.453 497.628H268.2C268.729 497.629 269.254 497.522 269.743 497.315C270.232 497.108 270.677 496.803 271.051 496.42C271.426 496.036 271.723 495.581 271.925 495.079C272.127 494.578 272.231 494.041 272.23 493.498C272.23 492.403 271.806 491.353 271.05 490.578C270.294 489.804 269.269 489.368 268.2 489.368H262.453C261.384 489.368 260.359 489.804 259.603 490.578C258.847 491.353 258.422 492.403 258.422 493.498Z" fill="black"/>
<path d="M211.118 489.368H216.865C217.934 489.368 218.959 489.804 219.715 490.578C220.471 491.352 220.896 492.403 220.896 493.498C220.896 494.041 220.793 494.578 220.59 495.079C220.388 495.581 220.091 496.036 219.717 496.42C219.342 496.803 218.898 497.108 218.408 497.315C217.919 497.522 217.395 497.629 216.865 497.628H211.118C210.589 497.629 210.064 497.522 209.575 497.315C209.086 497.108 208.641 496.803 208.267 496.42C207.892 496.036 207.596 495.581 207.393 495.079C207.191 494.578 207.087 494.041 207.088 493.498C207.088 492.403 207.512 491.352 208.268 490.578C209.024 489.804 210.049 489.368 211.118 489.368Z" fill="white"/>
<path d="M211.118 487.907H216.865C218.312 487.907 219.7 488.496 220.724 489.545C221.747 490.593 222.322 492.015 222.322 493.498C222.322 494.981 221.747 496.403 220.724 497.451C219.7 498.5 218.312 499.089 216.865 499.089H211.118C209.671 499.089 208.283 498.5 207.26 497.451C206.237 496.403 205.662 494.981 205.662 493.498C205.662 492.015 206.237 490.593 207.26 489.545C208.283 488.496 209.671 487.907 211.118 487.907ZM207.088 493.498C207.087 494.041 207.191 494.578 207.393 495.079C207.596 495.581 207.893 496.036 208.267 496.42C208.641 496.803 209.086 497.108 209.575 497.315C210.065 497.522 210.589 497.629 211.118 497.628H216.865C217.395 497.629 217.919 497.522 218.408 497.315C218.898 497.108 219.342 496.803 219.717 496.42C220.091 496.036 220.388 495.581 220.59 495.079C220.793 494.578 220.896 494.041 220.896 493.498C220.896 492.403 220.471 491.353 219.715 490.578C218.959 489.804 217.934 489.368 216.865 489.368H211.118C210.049 489.368 209.024 489.804 208.268 490.578C207.512 491.353 207.088 492.403 207.088 493.498Z" fill="black"/>
<path d="M159.784 489.368H165.545C166.614 489.368 167.639 489.804 168.395 490.578C169.151 491.352 169.575 492.403 169.575 493.498C169.576 494.041 169.472 494.578 169.27 495.079C169.067 495.581 168.771 496.036 168.396 496.42C168.022 496.803 167.577 497.108 167.088 497.315C166.599 497.522 166.074 497.629 165.545 497.628H159.784C159.254 497.629 158.73 497.522 158.241 497.315C157.751 497.108 157.307 496.803 156.932 496.42C156.558 496.036 156.261 495.581 156.059 495.079C155.856 494.578 155.752 494.041 155.753 493.498C155.753 492.956 155.857 492.419 156.06 491.918C156.262 491.417 156.559 490.961 156.934 490.578C157.308 490.195 157.752 489.89 158.241 489.683C158.73 489.475 159.254 489.368 159.784 489.368Z" fill="white"/>
<path d="M165.53 487.907C166.978 487.907 168.366 488.496 169.389 489.545C170.412 490.593 170.987 492.015 170.987 493.498C170.987 494.981 170.412 496.403 169.389 497.451C168.366 498.5 166.978 499.089 165.53 499.089H159.784C158.337 499.089 156.949 498.5 155.925 497.451C154.902 496.403 154.327 494.981 154.327 493.498C154.327 492.015 154.902 490.593 155.925 489.545C156.949 488.496 158.337 487.907 159.784 487.907H165.53ZM155.739 493.498C155.738 494.041 155.842 494.578 156.044 495.079C156.247 495.581 156.544 496.036 156.918 496.42C157.292 496.803 157.737 497.108 158.226 497.315C158.716 497.522 159.24 497.629 159.77 497.628H165.53C166.06 497.629 166.584 497.522 167.074 497.315C167.563 497.108 168.008 496.803 168.382 496.42C168.756 496.036 169.053 495.581 169.256 495.079C169.458 494.578 169.562 494.041 169.561 493.498C169.561 492.403 169.137 491.353 168.381 490.578C167.625 489.804 166.599 489.368 165.53 489.368H159.784C159.255 489.368 158.73 489.475 158.241 489.683C157.752 489.89 157.308 490.195 156.934 490.578C156.559 490.962 156.263 491.417 156.06 491.918C155.857 492.419 155.753 492.956 155.753 493.498H155.739Z" fill="black"/>
</g>
<defs>
<clipPath id="clip0_1209_10069">
<rect width="691.192" height="533" fill="white" transform="matrix(-1 0 0 1 691.192 0)"/>
</clipPath>
</defs>
</svg>
