<svg width="503" height="532" viewBox="0 0 503 532" fill="none" xmlns="http://www.w3.org/2000/svg">
<path d="M381.122 368.379C381.122 367.975 381.122 367.56 381.122 367.161C381.122 360.555 380.835 354.913 380.53 350.769C380.819 350.814 381.112 350.814 381.401 350.769C381.706 354.929 381.988 360.571 381.988 367.167C381.988 367.56 381.988 367.969 381.988 368.368C381.846 368.825 381.73 369.293 381.64 369.769C381.487 369.295 381.314 368.831 381.122 368.379Z" fill="#1A1A1A"/>
<path d="M373.152 417.424C373.356 417.383 373.558 417.332 373.756 417.269C373.793 417.597 373.864 417.919 373.97 418.23C371.191 426.197 367.372 433.74 362.618 440.654L361.577 440.36C366.459 433.306 370.355 425.586 373.152 417.424Z" fill="#1A1A1A"/>
<path d="M380.883 377.607C381.067 377.479 381.241 377.336 381.402 377.178C381.635 376.929 381.832 376.649 381.988 376.346C381.557 386.708 380.043 396.996 377.472 407.038C377.32 406.401 377.124 405.775 376.886 405.165C379.079 396.127 380.417 386.9 380.883 377.607Z" fill="#1A1A1A"/>
<path d="M409.513 402.769L409.69 402.654C409.512 403.156 409.442 403.691 409.486 404.223C409.512 404.459 409.562 404.692 409.636 404.917C404.891 414.273 399.155 423.073 392.531 431.159C391.703 431.695 391.048 432.467 390.648 433.379C386.539 438.123 382.051 442.512 377.23 446.5C376.876 446.314 376.527 446.134 376.156 445.953C390.787 434.03 401.569 418.645 409.513 402.769Z" fill="#1A1A1A"/>
<path d="M412.34 398.825C412.446 398.29 412.518 397.749 412.556 397.205C416.043 389.375 419.034 381.323 421.512 373.1C422.523 369.772 423.424 366.516 424.235 363.378C425.182 362.034 425.709 360.427 425.747 358.77C425.776 358.205 425.776 357.639 425.747 357.074C427.406 349.81 428.56 343.275 429.345 337.933C429.513 336.791 429.666 335.711 429.803 334.692C429.941 334.751 430.082 334.801 430.225 334.843C430.423 334.895 430.626 334.927 430.83 334.941C429.663 343.638 428.036 352.263 425.958 360.78C425.921 360.871 425.879 360.958 425.842 361.055C425.614 361.652 425.474 362.28 425.426 362.918C424.567 366.316 423.598 369.832 422.502 373.434C419.769 382.515 416.409 391.385 412.446 399.975C412.246 400.137 412.056 400.299 411.877 400.461C412.076 399.93 412.231 399.383 412.34 398.825Z" fill="#1A1A1A"/>
<path d="M430.206 334.434C428.605 333.766 427.49 331.851 426.907 329.174C426.278 326.26 426.283 322.426 427.081 318.354C427.879 314.283 429.296 310.738 430.968 308.298C432.641 305.857 434.549 304.5 436.416 304.763C438.283 305.026 439.726 307.041 440.463 310.023C441.199 313.005 441.255 316.934 440.463 321.1C439.67 325.266 438.13 328.879 436.329 331.336C434.723 333.534 432.892 334.791 431.214 334.686C431.016 334.673 430.819 334.641 430.626 334.591C430.483 334.547 430.343 334.495 430.206 334.434Z" fill="#135589"/>
<path d="M426.423 358.682C426.382 360.312 425.809 361.893 424.782 363.215C424.34 363.726 423.768 364.126 423.118 364.379C421.162 365.112 418.778 364.341 416.473 362.529C413.77 360.255 411.661 357.438 410.303 354.292C408.668 350.732 407.953 346.959 408.331 343.946C408.456 342.629 408.906 341.356 409.646 340.226C410.223 339.349 411.143 338.713 412.213 338.451C414.278 338.005 416.462 339.02 418.549 340.779C421.054 343.032 423.023 345.747 424.33 348.75C425.556 351.36 426.271 354.153 426.44 356.997C426.467 357.559 426.461 358.121 426.423 358.682Z" fill="#135589"/>
<path d="M425.557 361.064C425.732 360.646 425.933 360.245 426.135 359.794C426.266 359.53 426.402 359.244 426.549 359.013L426.773 358.639L426.985 358.233C427.274 357.683 427.602 357.216 427.912 356.65C428.065 356.369 428.245 356.155 428.408 355.852C428.572 355.55 428.757 355.303 428.954 355.017C429.822 353.686 430.759 352.401 431.761 351.169C432.965 349.64 434.288 348.212 435.719 346.898C436.085 346.568 436.45 346.26 436.81 345.963C437.17 345.667 437.568 345.375 437.949 345.111C438.671 344.603 439.431 344.153 440.223 343.765C441.508 343.09 442.934 342.736 444.383 342.731C444.912 342.723 445.438 342.825 445.926 343.032C446.414 343.24 446.854 343.547 447.218 343.935C447.884 344.751 448.267 345.765 448.308 346.821C448.376 348.087 448.253 349.357 447.943 350.586C447.772 351.316 447.56 352.035 447.31 352.741C447.179 353.12 447.032 353.5 446.874 353.879C446.716 354.258 446.531 354.682 446.329 355.088C445.444 356.969 444.347 358.74 443.058 360.365C441.547 362.27 439.741 363.917 437.709 365.241C437.164 365.555 436.668 365.846 436.161 366.11C435.655 366.367 435.132 366.589 434.596 366.775C433.637 367.142 432.635 367.386 431.614 367.501C431.38 367.534 431.156 367.561 430.933 367.572C430.709 367.583 430.48 367.572 430.268 367.572C429.859 367.561 429.451 367.526 429.046 367.468C428.355 367.378 427.687 367.162 427.073 366.83C426.588 366.604 426.159 366.273 425.818 365.859C425.476 365.445 425.231 364.96 425.099 364.439C425.014 364.055 424.982 363.661 425.006 363.268C425.056 362.618 425.201 361.979 425.437 361.371C425.475 361.245 425.519 361.157 425.557 361.064Z" fill="#135589"/>
<path d="M409.888 402.89C410.88 402.166 411.625 401.137 412.017 399.95C412.195 399.787 412.384 399.625 412.583 399.463C412.877 399.221 413.187 398.982 413.512 398.748C414.872 397.796 416.304 396.959 417.796 396.246C421.242 394.601 424.844 393.331 428.545 392.456C430.147 392.073 431.776 391.827 433.417 391.72C436.385 391.557 438.781 392.099 439.819 393.799C440.858 395.499 440.223 398.044 438.068 400.719C436.821 402.22 435.373 403.529 433.768 404.606C429.912 407.214 425.484 408.782 420.89 409.165C418.987 409.322 417.073 409.197 415.205 408.792C412.306 408.131 410.392 406.777 409.852 405.121C409.779 404.897 409.73 404.667 409.705 404.433C409.658 403.911 409.721 403.385 409.888 402.89Z" fill="#135589"/>
<path d="M392.094 431.134C393.063 430.468 394.112 429.937 395.214 429.554C396.776 429.004 398.379 428.586 400.007 428.306C401.88 427.962 403.772 427.734 405.673 427.622C407.572 427.485 409.478 427.463 411.381 427.557C413.028 427.624 414.668 427.829 416.284 428.17C419.198 428.827 421.381 430.005 421.95 431.926C422.518 433.847 421.25 436.143 418.477 438.145C416.889 439.256 415.155 440.126 413.327 440.728C408.927 442.198 404.241 442.505 399.696 441.624C397.804 441.268 395.972 440.632 394.257 439.735C391.263 438.107 389.732 435.974 390.048 434.021C390.09 433.787 390.154 433.558 390.237 433.337C390.632 432.43 391.279 431.663 392.094 431.134Z" fill="#135589"/>
<path d="M411.196 400.441C410.818 401.653 410.102 402.703 409.148 403.443L408.982 403.559C408.675 403.756 408.344 403.903 407.998 403.995C406.193 404.476 404.251 403.476 402.506 401.635C398.623 397.094 396.496 391.082 396.57 384.859C396.721 382.205 397.538 380.033 399.172 379.055C400.806 378.076 402.95 378.502 405.078 380.221C407.206 381.94 409.269 384.848 410.58 388.551C411.569 391.258 412.001 394.17 411.846 397.08C411.809 397.637 411.74 398.191 411.639 398.739C411.536 399.319 411.388 399.889 411.196 400.441Z" fill="#135589"/>
<path d="M380.775 350.708C379.339 350.551 377.838 349.787 376.419 348.583C374.144 346.431 372.367 343.874 371.197 341.067C370.027 338.26 369.488 335.263 369.614 332.257C369.866 329.727 370.896 327.753 372.737 326.984C374.578 326.215 376.879 326.817 379.093 328.502C381.307 330.187 383.422 332.885 384.824 336.24C386.227 339.595 386.633 342.93 386.194 345.531C385.756 348.132 384.485 350.015 382.567 350.592C381.988 350.758 381.377 350.808 380.775 350.739V350.708Z" fill="#135589"/>
<path d="M380.639 377.684C379.294 378.691 377.31 378.773 375.057 378.114C369.152 376.02 364.189 371.632 361.145 365.81C359.988 363.294 359.729 360.908 360.784 359.274C361.84 357.64 364.032 357.019 366.746 357.509C369.461 358 372.688 359.585 375.631 362.188C377.78 364.049 379.566 366.345 380.887 368.947C381.112 369.402 381.316 369.87 381.496 370.347C381.456 370.516 381.41 370.685 381.38 370.854C380.998 372.502 381.216 374.245 381.988 375.728C381.914 375.961 381.822 376.187 381.714 376.404C381.561 376.719 381.369 377.011 381.141 377.27C380.984 377.422 380.816 377.56 380.639 377.684Z" fill="#135589"/>
<path d="M381.455 370.709C381.487 370.54 381.536 370.372 381.579 370.204C381.691 369.725 381.835 369.253 382.012 368.794C382.919 366.538 384.326 364.518 386.126 362.888C388.705 360.507 391.711 359.14 394.279 358.863C396.847 358.587 398.977 359.346 400.085 360.995C401.193 362.644 401.166 364.856 400.35 367.069C399.349 369.521 397.822 371.723 395.879 373.517C393.936 375.312 391.623 376.657 389.105 377.455C386.84 378.063 384.65 377.933 383.093 376.685C382.701 376.371 382.366 375.992 382.104 375.563C381.281 374.086 381.049 372.35 381.455 370.709Z" fill="#135589"/>
<path d="M375.059 413.023C374.277 414.221 373.908 415.631 374.007 417.048C373.807 417.107 373.603 417.157 373.397 417.196C371.825 417.423 370.22 417.119 368.849 416.336C366.674 415.082 364.864 413.308 363.591 411.182C362.318 409.055 361.625 406.647 361.577 404.186C361.635 402.005 362.423 400.091 364.027 399.067C365.631 398.043 367.75 398.007 369.89 398.949C372.336 400.128 374.353 402.005 375.674 404.33C376.081 405.01 376.432 405.721 376.726 406.455C376.968 407.051 377.166 407.664 377.32 408.288C377.465 408.87 377.564 409.462 377.615 410.059C376.604 410.906 375.741 411.907 375.059 413.023Z" fill="#135589"/>
<path d="M375.073 412.804C375.83 411.619 376.788 410.559 377.909 409.664C379.278 408.555 380.817 407.645 382.474 406.967C385.919 405.575 389.364 405.278 392.051 405.855C394.739 406.433 396.599 407.846 397.133 409.762C397.667 411.677 396.857 413.732 395.296 415.556C393.445 417.534 391.154 419.104 388.585 420.157C386.016 421.21 383.232 421.718 380.43 421.647C377.944 421.48 375.796 420.644 374.688 418.95C374.494 418.654 374.339 418.337 374.229 418.005C374.113 417.691 374.034 417.365 373.993 417.034C373.867 415.553 374.245 414.071 375.073 412.804Z" fill="#135589"/>
<path d="M398.785 119.7C400.083 118.115 400.978 116.246 401.393 114.25C401.643 112.866 402.07 111.518 402.666 110.24C403.001 109.459 403.503 108.757 404.137 108.183C404.293 108.033 404.495 107.938 404.711 107.911C404.729 107.909 404.746 107.911 404.763 107.917C404.78 107.922 404.796 107.93 404.81 107.942C404.884 107.997 404.943 108.07 404.982 108.153C405.201 108.648 405.299 109.187 405.269 109.726C405.269 109.947 405.269 110.189 405.232 110.446C405.144 111.563 404.998 112.675 404.794 113.777C404.633 114.615 404.481 115.212 404.372 115.685C404.298 115.971 404.256 116.264 404.247 116.559C404.241 116.789 404.295 117.018 404.403 117.222C404.514 117.437 404.686 117.616 404.899 117.736C405.016 117.807 405.14 117.868 405.269 117.916C405.395 117.96 405.527 117.983 405.66 117.983C405.894 117.98 406.122 117.916 406.323 117.798C406.501 117.699 406.666 117.578 406.813 117.438C407.155 117.104 407.462 116.737 407.731 116.343C408.507 115.203 409.181 113.999 409.745 112.744C411.373 109.216 412.534 105.495 413.198 101.674C413.384 100.15 413.972 98.6996 414.903 97.4685C415.487 96.7337 416.287 96.1949 417.193 95.9261C417.669 95.7956 418.16 95.7299 418.654 95.7307C418.956 95.7305 419.258 95.7528 419.556 95.7976C419.593 96.0598 419.635 96.4043 419.682 96.8259C419.828 98.2214 419.899 99.6235 419.895 101.026C419.908 104.919 419.367 108.794 418.289 112.538C416.933 117.316 414.471 121.718 411.096 125.397C407.314 129.469 404.314 132.379 401.988 134.461C401.795 133.618 401.545 132.77 401.263 131.916C400.536 129.833 399.664 127.8 398.655 125.834C397.919 124.379 397.189 123.068 396.568 122.009C397.372 121.302 398.114 120.53 398.785 119.7Z" fill="white"/>
<path d="M400.352 136.203C402.869 133.985 406.1 130.82 410.182 126.43C413.807 122.476 416.455 117.749 417.918 112.621C419.085 108.571 419.668 104.38 419.652 100.17C419.656 98.6572 419.579 97.1454 419.421 95.6408C419.37 95.164 419.325 94.7926 419.286 94.5321C418.963 94.4838 418.638 94.4597 418.312 94.46C417.779 94.4591 417.248 94.53 416.735 94.6707C415.757 94.9605 414.893 95.5414 414.264 96.3337C413.263 97.6643 412.635 99.2296 412.44 100.874C411.723 104.993 410.47 109.005 408.712 112.809C408.104 114.162 407.377 115.461 406.539 116.69C406.249 117.114 405.917 117.51 405.548 117.87C405.39 118.021 405.212 118.152 405.019 118.258C404.803 118.386 404.556 118.455 404.304 118.458C404.16 118.458 404.017 118.434 403.882 118.386C403.743 118.334 403.609 118.269 403.482 118.192C403.253 118.062 403.067 117.87 402.947 117.638C402.831 117.417 402.773 117.171 402.778 116.922C402.789 116.604 402.834 116.289 402.914 115.98C403.032 115.47 403.195 114.827 403.37 113.923C403.59 112.735 403.748 111.536 403.842 110.331C403.871 110.054 403.882 109.777 403.882 109.555C403.915 108.974 403.809 108.393 403.572 107.859C403.53 107.769 403.466 107.691 403.386 107.631C403.372 107.619 403.355 107.61 403.336 107.604C403.318 107.599 403.299 107.597 403.279 107.598C403.046 107.627 402.829 107.73 402.66 107.892C401.976 108.511 401.435 109.267 401.073 110.109C400.43 111.487 399.968 112.94 399.699 114.433C399.25 116.585 398.285 118.6 396.884 120.31C396.172 121.203 395.384 122.035 394.53 122.799C394.204 122.244 393.906 121.751 393.652 121.335C394.382 120.649 395.055 119.907 395.668 119.118C396.85 117.649 397.669 115.93 398.06 114.095C398.401 112.022 399.131 110.03 400.211 108.219C400.585 107.603 401.063 107.053 401.624 106.595C402.094 106.19 402.69 105.957 403.313 105.935C403.686 105.935 404.05 106.043 404.36 106.246C404.822 106.575 405.16 107.044 405.323 107.582C405.523 108.22 405.618 108.887 405.605 109.555C405.605 109.843 405.605 110.148 405.56 110.47C405.441 112.024 405.215 113.569 404.884 115.093C404.771 115.614 404.67 116.03 404.597 116.34C404.597 116.407 404.569 116.462 404.558 116.523L404.642 116.44C405.22 115.744 405.726 114.991 406.151 114.195C408.42 109.93 409.992 105.339 410.807 100.591C411.009 99.2209 411.435 97.8918 412.068 96.6553C412.739 95.3174 413.823 94.2229 415.164 93.5287C416.152 93.0449 417.242 92.798 418.345 92.808C419.009 92.8036 419.67 92.8875 420.31 93.0575C420.454 93.106 420.581 93.1911 420.68 93.3041C420.779 93.4171 420.846 93.5539 420.873 93.7005C421.213 95.8516 421.373 98.0264 421.352 100.203C421.368 104.555 420.763 108.888 419.556 113.075C418.021 118.452 415.242 123.406 411.437 127.549C408.059 131.251 404.489 134.778 400.74 138.115C400.622 137.461 400.504 136.818 400.352 136.203Z" fill="black"/>
<path d="M354.974 522.6C353.201 517.824 349.769 513.863 345.318 511.455C341.761 509.509 337.121 508.204 331.097 508.025L323.657 507.483L319.87 507.201L319.296 504.167C322.117 504.048 323.925 503.95 323.93 503.95C324.041 503.943 324.15 503.913 324.249 503.861C324.348 503.81 324.435 503.739 324.506 503.652C324.576 503.565 324.628 503.464 324.658 503.356C324.689 503.248 324.696 503.135 324.681 503.023V502.964C324.681 502.915 324.681 502.845 324.681 502.747C324.681 502.552 324.628 502.249 324.585 501.826C324.51 500.975 324.403 499.659 324.301 497.708C324.091 493.845 323.882 487.613 323.882 478.142C323.882 468.795 324.086 456.294 324.698 439.817C336.77 436.897 349.371 437.044 361.373 440.245L362.446 440.543C366.896 441.806 371.219 443.488 375.358 445.566C375.712 445.739 376.061 445.918 376.431 446.108C391.26 453.822 403.11 466.321 410.098 481.62C417.087 496.918 418.812 514.136 415 530.539H356.583C356.478 527.822 355.934 525.14 354.974 522.6Z" fill="#135589"/>
<path d="M215.326 495.287C215.321 495.441 215.36 495.593 215.439 495.725C215.518 495.857 215.633 495.963 215.77 496.03C216.945 496.588 218.168 497.034 219.425 497.362L217.309 504.961C205.093 477.579 176.762 458.389 143.751 458.389C142.73 458.389 141.71 458.389 140.694 458.448V404.25C153.04 399.879 166.261 398.654 179.187 400.684C192.113 402.713 204.344 407.936 214.797 415.887C215.157 436.403 215.585 456.33 215.585 473.915C215.606 481.526 215.527 488.698 215.326 495.287Z" fill="#135589"/>
<path d="M244.918 517.434C245.448 512.254 245.978 506.236 246.508 500.391C247.775 500.391 248.554 500.391 248.628 500.391C248.822 500.392 249.01 500.32 249.156 500.188C249.302 500.057 249.397 499.876 249.423 499.678C249.423 499.678 249.476 499.231 249.582 498.382C249.688 497.532 249.842 496.279 250.043 494.672C250.441 491.453 251.018 486.802 251.739 481.056C253.181 469.618 255.185 453.823 257.443 436.622C257.845 433.583 258.248 430.495 258.662 427.363C263.607 424.683 269.003 422.993 274.563 422.385C278.162 451.595 282.943 479.574 289.298 503.218C289.338 503.37 289.419 503.506 289.533 503.611C289.647 503.715 289.788 503.783 289.939 503.806C291.66 504.06 293.392 504.22 295.129 504.286C295.616 508.921 296.104 513.452 296.549 517.45C297.159 522.897 297.689 527.385 298.038 529.787C298.081 530.07 298.118 530.332 298.155 530.538H243.481C243.587 529.825 243.714 528.823 243.858 527.57C244.154 525.081 244.52 521.519 244.918 517.434Z" fill="#135589"/>
<path d="M61.9638 530.538C62.2461 526.6 62.8309 522.69 63.7124 518.846H117.456L121.012 530.538H61.9638Z" fill="#EC744A"/>
<path d="M217.238 505.721L216.785 507.365L214.504 507.559L206.713 508.22C200.728 508.392 196.119 509.692 192.591 511.622C189.482 513.297 186.854 515.751 184.96 518.748C182.78 522.3 181.558 526.364 181.416 530.538H131.946L135.512 519.07H139.242C139.454 519.07 139.657 518.985 139.807 518.834C139.956 518.682 140.04 518.477 140.041 518.264V458.982C141.064 458.945 142.093 458.923 143.121 458.923C176.38 458.923 204.928 478.205 217.238 505.721Z" fill="#EC744A"/>
<path d="M122.882 529.808L119.554 518.846H133.404L130.081 529.808H122.882Z" fill="black"/>
<path d="M121.01 530.538L117.367 518.846H119.076L122.458 529.689H129.771L133.147 518.846H134.862L131.219 530.538H121.01Z" fill="black"/>
<path d="M30.3011 529.808L26.9725 518.846H40.8232L37.4945 529.808H30.3011Z" fill="black"/>
<path d="M26.5671 518.846L30.0906 529.689H37.705L41.2285 518.846H43.0101L39.2143 530.538H28.5813L24.7855 518.846H26.5671Z" fill="black"/>
<path d="M299.267 527.341C298.965 524.98 298.582 521.71 298.155 517.92C307.697 517.804 317.055 515.033 324.442 508.615L331.618 509.17H331.656C337.526 509.336 341.916 510.627 345.269 512.495C348.179 514.084 350.638 516.419 352.408 519.272C354.448 522.669 355.598 526.55 355.745 530.538H299.721C299.721 530.472 299.721 530.405 299.683 530.333C299.575 529.63 299.435 528.615 299.267 527.341Z" fill="black"/>
<path d="M296.697 517.329C296.721 517.53 296.815 517.715 296.962 517.849C297.109 517.984 297.299 518.059 297.496 518.06H297.769C307.57 518.06 317.227 515.273 324.76 508.6C324.882 508.494 324.972 508.353 325.015 508.196C325.059 508.038 325.056 507.87 325.005 507.714C324.955 507.558 324.86 507.422 324.733 507.322C324.606 507.222 324.453 507.163 324.293 507.154L331.73 507.704C337.751 507.879 342.389 509.21 345.943 511.183C350.393 513.626 353.823 517.645 355.594 522.491C356.553 525.064 357.097 527.78 357.203 530.533H355.594C355.448 526.577 354.307 522.727 352.281 519.357C350.521 516.538 348.082 514.232 345.198 512.662C341.89 510.826 337.51 509.545 331.682 509.364H331.644L324.518 508.814C317.184 515.18 307.897 517.928 298.418 518.044C298.842 521.798 299.222 525.041 299.523 527.389C299.689 528.653 299.828 529.659 299.935 530.335C299.935 530.406 299.962 530.472 299.973 530.538H298.365C298.327 530.308 298.289 530.066 298.247 529.78C297.85 527.378 297.314 522.87 296.697 517.329Z" fill="black"/>
<path d="M318.492 509.061L320.754 509.246C314.26 514.843 306.229 517.316 297.963 517.385C297.565 513.425 297.131 509.009 296.697 504.49C298.515 504.559 300.48 504.594 302.497 504.594C307.648 504.594 313.106 504.404 317.098 504.231L317.798 508.358C317.828 508.546 317.912 508.717 318.038 508.844C318.164 508.971 318.323 509.048 318.492 509.061Z" fill="white"/>
<path d="M325.816 508.065C325.866 508.216 325.87 508.378 325.826 508.531C325.782 508.684 325.692 508.821 325.568 508.925C317.855 515.408 307.905 518.115 297.834 518.115H297.537C297.334 518.114 297.139 518.041 296.988 517.911C296.837 517.78 296.74 517.6 296.716 517.405C296.253 513.485 295.746 509.042 295.239 504.498H295.707L296.908 504.541C297.377 508.727 297.845 512.818 298.275 516.487C307.194 516.407 315.86 514.132 322.868 508.946L320.428 508.775C320.246 508.763 320.074 508.692 319.938 508.574C319.802 508.456 319.711 508.298 319.678 508.124L318.924 504.3L320.576 504.231L321.166 507.221L325.056 507.499C325.227 507.505 325.393 507.563 325.529 507.664C325.665 507.766 325.766 507.906 325.816 508.065Z" fill="black"/>
<path d="M228.091 513.852C223.902 512.799 219.969 510.999 216.509 508.553L217.469 508.48C217.638 508.467 217.799 508.406 217.929 508.305C218.059 508.204 218.153 508.067 218.197 507.914L221.034 498.385C222.056 498.603 223.122 498.8 224.232 498.976C227.636 499.495 231.373 499.869 234.865 500.113C238.458 500.357 241.784 500.476 244.21 500.539C243.655 505.797 243.133 511.195 242.628 515.923C237.712 515.765 232.834 515.07 228.091 513.852Z" fill="white"/>
<path d="M244.173 517.385C244.183 517.275 244.172 517.163 244.14 517.058C244.108 516.953 244.057 516.856 243.988 516.774C243.921 516.692 243.839 516.625 243.748 516.578C243.656 516.531 243.556 516.505 243.455 516.5L242.752 516.468C243.206 511.584 243.699 506.008 244.173 500.577L245.668 500.609C245.17 506.362 244.671 512.286 244.173 517.385Z" fill="black"/>
<path d="M218.805 507.996C218.762 508.144 218.67 508.277 218.542 508.375C218.415 508.473 218.257 508.533 218.091 508.545L217.149 508.615C216.642 508.248 216.146 507.865 215.672 507.462C215.589 507.391 215.491 507.336 215.384 507.303C215.277 507.269 215.163 507.256 215.051 507.265L217.383 507.084L217.846 505.543L220.026 498.385C220.533 498.511 221.067 498.631 221.612 498.747L218.805 507.996Z" fill="black"/>
<path d="M194.142 512.574C197.458 510.733 201.856 509.448 207.713 509.266H207.762L215.298 508.615C218.975 511.979 223.513 514.212 228.352 515.64C233.05 516.967 237.882 517.726 242.752 517.901C242.467 520.817 242.214 523.415 241.966 525.576C241.713 527.853 241.503 529.59 241.353 530.538H183.704C183.812 527.982 184.319 525.459 185.206 523.067C186.837 518.571 190.015 514.84 194.142 512.574Z" fill="black"/>
<path d="M193.442 511.289C196.984 509.327 201.614 508.01 207.623 507.829L215.447 507.157C215.558 507.147 215.669 507.161 215.774 507.197C215.879 507.234 215.976 507.293 216.057 507.37C216.523 507.807 217.01 508.223 217.507 508.622C220.842 511.2 224.632 513.096 228.671 514.208C233.241 515.492 237.943 516.226 242.681 516.394L243.436 516.427C243.544 516.431 243.651 516.458 243.75 516.506C243.848 516.554 243.936 516.622 244.008 516.705C244.082 516.789 244.137 516.888 244.171 516.996C244.205 517.103 244.217 517.216 244.206 517.328C243.805 521.427 243.436 524.98 243.136 527.56C242.991 528.817 242.863 529.822 242.756 530.538H241.15C241.3 529.609 241.509 527.888 241.761 525.619C241.991 523.499 242.258 520.903 242.542 518.012C237.708 517.84 232.911 517.092 228.248 515.782C223.432 514.366 218.926 512.152 215.271 508.819L207.778 509.464H207.73C201.908 509.627 197.536 510.901 194.239 512.743C190.135 514.983 186.972 518.675 185.345 523.127C184.463 525.498 183.958 527.999 183.852 530.533H182.246C182.39 526.287 183.616 522.154 185.805 518.542C187.7 515.495 190.329 512.998 193.442 511.289Z" fill="black"/>
<path d="M274.19 325.101C283.401 290.183 285.415 256.509 285.415 233.73C285.415 224.412 285.076 216.923 284.755 211.923L287.63 211.955C286.719 229.943 286.141 247.899 286.141 264.566C286.141 273.284 286.299 281.637 286.654 289.448C286.658 289.572 286.693 289.694 286.755 289.803C286.816 289.912 286.903 290.006 287.008 290.075C295.045 295.592 304.615 298.54 314.417 298.519C317.499 298.516 320.574 298.241 323.606 297.699C325.309 323.401 326.586 351.018 326.586 376.146C326.586 386.822 326.356 397.068 325.832 406.489C323.961 440.184 323.437 462.753 323.437 477.474C323.437 492.366 323.983 499.227 324.201 501.464L323.11 501.513C321.865 501.572 320.097 501.652 318.008 501.727C313.828 501.883 308.355 502.039 303.187 502.039C300.601 502.039 298.096 501.996 295.87 501.904C293.9 501.819 292.148 501.684 290.773 501.502C279.085 459.626 272.586 403.967 268.996 352.198C269.721 347.842 270.414 343.808 271.069 340.187C272.253 333.626 273.317 328.406 274.19 325.101Z" fill="white"/>
<path d="M324.657 497.41C324.758 499.325 324.865 500.637 324.94 501.498C324.982 501.918 325.014 502.219 325.036 502.412C325.036 502.509 325.036 502.579 325.036 502.628V502.687C325.051 502.797 325.043 502.91 325.013 503.017C324.983 503.124 324.931 503.224 324.861 503.311C324.791 503.397 324.704 503.468 324.605 503.519C324.507 503.57 324.399 503.6 324.289 503.607C324.289 503.607 322.485 503.703 319.678 503.822L318.077 503.892C313.904 504.053 308.199 504.231 302.815 504.231C300.68 504.231 298.652 504.198 296.753 504.134L295.589 504.091H295.136C293.387 504.026 291.643 503.868 289.911 503.617C289.759 503.594 289.617 503.527 289.502 503.424C289.388 503.321 289.305 503.186 289.266 503.036C282.862 479.668 278.059 452.05 274.43 423.2C271.794 402.22 269.788 380.557 268.267 359.421C268.64 357 269.014 354.644 269.377 352.385C272.888 404.297 279.244 460.108 290.674 502.1C292.019 502.283 293.732 502.418 295.659 502.504C297.836 502.595 300.285 502.638 302.815 502.638C307.868 502.638 313.221 502.482 317.309 502.326C319.352 502.251 321.081 502.17 322.298 502.111L323.365 502.063C323.141 499.82 322.618 492.918 322.618 478.006C322.618 463.245 323.152 440.613 324.961 406.825C325.495 397.357 325.697 387.104 325.697 376.399C325.697 351.201 324.449 323.508 322.784 297.735C323.317 297.638 323.851 297.531 324.385 297.423C326.06 323.277 327.314 351.083 327.314 376.399C327.314 387.125 327.09 397.411 326.573 406.911C325.9 419.402 325.404 430.36 325.046 439.957C324.438 456.316 324.235 468.726 324.235 478.006C324.241 487.388 324.449 493.574 324.657 497.41Z" fill="black"/>
<path d="M282.973 212.61C283.271 217.584 283.575 224.773 283.575 233.628C283.575 256.403 281.577 290.108 272.46 324.998C271.569 328.404 270.505 333.664 269.316 340.293C268.127 346.922 266.818 354.903 265.444 363.725C262.696 381.375 259.693 402.383 256.908 422.544C251.787 459.606 247.41 493.823 246.737 499.115C245.51 499.115 242.806 499.061 239.439 498.905C234.39 498.711 229.357 498.229 224.365 497.461C221.782 497.089 219.251 496.422 216.822 495.472C217.018 488.957 217.094 481.902 217.094 474.454C217.094 443.767 215.78 406.096 215.78 370.478C215.78 354.531 216.04 338.999 216.806 324.696C217.327 314.92 217.963 305.546 218.712 296.575C223.825 297.329 228.986 297.711 234.155 297.717C244.39 297.771 254.555 296.053 264.195 292.641C264.339 292.591 264.465 292.503 264.561 292.386C264.657 292.269 264.718 292.127 264.738 291.978C265.015 289.741 265.547 283.716 266.199 274.996C266.85 266.276 267.616 254.883 268.344 241.954C268.887 232.388 269.43 221.976 269.859 211.192C274.04 211.435 278.471 211.591 282.891 211.672C282.935 211.974 282.956 212.286 282.973 212.61Z" fill="white"/>
<path d="M219.528 296.68C218.815 305.623 218.189 314.982 217.651 324.757C216.896 339.037 216.64 354.544 216.64 370.466C216.64 406.027 217.934 443.644 217.934 474.276C217.934 481.739 217.859 488.804 217.667 495.261C220.059 496.209 222.552 496.875 225.097 497.246C230.016 498.013 234.974 498.495 239.947 498.688C243.264 498.844 245.928 498.887 247.137 498.898C247.801 493.614 252.112 459.452 257.157 422.449C259.901 402.32 262.86 381.346 265.566 363.724C266.92 354.916 268.241 346.941 269.381 340.329C270.52 333.716 271.601 328.459 272.478 325.058C281.454 290.25 283.428 256.599 283.428 233.844C283.428 225.025 283.129 217.847 282.835 212.859C282.835 212.536 282.797 212.224 282.781 211.923L284.386 211.95C284.702 216.965 285.033 224.476 285.033 233.823C285.033 256.653 283.059 290.428 274.029 325.451C273.173 328.765 272.13 334.001 270.964 340.598C270.322 344.23 269.643 348.276 268.931 352.645C268.567 354.905 268.193 357.262 267.819 359.683C264.684 379.769 261.126 404.951 257.965 428.432C257.547 431.51 257.141 434.561 256.734 437.58C254.455 454.593 252.455 470.16 250.978 481.475C250.251 487.136 249.668 491.731 249.266 494.927C249.063 496.541 248.908 497.752 248.801 498.591C248.694 499.431 248.64 499.867 248.64 499.872C248.614 500.068 248.519 500.247 248.371 500.376C248.223 500.506 248.034 500.577 247.838 500.577C247.747 500.577 246.961 500.577 245.698 500.577L244.093 500.545C241.756 500.48 238.551 500.356 235.09 500.103C231.725 499.851 228.136 499.479 224.846 498.925C223.776 498.742 222.749 498.538 221.764 498.312C221.229 498.188 220.694 498.059 220.208 497.924C218.937 497.594 217.699 497.146 216.511 496.584C216.372 496.517 216.256 496.41 216.176 496.277C216.097 496.145 216.057 495.992 216.062 495.837C216.265 489.207 216.345 481.992 216.345 474.314C216.345 456.622 215.912 436.573 215.548 415.933C215.281 400.867 215.051 385.516 215.051 370.504C215.051 354.566 215.308 339.032 216.062 324.708C216.579 314.89 217.21 305.478 217.956 296.47L219.528 296.68Z" fill="black"/>
<path d="M341.574 155.657C341.587 155.813 341.645 155.961 341.741 156.085C341.837 156.208 341.966 156.302 342.114 156.355C342.257 156.411 342.414 156.425 342.565 156.395C342.716 156.366 342.855 156.294 342.967 156.188C365.513 134.907 388.94 122.919 393.065 120.891L393.378 121.395C393.815 122.098 394.414 123.101 395.084 124.309C396.667 127.124 397.997 130.072 399.058 133.12C399.72 134.964 400.109 136.895 400.213 138.851C387.185 157.68 375.253 170.484 364.509 178.56C353.765 186.636 344.166 190 335.867 190C335.441 190 335.014 190 334.588 189.973C334.388 175.442 333.988 161.115 333.303 148.333C333.291 148.121 333.197 147.923 333.039 147.781C332.881 147.64 332.673 147.566 332.46 147.576L330.959 110.346C335.991 121.314 340.278 136.13 341.574 155.657Z" fill="white"/>
<path d="M317.953 86.8739L317.79 86.6685L317.637 86.4683C316.732 85.2937 315.827 84.2401 314.922 83.3077C317.32 85.7424 319.516 88.4337 321.483 91.3462C319.582 88.7124 318.107 87.0425 317.953 86.8739Z" fill="black"/>
<path d="M334.65 189.795C335.075 189.795 335.5 189.822 335.925 189.822C344.194 189.822 353.721 186.457 364.465 178.302C375.208 170.147 387.06 157.317 400.041 138.391C399.934 136.435 399.547 134.504 398.89 132.658C397.822 129.602 396.489 126.646 394.903 123.824C394.236 122.611 393.639 121.602 393.203 120.896L392.891 120.389C388.781 122.427 365.454 134.476 342.972 155.866C342.861 155.972 342.722 156.044 342.572 156.073C342.421 156.103 342.265 156.089 342.122 156.033C341.975 155.98 341.846 155.886 341.751 155.761C341.656 155.637 341.598 155.488 341.584 155.332C340.293 135.711 336.022 120.815 331.008 109.791L330.959 108.502C331.04 108.498 331.119 108.483 331.196 108.459C331.296 108.423 331.388 108.368 331.467 108.297C331.546 108.225 331.61 108.139 331.655 108.043C331.701 107.947 331.727 107.842 331.732 107.736C331.737 107.63 331.722 107.523 331.686 107.423C336.974 118.512 341.574 133.564 343.085 153.547C367.682 130.501 392.784 118.636 392.843 118.587C393.018 118.504 393.218 118.488 393.404 118.54C393.591 118.593 393.753 118.711 393.86 118.873C393.86 118.873 394.209 119.412 394.753 120.302C394.995 120.707 395.291 121.181 395.592 121.726C396.232 122.837 396.985 124.212 397.744 125.739C398.785 127.801 399.684 129.933 400.434 132.119C400.724 133.014 400.972 133.904 401.181 134.789C401.327 135.414 401.44 136.04 401.526 136.655C401.618 137.311 401.667 137.972 401.671 138.634C401.671 138.798 401.622 138.957 401.531 139.093C388.421 158.228 376.391 171.291 365.449 179.596C354.507 187.902 344.651 191.462 335.936 191.462C335.516 191.462 335.096 191.462 334.682 191.435C334.682 190.874 334.655 190.334 334.65 189.795Z" fill="black"/>
<path d="M287.992 166.364C287.031 167.246 286.212 168.274 285.562 169.409C283.796 172.324 281.115 174.56 277.945 175.762C277.589 175.901 277.243 176.014 276.914 176.115C276.674 175.983 276.418 175.88 276.154 175.81C275.368 175.652 274.568 175.584 273.767 175.606C272.932 175.606 271.965 175.649 270.891 175.708C271.024 168.669 271.093 161.678 271.093 154.854C271.093 148.613 271.035 142.523 270.902 136.626C270.184 105.473 263.173 81.4613 261.706 76.7543C264.459 76.1163 267.021 75.6338 269.35 75.2693C269.35 75.9448 269.382 76.6149 269.408 77.2636C269.413 77.4419 269.477 77.6135 269.589 77.7514L281.188 91.7652C281.271 91.8677 281.378 91.9475 281.5 91.9971C281.621 92.0468 281.754 92.0647 281.884 92.0493L282.602 91.9689C282.811 91.9396 283.001 91.8302 283.133 91.6633L293.121 78.695C293.214 78.5701 293.271 78.4217 293.286 78.2661L293.515 75.4462C294.907 75.7625 296.417 76.1646 298.017 76.69L298.155 76.7382C297.544 82.0724 293.281 119.83 289.879 165.393C289.626 165.434 289.379 165.508 289.145 165.613C288.726 165.805 288.338 166.058 287.992 166.364Z" fill="#135589"/>
<path d="M269.725 209.891C269.821 207.246 269.913 204.585 270.002 201.909C273.848 200.433 277.611 198.718 281.273 196.771C281.403 196.697 281.513 196.586 281.589 196.45C281.665 196.314 281.705 196.158 281.705 195.998C281.705 195.998 281.705 195.174 281.646 193.876L287.949 192.192C287.602 198.253 287.282 204.354 286.998 210.461C281.171 210.415 275.226 210.237 269.725 209.891Z" fill="#135589"/>
<path d="M299.005 74.8059C298.852 74.9367 298.751 75.131 298.725 75.3462C298.725 75.3462 298.725 75.5731 298.658 76L298.534 75.9514C297.109 75.411 295.755 75.0166 294.51 74.6978L294.629 73.0769C296.316 73.4979 297.98 74.0283 299.613 74.6654H299.556C299.461 74.6464 299.363 74.6491 299.268 74.6732C299.174 74.6973 299.084 74.7424 299.005 74.8059Z" fill="black"/>
<path d="M282.66 211.883C278.257 211.828 273.859 211.722 269.725 211.558L269.789 210.462C275.341 210.681 281.361 210.794 287.22 210.827C287.188 211.192 287.161 211.558 287.134 211.923L284.294 211.901L282.66 211.883Z" fill="black"/>
<path d="M269.725 74.604C267.214 74.9467 264.463 75.4002 261.5 76C261.317 75.496 261.214 75.2138 261.214 75.2087C261.151 75.046 261.026 74.9074 260.86 74.8158C260.695 74.7242 260.499 74.685 260.305 74.7048H260.248C263.679 73.9891 266.836 73.4599 269.696 73.0769C269.702 73.596 269.713 74.1 269.725 74.604Z" fill="black"/>
<path d="M278.85 53.4183C279.507 53.0555 280.058 52.5315 280.448 51.8975C280.806 51.3013 281.065 50.6527 281.215 49.9762C281.529 48.6557 281.59 47.2702 281.793 46.1499C281.876 45.5193 282.084 44.9107 282.405 44.3585C282.558 44.135 282.762 43.9497 283.001 43.8173C283.373 43.6232 283.787 43.5193 284.208 43.5142H284.412C284.717 43.4925 285.023 43.5543 285.294 43.6928C285.422 43.7773 285.511 43.9074 285.542 44.0554C285.588 44.2323 285.608 44.4144 285.603 44.5966C285.567 45.2967 285.458 45.9912 285.278 46.6695C285.078 47.4423 284.958 48.2328 284.919 49.0291C284.914 49.3986 284.979 49.7658 285.112 50.1115C285.274 50.5054 285.565 50.8349 285.939 51.0478C286.203 51.1926 286.493 51.2863 286.794 51.3238C286.943 51.3452 287.094 51.3561 287.246 51.3563C287.628 51.3555 288.005 51.2685 288.348 51.1019C288.673 50.9321 288.954 50.6914 289.17 50.3984C289.57 49.8008 289.841 49.1282 289.963 48.423C290.283 46.9509 290.382 45.1433 290.735 43.4006C290.911 42.4453 291.206 41.5147 291.612 40.6296C292.45 40.7225 293.293 40.7713 294.137 40.7757C297.456 40.8151 300.728 39.9917 303.619 38.389C305.51 37.3175 307.211 35.9522 308.657 34.3462C308.894 37.4473 309.087 41.0355 309.087 44.6562C309.116 48.0095 308.904 51.3606 308.453 54.6847C308.001 57.7804 307.252 60.4865 306.166 62.3699C305.599 63.4711 304.702 64.3757 303.597 64.9622C303.009 65.2396 302.364 65.3803 301.711 65.3736H293.872C293.666 65.3741 293.467 65.4506 293.315 65.5878C293.163 65.725 293.069 65.913 293.051 66.115L292.042 78.0215L282.08 90.6154L270.547 77.0853C270.487 75.2722 270.454 73.3455 270.454 71.3322C270.454 66.0446 270.674 60.1834 271.154 54.4791C271.897 54.5879 272.646 54.644 273.397 54.6468C275.291 54.688 277.164 54.2658 278.85 53.4183Z" fill="white"/>
<path d="M293.721 74.7493L293.494 77.5672C293.479 77.7227 293.423 77.871 293.33 77.9958L283.41 90.955C283.279 91.1218 283.09 91.2311 282.882 91.2604L282.169 91.3407C282.039 91.3562 281.908 91.3383 281.787 91.2886C281.666 91.239 281.56 91.1593 281.477 91.0568L269.962 77.069C269.851 76.9312 269.788 76.7597 269.783 76.5815C269.783 75.9333 269.74 75.2636 269.725 74.5886C269.725 74.0529 269.725 73.5172 269.725 72.9814C269.725 72.1939 269.725 71.3743 269.725 70.576C269.725 65.2188 269.941 59.3258 270.416 53.5667C270.938 53.7052 271.467 53.8143 272 53.8935C271.541 59.5401 271.33 65.342 271.33 70.576C271.33 72.5689 271.361 74.4761 271.419 76.2708L282.465 89.6639L292.005 77.1976L292.971 65.4116C292.988 65.2117 293.079 65.0255 293.224 64.8897C293.37 64.7539 293.56 64.6783 293.758 64.6777H301.192C301.817 64.6844 302.434 64.5451 302.997 64.2705C304.056 63.69 304.915 62.7945 305.458 61.7044C306.514 59.8401 307.216 57.1615 307.649 54.0971C308.08 50.8066 308.283 47.4895 308.256 44.1701C308.256 40.5861 308.071 37.0343 307.844 33.9646C308.187 33.5735 308.52 33.1824 308.821 32.786C308.985 32.577 309.138 32.3681 309.291 32.1538C309.581 35.5985 309.819 39.8522 309.819 44.1701C309.819 49.4577 309.444 54.8364 308.235 58.9883C307.757 60.8792 306.882 62.6428 305.669 64.158C305.115 64.8074 304.438 65.3375 303.679 65.717C302.899 66.0958 302.045 66.29 301.181 66.2849H294.402L293.842 73.1154L293.721 74.7493Z" fill="black"/>
<path d="M302.179 36.6001C299.58 38.0564 296.641 38.8018 293.659 38.7608C292.702 38.7594 291.747 38.6963 290.798 38.5718C290.637 38.5499 290.472 38.5774 290.327 38.6508C290.182 38.7241 290.063 38.8397 289.985 38.9823C289.292 40.316 288.83 41.757 288.619 43.2443C288.375 44.6704 288.256 46.0478 288.077 47.1282C288.005 47.7043 287.848 48.2666 287.611 48.7973C287.539 48.9504 287.436 49.0866 287.308 49.197C287.179 49.2858 287.025 49.3296 286.869 49.3213H286.652C286.563 49.3106 286.477 49.285 286.397 49.2457L286.31 49.17C286.228 49.0024 286.193 48.8159 286.208 48.6299C286.247 47.9511 286.354 47.278 286.527 46.6204C286.726 45.8293 286.844 45.0204 286.88 44.2058C286.885 43.8392 286.83 43.4742 286.717 43.1254C286.594 42.7434 286.367 42.403 286.061 42.1423C285.843 41.9565 285.591 41.8136 285.319 41.721C284.921 41.5885 284.503 41.5246 284.083 41.5319H283.807C283.298 41.5508 282.797 41.653 282.322 41.8344C281.901 42.0023 281.519 42.2541 281.2 42.5745C280.627 43.1897 280.235 43.9504 280.067 44.773C279.939 45.3073 279.842 45.8483 279.774 46.3935C279.682 47.1282 279.612 47.8682 279.493 48.5542C279.396 49.3602 279.126 50.1359 278.701 50.8284C278.472 51.1603 278.17 51.4356 277.818 51.6332C276.407 52.3229 274.848 52.6585 273.276 52.611C271.693 52.6156 270.122 52.3299 268.643 51.7683C267.161 51.2184 265.852 50.2864 264.849 49.0674C264.178 48.2227 263.688 47.2503 263.407 46.2099C264.275 41.8884 265.375 39.4901 266.253 38.2368C267.131 36.9836 267.776 36.827 267.813 36.8108C268.029 36.8108 268.236 36.7254 268.388 36.5734C268.541 36.4215 268.626 36.2154 268.626 36.0005C268.626 35.7856 268.541 35.5795 268.388 35.4276C268.236 35.2756 268.029 35.1902 267.813 35.1902H267.689C267.58 35.1632 267.412 35.1308 267.196 35.0714C266.613 34.901 266.049 34.6749 265.51 34.3962C263.721 33.4684 262.296 31.9697 261.462 30.1396C260.608 28.2162 260.195 26.1272 260.253 24.0248C260.256 23.1548 260.307 22.2856 260.405 21.4211C260.528 19.9902 260.921 18.5954 261.565 17.3104C262.057 16.3544 262.763 15.5244 263.63 14.885C265.303 13.7826 267.284 13.2397 269.288 13.3347C271.561 13.3798 273.812 13.7902 275.954 14.5501C276.08 14.5949 276.216 14.6078 276.348 14.5877C276.481 14.5676 276.606 14.515 276.714 14.4348C276.821 14.3546 276.907 14.2491 276.963 14.1279C277.02 14.0066 277.045 13.8733 277.038 13.7398V13.7128C277.04 13.6714 277.04 13.6299 277.038 13.5885C277.038 13.4805 277.038 13.3185 277.038 13.1132C277.048 11.6369 277.229 10.1668 277.58 8.73235C277.974 6.81409 278.893 5.04191 280.235 3.61146C281.276 2.59575 282.597 1.91135 284.029 1.64522C284.617 1.52512 285.217 1.4636 285.817 1.46156C287.072 1.45971 288.31 1.75012 289.432 2.30964C290.507 2.85064 291.465 3.59774 292.25 4.50816C293.76 6.20252 294.628 8.36915 294.705 10.6338C294.724 11.5014 294.529 12.3603 294.136 13.1348C294.044 13.3071 294.018 13.5067 294.062 13.6969C294.106 13.8871 294.217 14.0552 294.375 14.1702C294.533 14.2852 294.728 14.3394 294.923 14.3229C295.118 14.3063 295.301 14.2201 295.437 14.0801C296.289 13.176 297.306 12.4425 298.434 11.9194C299.363 11.4956 300.372 11.2764 301.393 11.2766C303.511 11.3541 305.539 12.1443 307.149 13.5183C308.864 14.9061 310.23 16.6746 311.138 18.6824C311.676 19.8405 311.971 21.096 312.005 22.3718C312.021 23.1458 311.852 23.9125 311.511 24.6082L311.452 24.7486V24.808C311.452 24.862 311.409 24.9485 311.371 25.0565C311.295 25.278 311.175 25.5967 311.013 26.0018C310.565 27.0926 310.039 28.1504 309.441 29.1673C307.712 32.2332 305.208 34.7954 302.179 36.6001Z" fill="black"/>
<path d="M308.437 34.8835C307.004 36.5211 305.319 37.9133 303.446 39.006C300.582 40.6402 297.342 41.4799 294.054 41.4397C293.218 41.4352 292.383 41.3855 291.553 41.2907C291.15 42.1933 290.859 43.1422 290.684 44.1163C290.335 45.8933 290.237 47.7365 289.92 49.2376C289.798 49.9567 289.531 50.6426 289.134 51.2519C288.92 51.5507 288.642 51.7962 288.32 51.9693C287.98 52.1392 287.607 52.2279 287.228 52.2287C287.078 52.2285 286.928 52.2174 286.78 52.1956C286.483 52.1574 286.195 52.0618 285.934 51.9142C285.563 51.6971 285.275 51.361 285.115 50.9594C284.983 50.6069 284.918 50.2325 284.923 49.8557C284.962 49.0437 285.081 48.2376 285.278 47.4496C285.457 46.7579 285.565 46.0497 285.601 45.3359C285.606 45.15 285.585 44.9643 285.541 44.784C285.51 44.6331 285.421 44.5004 285.295 44.4143C285.026 44.2731 284.723 44.21 284.421 44.2322H284.219C283.802 44.2373 283.392 44.3433 283.023 44.5412C282.787 44.6762 282.585 44.8652 282.433 45.0931C282.113 45.652 281.903 46.2687 281.816 46.9087C281.614 48.0621 281.554 49.4639 281.243 50.8104C281.095 51.5002 280.839 52.1616 280.484 52.7696C280.098 53.4161 279.552 53.9503 278.9 54.3203C277.234 55.1675 275.386 55.5846 273.522 55.5344C272.778 55.5315 272.035 55.4743 271.299 55.3633C270.748 55.2817 270.201 55.1693 269.661 55.0267C268.577 54.7431 267.536 54.3144 266.565 53.7519C265.475 53.1271 264.508 52.3039 263.715 51.3237C262.862 50.2309 262.246 48.9693 261.907 47.6206C261.883 47.5005 261.883 47.3765 261.907 47.2564C262.912 42.0688 264.233 39.3316 265.402 37.836C265.57 37.6248 265.753 37.4257 265.948 37.24C263.391 36.2207 261.322 34.244 260.171 31.7213C259.207 29.5355 258.737 27.1602 258.795 24.7678C258.796 23.8201 258.849 22.8731 258.953 21.9312C259.089 20.253 259.539 18.6163 260.28 17.1079C261.172 15.3476 262.633 13.9478 264.419 13.14C266.023 12.4469 267.753 12.1046 269.497 12.1356C271.595 12.1667 273.678 12.4974 275.684 13.1179C275.722 10.8985 276.133 8.70185 276.902 6.62242C277.451 5.15296 278.3 3.81627 279.392 2.69864C280.654 1.43449 282.257 0.574522 284.001 0.226274C284.701 0.0768197 285.415 0.000994088 286.13 8.75568e-06C287.646 -0.00203347 289.142 0.353206 290.499 1.03752C292.397 2.02004 293.983 3.52341 295.075 5.3752C296.128 7.07496 296.706 9.03191 296.746 11.0374C296.746 11.2581 296.746 11.4733 296.713 11.6886C297.184 11.369 297.681 11.0902 298.198 10.8552C299.345 10.3284 300.591 10.0556 301.851 10.055C303.511 10.0777 305.141 10.5117 306.597 11.3188C308.793 12.5506 310.652 14.3141 312.008 16.4512C313.341 18.4054 314.098 20.7018 314.192 23.0736C314.206 24.0865 313.989 25.089 313.559 26.004C312.724 28.5263 311.507 30.902 309.949 33.0458C309.791 33.2666 309.633 33.4818 309.463 33.697C309.119 34.0778 308.792 34.4807 308.437 34.8835ZM311.516 26.7711C311.68 26.3572 311.8 26.0316 311.877 25.8053C311.915 25.6949 311.942 25.6066 311.959 25.5515V25.4908L312.019 25.3473C312.362 24.6365 312.532 23.8532 312.516 23.0625C312.482 21.7591 312.184 20.4764 311.642 19.2933C310.728 17.242 309.352 15.4353 307.623 14.0174C306.002 12.6137 303.958 11.8064 301.824 11.7272C300.795 11.727 299.778 11.951 298.842 12.3839C297.706 12.9184 296.681 13.6677 295.823 14.5914C295.685 14.7344 295.501 14.8225 295.305 14.8394C295.108 14.8563 294.912 14.8009 294.753 14.6834C294.593 14.5659 294.481 14.3942 294.437 14.1999C294.393 14.0056 294.42 13.8016 294.512 13.6256C294.921 12.8264 295.125 11.9367 295.107 11.0374C295.027 8.71257 294.142 6.49 292.607 4.7571C291.815 3.82699 290.85 3.06372 289.767 2.511C288.635 1.9432 287.388 1.65029 286.125 1.65561C285.519 1.6577 284.916 1.72055 284.323 1.84325C282.88 2.11514 281.549 2.81434 280.5 3.85204C279.145 5.3069 278.214 7.11154 277.808 9.06719C277.456 10.5327 277.272 12.0346 277.262 13.5428C277.262 13.7525 277.262 13.9181 277.262 14.0285C277.264 14.0708 277.264 14.1131 277.262 14.1554V14.183C277.27 14.3194 277.244 14.4556 277.187 14.5795C277.131 14.7034 277.044 14.8111 276.936 14.8931C276.828 14.975 276.701 15.0287 276.568 15.0492C276.434 15.0698 276.298 15.0566 276.17 15.0108C274.024 14.2486 271.771 13.8387 269.497 13.7967C267.479 13.6996 265.482 14.2544 263.796 15.3805C262.922 16.0332 262.208 16.8812 261.711 17.8584C261.066 19.1775 260.675 20.6083 260.558 22.0747C260.459 22.9579 260.408 23.8459 260.405 24.7347C260.346 26.8763 260.758 29.0045 261.612 30.9653C262.445 32.8061 263.856 34.3175 265.626 35.2643C266.169 35.5491 266.737 35.7801 267.324 35.9542C267.542 36.0149 267.712 36.048 267.821 36.0756H267.947C268.164 36.0756 268.372 36.1628 268.526 36.318C268.679 36.4733 268.766 36.6838 268.766 36.9034C268.766 37.1229 268.679 37.3335 268.526 37.4887C268.372 37.644 268.164 37.7312 267.947 37.7312C267.908 37.7312 267.275 37.8802 266.374 39.1881C265.473 40.496 264.381 42.8966 263.507 47.3337C263.789 48.3966 264.284 49.39 264.96 50.253C265.97 51.4984 267.289 52.4506 268.782 53.0124C270.273 53.5862 271.855 53.878 273.451 53.8733C275.034 53.9219 276.605 53.579 278.027 52.8744C278.382 52.6725 278.686 52.3912 278.917 52.0521C279.345 51.3447 279.617 50.5522 279.714 49.7288C279.834 49.0334 279.905 48.2774 279.998 47.5213C280.066 46.9643 280.164 46.4116 280.293 45.8657C280.462 45.0253 280.857 44.2481 281.434 43.6196C281.756 43.2923 282.141 43.035 282.564 42.8635C283.043 42.6782 283.549 42.5738 284.061 42.5545H284.339C284.762 42.547 285.183 42.6123 285.584 42.7476C285.858 42.8422 286.112 42.9883 286.332 43.1781C286.641 43.4444 286.869 43.7922 286.993 44.1825C287.107 44.5388 287.163 44.9117 287.157 45.2862C287.121 46.1185 287.002 46.9449 286.802 47.7531C286.628 48.4249 286.52 49.1126 286.48 49.806C286.465 49.996 286.501 50.1866 286.583 50.3579L286.671 50.4352C286.751 50.4753 286.838 50.5015 286.927 50.5124H287.146C287.303 50.5209 287.459 50.4762 287.588 50.3855C287.717 50.2726 287.822 50.1335 287.894 49.9771C288.132 49.4349 288.29 48.8604 288.364 48.2718C288.549 47.1681 288.669 45.7608 288.91 44.3039C289.122 42.7844 289.587 41.3122 290.286 39.9497C290.364 39.804 290.484 39.6859 290.631 39.611C290.777 39.5361 290.942 39.5079 291.105 39.5303C292.061 39.6575 293.024 39.722 293.988 39.7234C296.992 39.7653 299.953 39.0038 302.572 37.5159C305.612 35.6784 308.126 33.0727 309.867 29.9554C310.49 28.9344 311.042 27.8704 311.516 26.7711Z" fill="black"/>
<path d="M254.287 176.112C251.666 176.14 249.046 175.976 246.452 175.621C244.379 175.374 242.373 174.759 240.534 173.808C239.624 173.316 238.864 172.603 238.33 171.741C237.494 170.215 236.935 168.563 236.678 166.857C236.337 164.828 236.174 162.775 236.193 160.72C236.193 152.676 238.171 144.055 238.397 143.034V142.934C238.446 142.73 238.41 142.516 238.295 142.337C238.181 142.159 237.997 142.032 237.785 141.983H237.724L248.011 80.6898L248.292 80.5894C249.225 80.237 250.2 79.9251 251.218 79.6538L248.771 100.913C248.759 101.023 248.77 101.135 248.805 101.24C248.841 101.346 248.898 101.443 248.975 101.526L258.033 111.368L253.477 127.146C253.442 127.265 253.437 127.39 253.461 127.511C253.486 127.632 253.541 127.746 253.62 127.843L253.719 127.965L254 128.319C254.248 128.636 254.612 129.096 255.058 129.683C255.95 130.851 257.19 132.521 258.568 134.514C261.322 138.505 264.661 143.785 266.915 148.923C268.424 152.343 269.444 155.699 269.532 158.506C269.538 158.681 269.606 158.848 269.725 158.981C269.725 164.362 269.625 169.833 269.521 175.33L265.394 175.621C261.906 175.864 258.022 176.112 254.287 176.112Z" fill="white"/>
<path d="M262.747 138.335C260.319 134.539 257.69 130.862 254.87 127.32L259.534 111.304C259.572 111.175 259.575 111.04 259.543 110.91C259.512 110.78 259.447 110.66 259.354 110.559L250.042 100.525L252.574 78.7146C254.956 78.1532 257.373 77.7347 259.81 77.4615C259.861 77.6115 259.917 77.7882 259.985 77.997C260.232 78.7628 260.592 79.898 261.026 81.3705C261.892 84.3103 263.051 88.5995 264.244 93.9703C267.378 108.133 269.146 122.538 269.528 137.007C269.646 141.863 269.708 146.886 269.725 152C269.35 150.908 268.912 149.806 268.414 148.696C266.785 145.119 264.892 141.656 262.747 138.335Z" fill="white"/>
<path d="M265.035 274.743C264.436 282.843 263.956 288.67 263.654 291.181C254.38 294.411 244.622 296.028 234.802 295.959C224.393 295.969 214.045 294.383 204.116 291.256C205.67 285.289 216.526 243.251 223.649 204.383C224.897 204.938 226.176 205.419 227.48 205.825C231.87 207.137 236.432 207.778 241.013 207.726C251.141 207.726 261.312 205.074 268.996 202.423C267.96 231.026 266.271 257.896 265.035 274.743ZM237.732 245.071C234.333 244.385 230.95 243.16 228.559 241.129C228.478 241.058 228.384 241.004 228.283 240.97C228.181 240.935 228.073 240.921 227.966 240.928C227.859 240.935 227.754 240.963 227.658 241.01C227.561 241.058 227.475 241.124 227.404 241.205C227.334 241.286 227.279 241.38 227.245 241.482C227.21 241.583 227.196 241.691 227.203 241.798C227.21 241.906 227.238 242.011 227.286 242.107C227.333 242.203 227.399 242.29 227.48 242.36C230.178 244.666 233.809 245.935 237.365 246.68C240.497 247.28 243.679 247.573 246.867 247.555C248.907 247.555 250.229 247.447 250.245 247.442C250.351 247.433 250.455 247.402 250.549 247.353C250.644 247.304 250.728 247.237 250.797 247.155C250.865 247.073 250.917 246.979 250.95 246.877C250.982 246.775 250.994 246.668 250.984 246.562C250.975 246.455 250.945 246.352 250.896 246.257C250.847 246.162 250.779 246.078 250.698 246.009C250.616 245.941 250.522 245.889 250.42 245.857C250.318 245.824 250.211 245.813 250.105 245.822H250.083H249.916C249.765 245.822 249.544 245.849 249.263 245.86C248.723 245.887 247.887 245.914 246.894 245.914C243.82 245.931 240.752 245.649 237.732 245.071Z" fill="white"/>
<path d="M247.855 78.1924C246.103 79.0364 244.399 80.0128 242.752 81.1155C244.375 79.9609 246.083 78.9826 247.855 78.1924Z" fill="black"/>
<path d="M251.653 77.05L251.509 78.8979C250.397 79.3515 249.335 79.847 248.323 80.3846L248.455 80.309C248.68 80.1976 248.865 79.9656 248.968 79.6639C249.071 79.3623 249.084 79.0157 249.004 78.7005C248.924 78.3853 248.759 78.1272 248.543 77.9831C248.328 77.8389 248.08 77.8205 247.855 77.9319C249.235 77.2152 250.693 76.5712 252.229 76C252.073 76.0838 251.937 76.2262 251.835 76.4114C251.734 76.5967 251.671 76.8177 251.653 77.05Z" fill="black"/>
<path d="M261.421 75.8069C261.421 75.8069 261.518 76.1008 261.69 76.6459C263.173 81.3378 270.29 105.273 270.989 136.326C271.123 142.205 271.183 148.259 271.183 154.495C271.183 161.298 271.113 168.267 270.978 175.283L269.366 175.385C269.468 169.827 269.538 164.296 269.565 158.856C269.641 158.952 269.739 159.029 269.852 159.08C269.964 159.131 270.086 159.155 270.21 159.15C270.423 159.142 270.625 159.05 270.77 158.895C270.916 158.74 270.995 158.534 270.989 158.322C270.847 155.951 270.367 153.612 269.565 151.375C269.565 146.255 269.489 141.221 269.376 136.412C269.012 121.973 267.323 107.597 264.329 93.463C263.189 88.1192 262.082 83.8441 261.254 80.8889C260.84 79.4193 260.496 78.2864 260.26 77.5222C260.195 77.3138 260.142 77.1375 260.093 76.9879C257.765 77.2604 255.456 77.6781 253.18 78.2383L253.245 77.7039C253.26 77.5739 253.242 77.4423 253.193 77.3207C253.145 77.1991 253.067 77.0913 252.967 77.0068C252.866 76.9223 252.746 76.8636 252.618 76.8361C252.489 76.8086 252.355 76.813 252.229 76.8489C254.955 76.1223 257.731 75.5954 260.534 75.2725H260.588C260.767 75.2566 260.946 75.3005 261.097 75.3973C261.248 75.4941 261.362 75.6383 261.421 75.8069Z" fill="black"/>
<path d="M223.337 204.235C216.189 243.11 205.309 285.132 203.75 291.098C213.706 294.225 224.084 295.811 234.521 295.801C244.367 295.869 254.153 294.253 263.452 291.023C263.734 288.512 264.237 282.713 264.837 274.587C266.093 257.742 267.77 230.854 268.809 202.275L268.944 202.232L270.454 201.692C270.367 204.212 270.273 206.703 270.172 209.165L270.107 210.785C269.664 221.583 269.139 232.02 268.598 241.603C267.873 254.562 267.104 265.976 266.461 274.706C265.817 283.437 265.281 289.479 265.005 291.719C264.985 291.869 264.924 292.011 264.829 292.128C264.733 292.245 264.607 292.334 264.464 292.383C254.847 295.788 244.709 297.493 234.505 297.421C229.354 297.414 224.211 297.032 219.117 296.276L217.493 296.028C212.385 295.25 207.354 294.03 202.457 292.383C202.269 292.311 202.114 292.173 202.022 291.995C201.929 291.817 201.905 291.611 201.954 291.417C201.954 291.417 202.057 291.034 202.246 290.299C203.674 284.824 210.108 259.858 216.184 231.528C218.154 222.35 220.08 212.836 221.79 203.506C222.325 203.76 222.834 204.003 223.337 204.235Z" fill="black"/>
<path d="M313.044 184.391C313.847 183.596 314.483 182.649 314.914 181.607C315.345 180.565 315.562 179.448 315.554 178.321C315.471 176.071 314.842 173.874 313.72 171.918C313.062 170.701 312.292 169.546 311.421 168.469C311.378 168.42 311.351 168.377 311.346 168.372C310.989 167.903 310.518 167.533 309.977 167.296C309.453 167.073 308.887 166.963 308.316 166.973C307.348 167.001 306.393 167.197 305.493 167.554C304.468 167.938 303.473 168.399 302.518 168.932C300.516 170.008 298.509 171.364 296.816 172.413C295.926 172.998 294.991 173.512 294.02 173.952C293.587 174.124 293.241 174.242 292.981 174.318H292.927C292.987 174.129 293.068 173.898 293.16 173.64C293.422 172.94 293.627 172.22 293.771 171.487C293.821 171.189 293.847 170.886 293.847 170.584C293.84 169.761 293.697 168.945 293.425 168.168C293.173 167.369 292.705 166.654 292.072 166.101C291.928 165.987 291.772 165.888 291.607 165.805C291.607 165.73 291.607 165.649 291.607 165.569C291.73 164.334 292.014 163.12 292.451 161.958C292.99 160.484 293.624 159.046 294.35 157.654C296.048 154.435 297.943 151.322 300.024 148.334C304.189 142.254 308.527 137.008 309.479 135.862L309.674 135.636C309.754 135.542 309.812 135.431 309.842 135.311C309.872 135.192 309.874 135.067 309.847 134.947L305.996 116.835L313.461 112.03C313.584 111.951 313.683 111.84 313.748 111.709C313.812 111.579 313.84 111.433 313.829 111.288L311.594 83.3077C313.499 84.8571 315.269 86.5635 316.885 88.4087L316.939 88.4571V88.484L317.025 88.5647L317.35 88.8822C317.631 89.1674 318.042 89.5817 318.545 90.1144C319.557 91.1905 320.947 92.7133 322.451 94.575C325.464 98.3039 328.942 103.351 330.792 108.565C330.851 108.727 330.961 108.867 331.104 108.963C331.248 109.06 331.419 109.109 331.593 109.103L331.641 110.389L333.188 147.715C332.974 147.726 332.773 147.822 332.629 147.98C332.485 148.138 332.41 148.347 332.42 148.56C333.502 169.007 333.875 193.398 333.875 216.298C333.875 252.118 333.01 284.247 332.793 291.715C332.793 292.199 332.793 292.576 332.761 292.85C332.523 292.953 332.22 293.098 331.771 293.265C330.447 293.798 329.097 294.263 327.725 294.658C323.157 295.995 318.422 296.68 313.661 296.692C304.398 296.717 295.347 293.939 287.707 288.729C287.377 281.04 287.22 272.823 287.22 264.252C287.22 241.652 288.27 216.643 289.773 192.413C293.5 191.493 298.179 190.336 303.957 188.9C308.306 187.807 311.221 186.252 313.044 184.391ZM304.108 247.383C305.052 247.647 306.019 247.818 306.997 247.894C308.078 247.996 309.198 248.034 310.345 248.034C313.461 248.001 316.573 247.793 319.665 247.41C319.772 247.396 319.874 247.362 319.968 247.308C320.061 247.255 320.142 247.184 320.208 247.099C320.274 247.015 320.322 246.918 320.35 246.815C320.378 246.712 320.385 246.604 320.371 246.498C320.357 246.392 320.322 246.29 320.269 246.197C320.215 246.104 320.144 246.023 320.059 245.958C319.974 245.893 319.876 245.845 319.773 245.817C319.669 245.789 319.561 245.782 319.454 245.796H319.249L318.664 245.866C318.156 245.925 317.431 246 316.571 246.075C314.845 246.231 312.557 246.382 310.34 246.382C309.258 246.382 308.138 246.344 307.143 246.253C306.272 246.183 305.41 246.032 304.568 245.801C304.464 245.764 304.354 245.749 304.244 245.756C304.134 245.763 304.027 245.792 303.929 245.841C303.831 245.891 303.744 245.96 303.673 246.043C303.603 246.127 303.55 246.225 303.518 246.33C303.487 246.435 303.477 246.545 303.489 246.653C303.502 246.762 303.537 246.867 303.591 246.962C303.646 247.057 303.719 247.14 303.807 247.206C303.895 247.272 303.996 247.319 304.103 247.345L304.108 247.383Z" fill="white"/>
<path d="M312.006 111.215L304.33 116.039C304.19 116.128 304.081 116.256 304.017 116.406C303.953 116.556 303.937 116.721 303.971 116.88L307.933 135.105C306.548 136.713 299.866 144.651 294.905 152.616C293.69 154.543 292.585 156.533 291.594 158.577C294.905 117.732 298.74 84.5048 299.535 77.7992C299.535 77.6759 299.535 77.5688 299.573 77.4615L300.225 77.6491C301.638 78.0806 303.014 78.6182 304.341 79.2572C306.197 80.1572 307.973 81.2061 309.65 82.3929L312.006 111.215Z" fill="white"/>
<path d="M322.17 297.335C319.223 297.876 316.235 298.15 313.24 298.154C303.715 298.174 294.415 295.233 286.605 289.729C286.503 289.659 286.419 289.566 286.359 289.457C286.299 289.348 286.265 289.227 286.261 289.102C285.916 281.309 285.762 272.975 285.762 264.276C285.762 247.683 286.324 229.73 287.21 211.782C287.21 211.247 287.263 210.712 287.295 210.176C287.576 204.508 287.894 198.845 288.239 193.219L289.829 192.812C288.403 216.899 287.342 241.806 287.342 264.276C287.342 272.803 287.496 280.977 287.82 288.626C295.3 293.803 304.16 296.566 313.23 296.548C317.897 296.536 322.539 295.854 327.016 294.525C328.361 294.132 329.685 293.669 330.983 293.138C331.402 292.972 331.72 292.828 331.953 292.726C331.953 292.453 331.953 292.078 331.985 291.597C332.197 284.167 333.045 252.206 333.045 216.573C333.045 193.792 332.701 169.512 331.619 149.188C331.609 148.975 331.682 148.768 331.824 148.61C331.965 148.453 332.162 148.358 332.372 148.347C332.581 148.337 332.785 148.411 332.94 148.552C333.095 148.694 333.188 148.891 333.199 149.102C333.873 161.852 334.26 176.144 334.461 190.639C334.461 191.174 334.461 191.71 334.461 192.245C334.562 200.386 334.604 208.571 334.604 216.573C334.604 257.323 333.496 293.261 333.496 293.267C333.491 293.412 333.448 293.553 333.371 293.676C333.293 293.798 333.185 293.897 333.056 293.963C330.057 295.341 326.912 296.368 323.681 297.024C323.236 297.131 322.711 297.238 322.17 297.335Z" fill="black"/>
<path d="M331.127 109.217C331.052 109.242 330.973 109.257 330.894 109.261C330.724 109.266 330.557 109.217 330.416 109.12C330.275 109.023 330.168 108.884 330.11 108.721C328.294 103.496 324.893 98.4324 321.943 94.6862C320.47 92.8186 319.109 91.2801 318.119 90.2114C317.626 89.6716 317.224 89.2613 316.948 88.9752L316.63 88.6568L316.546 88.5758V88.5488L316.493 88.5002C314.91 86.6491 313.177 84.9373 311.312 83.383L311.185 81.7636C311.177 81.6573 311.148 81.5537 311.1 81.4587C311.053 81.3637 310.987 81.2792 310.908 81.2101C310.828 81.1409 310.736 81.0884 310.636 81.0556C310.537 81.0227 310.432 81.0102 310.327 81.0187C310.223 81.0272 310.121 81.0566 310.028 81.1051C309.935 81.1537 309.852 81.2205 309.784 81.3017C309.716 81.3829 309.665 81.4769 309.632 81.5784C309.6 81.6799 309.588 81.7869 309.596 81.8932V82.0443C307.987 80.8491 306.283 79.7929 304.501 78.8865C303.227 78.2431 301.906 77.7017 300.55 77.2672L299.925 77.0782C299.925 77.1862 299.925 77.2942 299.887 77.4183C299.125 84.1711 295.433 117.633 292.266 158.765C291.842 159.688 291.466 160.589 291.153 161.464C290.627 162.851 290.285 164.303 290.136 165.782C290.136 165.82 290.136 165.852 290.136 165.885C293.526 120.002 297.774 81.9903 298.383 76.6194C298.431 76.193 298.457 75.9663 298.457 75.9663C298.487 75.7513 298.6 75.5572 298.77 75.4265C298.858 75.3621 298.957 75.3161 299.063 75.2911C299.168 75.2661 299.277 75.2625 299.384 75.2807H299.448C301.449 75.7548 303.385 76.48 305.211 77.4399C308.454 79.1001 311.452 81.2151 314.12 83.7231C315.179 84.7001 316.238 85.7797 317.298 86.9618L317.478 87.1669L317.668 87.3775C317.849 87.561 319.575 89.2613 321.816 91.9387C322.261 92.4785 322.727 93.0453 323.209 93.6552C326.217 97.4662 329.703 102.632 331.625 108.127C331.669 108.231 331.69 108.344 331.688 108.457C331.686 108.571 331.661 108.682 331.614 108.785C331.567 108.888 331.5 108.979 331.416 109.054C331.332 109.128 331.234 109.184 331.127 109.217Z" fill="black"/>
<path d="M287.461 169.921C287.947 169.123 288.518 168.377 289.165 167.696C289.523 167.3 289.956 166.975 290.44 166.739C290.614 166.662 290.801 166.62 290.992 166.615C291.221 166.617 291.442 166.699 291.615 166.846C291.872 167.063 292.08 167.328 292.228 167.626C292.595 168.389 292.783 169.223 292.779 170.066C292.78 170.275 292.762 170.483 292.724 170.689C292.632 171.182 292.501 171.667 292.333 172.14C292.173 172.602 292.007 173.027 291.886 173.43C291.793 173.695 291.743 173.973 291.737 174.252C291.73 174.49 291.791 174.724 291.913 174.93C292.065 175.171 292.303 175.349 292.581 175.429C292.735 175.474 292.895 175.496 293.055 175.494C293.378 175.485 293.697 175.433 294.004 175.338C294.418 175.222 294.825 175.084 295.224 174.924C296.005 174.591 296.76 174.205 297.486 173.769C298.314 173.28 299.224 172.694 300.173 172.119C302.026 170.91 303.966 169.832 305.977 168.894C306.982 168.41 308.075 168.125 309.194 168.056C309.545 168.048 309.895 168.11 310.22 168.238C310.516 168.365 310.773 168.565 310.965 168.819L311.07 168.948L311.23 169.141C311.357 169.297 311.523 169.512 311.716 169.77C312.205 170.429 312.656 171.115 313.067 171.823C314.028 173.489 314.927 175.655 314.921 177.778C314.932 178.696 314.752 179.607 314.393 180.455C314.034 181.304 313.502 182.073 312.83 182.717C311.274 184.281 308.62 185.738 304.35 186.78C293.271 189.467 286.142 191.198 281.998 192.192C281.998 191.993 281.998 191.795 281.96 191.59C281.791 188.735 281.422 185.894 280.856 183.088C280.518 181.317 279.93 179.601 279.107 177.988C278.92 177.652 278.708 177.331 278.473 177.026L278.599 176.983C282.285 175.668 285.408 173.18 287.461 169.921Z" fill="white"/>
<path d="M281.208 192.083C285.322 191.124 292.445 189.465 303.49 186.863C307.747 185.858 310.392 184.453 311.943 182.944C312.613 182.323 313.143 181.581 313.501 180.763C313.859 179.944 314.039 179.066 314.028 178.18C314.028 176.133 313.137 174.033 312.18 172.437C311.77 171.754 311.32 171.093 310.832 170.457C310.64 170.208 310.475 170.001 310.348 169.85L310.189 169.664L310.084 169.539C309.893 169.295 309.637 169.102 309.342 168.979C309.017 168.855 308.669 168.795 308.319 168.803C307.204 168.87 306.114 169.144 305.112 169.612C303.107 170.517 301.173 171.556 299.326 172.722C298.38 173.292 297.472 173.842 296.647 174.313C295.924 174.734 295.171 175.106 294.392 175.428C293.995 175.582 293.589 175.715 293.177 175.827C292.87 175.919 292.552 175.969 292.231 175.977C292.071 175.979 291.911 175.958 291.758 175.915C291.48 175.837 291.243 175.666 291.092 175.433C290.97 175.235 290.909 175.009 290.916 174.78C290.922 174.51 290.973 174.243 291.065 173.987C291.186 173.598 291.351 173.189 291.51 172.743C291.678 172.286 291.808 171.818 291.901 171.343C291.938 171.145 291.956 170.943 291.956 170.742C291.959 169.929 291.771 169.125 291.406 168.388C291.259 168.101 291.051 167.845 290.795 167.637C290.622 167.484 290.394 167.397 290.157 167.393C289.967 167.398 289.78 167.439 289.607 167.512C289.125 167.74 288.693 168.054 288.336 168.435C287.691 169.092 287.122 169.811 286.637 170.581C284.595 173.729 281.484 176.135 277.809 177.408L277.683 177.45C277.401 177.087 277.066 176.764 276.687 176.491C276.561 176.402 276.423 176.325 276.285 176.247C276.627 176.148 276.984 176.04 277.353 175.905C280.622 174.739 283.386 172.579 285.207 169.767C285.879 168.67 286.727 167.676 287.72 166.823C288.08 166.527 288.484 166.283 288.919 166.097C289.162 165.996 289.417 165.924 289.679 165.885C289.687 166.063 289.761 166.234 289.888 166.367C290.014 166.5 290.186 166.587 290.374 166.614C290.561 166.641 290.753 166.606 290.916 166.514C291.079 166.423 291.204 166.281 291.268 166.113H291.301C291.469 166.192 291.627 166.288 291.774 166.398C292.417 166.93 292.893 167.619 293.149 168.388C293.426 169.137 293.571 169.923 293.578 170.716C293.578 171.008 293.552 171.299 293.501 171.587C293.355 172.293 293.147 172.986 292.88 173.66C292.786 173.909 292.704 174.132 292.643 174.313H292.698C292.962 174.241 293.314 174.127 293.754 173.961C294.742 173.538 295.693 173.042 296.598 172.478C298.319 171.468 300.36 170.177 302.395 169.124C303.366 168.611 304.378 168.167 305.42 167.797C306.335 167.454 307.307 167.264 308.291 167.238C308.871 167.228 309.446 167.334 309.98 167.549C310.53 167.777 311.009 168.133 311.371 168.585C311.371 168.585 311.404 168.632 311.448 168.679C312.334 169.717 313.116 170.829 313.786 172.001C314.926 173.886 315.566 176.002 315.65 178.17C315.659 179.256 315.438 180.332 314.999 181.336C314.561 182.34 313.915 183.252 313.098 184.017C311.245 185.811 308.308 187.309 303.858 188.361C297.984 189.745 293.226 190.86 289.436 191.746L287.786 192.14L281.296 193.654C281.274 193.198 281.247 192.669 281.208 192.083Z" fill="black"/>
<path d="M238.327 142.028C238.125 141.994 237.917 142.038 237.746 142.149C237.575 142.261 237.454 142.432 237.408 142.629C237.408 142.661 235.169 151.997 235.169 160.881C235.146 163.041 235.313 165.199 235.666 167.331C235.954 169.232 236.573 171.07 237.494 172.765C238.165 173.869 239.115 174.785 240.252 175.423C241.512 176.13 242.869 176.655 244.281 176.981C247.654 177.707 251.103 178.038 254.556 177.964C258.293 177.964 262.127 177.72 265.572 177.47C269.016 177.22 272.023 176.981 274.056 176.981C274.74 176.962 275.423 177.013 276.095 177.135C276.55 177.277 276.946 177.558 277.225 177.938C277.68 178.522 278.044 179.169 278.307 179.857C279.02 181.76 279.519 183.734 279.794 185.743C280.28 188.881 280.569 192.045 280.659 195.218L280.205 195.436C279.61 195.717 278.734 196.121 277.62 196.605C275.392 197.578 272.212 198.876 268.427 200.173C260.813 202.762 250.705 205.346 240.777 205.346C234.055 205.346 227.43 204.166 221.693 201.05C215.955 197.935 211.072 192.894 207.778 185.025C205.588 179.778 204.122 173.27 203.63 165.252C203.468 162.54 203.387 159.907 203.387 157.351C203.387 127.221 214.441 108.112 225.64 96.4096C235.877 85.7227 246.271 81.2513 248.456 80.3846L238.327 142.028Z" fill="white"/>
<path d="M249.773 78.6976C249.809 78.7972 249.825 78.9029 249.82 79.0087C249.815 79.1144 249.788 79.218 249.742 79.3137C249.697 79.4093 249.632 79.4951 249.552 79.5661C249.473 79.637 249.38 79.6918 249.279 79.7272L249.159 79.7754L248.882 79.8773C246.709 80.7514 236.246 85.2398 225.962 96.0397C214.712 107.837 203.613 127.115 203.608 157.504C203.608 160.085 203.689 162.741 203.852 165.473C204.346 173.559 205.819 180.123 208.019 185.416C211.327 193.352 216.233 198.43 221.997 201.578C227.761 204.726 234.415 205.911 241.168 205.911C251.142 205.911 261.268 203.305 268.945 200.693C272.747 199.385 275.963 198.076 278.18 197.095C279.299 196.607 280.179 196.199 280.777 195.915L281.233 195.695C281.158 192.495 280.885 189.302 280.413 186.134C280.136 184.107 279.635 182.117 278.919 180.198C278.655 179.503 278.289 178.851 277.832 178.262C277.551 177.879 277.153 177.595 276.697 177.452C276.021 177.33 275.335 177.278 274.649 177.297C272.606 177.297 269.569 177.543 266.125 177.79C262.681 178.037 258.813 178.289 255.059 178.289C251.591 178.363 248.126 178.03 244.737 177.297C243.318 176.968 241.955 176.439 240.69 175.726C239.548 175.082 238.594 174.159 237.919 173.044C236.98 171.343 236.345 169.494 236.04 167.58C235.685 165.432 235.518 163.257 235.54 161.081C235.54 152.12 237.784 142.704 237.789 142.672C237.836 142.473 237.958 142.301 238.129 142.188C238.301 142.075 238.509 142.032 238.713 142.066H238.772C238.982 142.115 239.162 142.245 239.275 142.425C239.388 142.606 239.424 142.824 239.375 143.031V143.133C239.136 144.168 237.202 152.914 237.202 161.075C237.184 163.16 237.344 165.243 237.68 167.301C237.934 169.032 238.485 170.708 239.31 172.256C239.836 173.131 240.585 173.854 241.483 174.353C243.296 175.318 245.274 175.941 247.318 176.192C249.876 176.552 252.459 176.719 255.043 176.691C258.726 176.691 262.556 176.444 265.995 176.198L270.064 175.903L271.693 175.801C272.78 175.742 273.779 175.699 274.632 175.699C275.451 175.677 276.269 175.745 277.072 175.903C277.342 175.973 277.603 176.076 277.848 176.208C277.984 176.289 278.12 176.369 278.245 176.46C278.619 176.743 278.95 177.077 279.228 177.452C279.46 177.757 279.669 178.078 279.853 178.412C280.663 180.022 281.243 181.734 281.575 183.501C282.132 186.301 282.495 189.136 282.662 191.985C282.662 192.188 282.689 192.387 282.7 192.585C282.738 193.191 282.765 193.738 282.787 194.221C282.841 195.427 282.846 196.183 282.846 196.194C282.847 196.342 282.806 196.487 282.728 196.614C282.65 196.741 282.539 196.844 282.406 196.913C278.682 198.723 274.855 200.318 270.944 201.691L269.428 202.227L269.292 202.27C261.556 204.903 251.316 207.53 241.119 207.536C236.507 207.587 231.914 206.951 227.494 205.648C226.182 205.245 224.894 204.767 223.637 204.216C223.127 203.986 222.616 203.744 222.116 203.492C217.422 201.141 213.406 197.656 210.442 193.363C205.938 186.928 202.929 177.919 202.179 165.585C202.012 162.818 201.929 160.137 201.929 157.542C201.929 141.91 204.835 129.121 209.214 118.744C214.443 106.152 222.942 95.1429 233.856 86.8271C236.656 84.6968 239.613 82.7736 242.7 81.0732C244.539 80.0476 246.442 79.1395 248.399 78.3544L248.708 78.2418H248.736C248.935 78.1696 249.154 78.1768 249.348 78.2619C249.542 78.347 249.694 78.5033 249.773 78.6976Z" fill="black"/>
<path d="M121.082 240.437C120.642 240.897 120.12 241.261 119.545 241.51C118.97 241.758 118.354 241.886 117.731 241.885C116.474 241.885 115.269 241.364 114.381 240.437C113.492 239.509 112.993 238.252 112.993 236.941V201.692H122.47V236.941C122.471 237.59 122.349 238.233 122.11 238.833C121.872 239.433 121.523 239.978 121.082 240.437Z" fill="white"/>
<path d="M112.993 191.462H122.47V195.846H112.993V191.462Z" fill="white"/>
<path d="M117.731 243.346C115.894 243.346 114.133 242.657 112.834 241.431C111.535 240.204 110.806 238.541 110.806 236.807V201.692H112.516V236.807C112.516 238.113 113.065 239.365 114.043 240.289C115.021 241.213 116.348 241.731 117.731 241.731C119.114 241.731 120.441 241.213 121.419 240.289C122.397 239.365 122.947 238.113 122.947 236.807V201.692H124.657V236.807C124.657 238.541 123.927 240.204 122.628 241.431C121.329 242.657 119.568 243.346 117.731 243.346Z" fill="black"/>
<path d="M122.47 191.462H124.657V195.846H122.47V191.462Z" fill="black"/>
<path d="M110.806 191.462H112.993V195.846H110.806V191.462Z" fill="black"/>
<path d="M109.348 181.231H125.385V190H109.348V181.231Z" fill="#135589"/>
<path d="M121.837 191.462H107.282C107.057 191.462 106.84 191.376 106.681 191.224C106.521 191.072 106.432 190.866 106.432 190.651V179.849C106.433 179.634 106.523 179.429 106.681 179.276C106.841 179.124 107.057 179.039 107.282 179.038H125.993C126.22 179.038 126.438 179.124 126.6 179.276C126.755 179.43 126.842 179.635 126.843 179.849V190.651C126.842 190.865 126.755 191.07 126.6 191.224C126.438 191.376 126.22 191.462 125.993 191.462H121.814H121.837ZM125.154 180.659H108.144V189.841H125.154V180.659Z" fill="black"/>
<path d="M86.0845 240.437C85.6461 240.897 85.1245 241.262 84.5499 241.51C83.9754 241.759 83.3593 241.886 82.7373 241.885C82.1147 241.885 81.4982 241.758 80.923 241.51C80.3477 241.261 79.8251 240.897 79.3852 240.438C78.9452 239.979 78.5965 239.433 78.3591 238.833C78.1216 238.233 78.0001 237.59 78.0015 236.941V201.692H87.4783V236.941C87.4787 237.591 87.3558 238.234 87.1166 238.834C86.8774 239.434 86.5266 239.979 86.0845 240.437Z" fill="white"/>
<path d="M78.0014 191.462H87.4783V195.846H78.0014V191.462Z" fill="white"/>
<path d="M82.3753 243.346C81.4175 243.346 80.4691 243.177 79.5842 242.848C78.6994 242.519 77.8955 242.038 77.2185 241.43C76.5415 240.823 76.0046 240.102 75.6386 239.309C75.2726 238.515 75.0847 237.665 75.0855 236.807V201.692H76.887V236.807C76.8854 237.453 77.0262 238.094 77.3014 238.692C77.5766 239.289 77.9807 239.833 78.4906 240.29C79.0005 240.748 79.606 241.111 80.2727 241.358C80.9393 241.605 81.6539 241.732 82.3753 241.731C83.8315 241.73 85.2275 241.21 86.2566 240.287C87.2857 239.364 87.8638 238.112 87.8638 236.807V201.692H89.6652V236.807C89.6652 238.54 88.8974 240.203 87.5305 241.429C86.1635 242.655 84.3093 243.345 82.3753 243.346Z" fill="black"/>
<path d="M87.4783 191.462H89.6652V195.846H87.4783V191.462Z" fill="black"/>
<path d="M75.0855 191.462H78.0014V195.846H75.0855V191.462Z" fill="black"/>
<path d="M73.6275 181.231H91.1232V190H73.6275V181.231Z" fill="#135589"/>
<path d="M87.2243 191.462H73.6883C73.4788 191.462 73.278 191.376 73.1299 191.224C72.9818 191.072 72.8986 190.866 72.8986 190.651V179.849C72.8986 179.634 72.9818 179.428 73.1299 179.276C73.278 179.124 73.4788 179.038 73.6883 179.038H91.0624C91.2719 179.038 91.4728 179.124 91.6209 179.276C91.769 179.428 91.8522 179.634 91.8522 179.849V190.651C91.8522 190.866 91.769 191.072 91.6209 191.224C91.4728 191.376 91.2719 191.462 91.0624 191.462H87.1769H87.2243ZM90.3201 180.659H74.5254V189.841H90.3201V180.659Z" fill="black"/>
<path d="M43.0102 191.462H52.487V195.846H43.0102V191.462Z" fill="white"/>
<path d="M51.0983 240.437C50.6588 240.897 50.1363 241.261 49.5609 241.51C48.9856 241.758 48.3687 241.886 47.746 241.885C46.4895 241.883 45.2849 241.362 44.3969 240.435C43.5089 239.508 43.0102 238.251 43.0102 236.941V201.692H52.487V236.941C52.4872 237.59 52.3647 238.233 52.1264 238.833C51.8882 239.433 51.5388 239.978 51.0983 240.437Z" fill="white"/>
<path d="M47.7428 243.346C45.9066 243.343 44.1466 242.653 42.8493 241.427C41.5519 240.201 40.8232 238.539 40.8232 236.807V201.692H42.5346V236.807C42.5346 238.112 43.0837 239.364 44.0613 240.287C45.039 241.21 46.3652 241.73 47.7486 241.731C48.434 241.732 49.1128 241.605 49.7461 241.358C50.3794 241.111 50.9547 240.748 51.4391 240.29C51.9234 239.833 52.3074 239.289 52.5688 238.692C52.8302 238.094 52.964 237.453 52.9625 236.807V201.692H54.6739V236.807C54.6747 237.666 54.4959 238.516 54.1478 239.31C53.7998 240.104 53.2893 240.825 52.6455 241.432C52.0017 242.04 51.2374 242.521 50.3961 242.85C49.5549 243.178 48.6533 243.347 47.7428 243.346Z" fill="black"/>
<path d="M40.8232 191.462H43.0101V195.846H40.8232V191.462Z" fill="black"/>
<path d="M52.487 191.462H54.6739V195.846H52.487V191.462Z" fill="black"/>
<path d="M40.0942 181.231H56.1319V190H40.0942V181.231Z" fill="#135589"/>
<path d="M53.4705 191.462H39.4552C39.2383 191.46 39.0306 191.375 38.8765 191.224C38.7229 191.072 38.6364 190.866 38.6362 190.651V179.849C38.6362 179.634 38.7225 179.428 38.8761 179.276C39.0297 179.124 39.238 179.038 39.4552 179.038H57.4999C57.7171 179.038 57.9254 179.124 58.079 179.276C58.2326 179.428 58.3188 179.634 58.3188 179.849V190.651C58.3188 190.866 58.2326 191.072 58.079 191.224C57.9254 191.376 57.7171 191.462 57.4999 191.462H53.4705ZM56.6809 180.659H40.2742V189.841H56.6809V180.659Z" fill="black"/>
<path d="M32.8601 249.923H132.62H140.694V252.846H24.7855V249.923H32.8601Z" fill="black"/>
<path d="M24.421 250.683H24.7855V252.846H24.0565V249.923C24.0565 250.125 24.0949 250.318 24.1633 250.46C24.2316 250.603 24.3243 250.683 24.421 250.683Z" fill="black"/>
<path d="M33.3767 249.709C33.4525 249.641 33.5125 249.561 33.5533 249.472C33.5941 249.383 33.6149 249.288 33.6144 249.192V248.462H131.136V249.192C131.136 249.288 131.156 249.384 131.197 249.473C131.237 249.562 131.297 249.642 131.372 249.71C131.447 249.778 131.537 249.832 131.636 249.869C131.734 249.905 131.84 249.924 131.946 249.923H32.8044C33.0191 249.923 33.225 249.846 33.3767 249.709Z" fill="black"/>
<path d="M140.694 252.846V250.683H141.059C141.155 250.682 141.248 250.602 141.316 250.46C141.35 250.39 141.377 250.306 141.396 250.214C141.414 250.122 141.423 250.023 141.423 249.923V252.846H140.694Z" fill="black"/>
<path d="M133.435 200.912C133.435 200.7 133.349 200.497 133.196 200.347C133.043 200.197 132.836 200.113 132.62 200.113H32.8601C32.644 200.113 32.4366 200.197 32.2838 200.347C32.1309 200.497 32.0451 200.7 32.0451 200.912V248.462H24.7855V197.308H140.694V248.462H133.435V200.912Z" fill="white"/>
<path d="M140.62 249.923H131.865C131.76 249.924 131.655 249.904 131.557 249.864C131.459 249.824 131.371 249.766 131.296 249.692C131.221 249.618 131.162 249.53 131.122 249.433C131.082 249.336 131.062 249.232 131.062 249.127V201.82H34.4173V249.127C34.4178 249.232 34.3972 249.335 34.3568 249.432C34.3163 249.529 34.2568 249.616 34.1817 249.69C34.0313 249.839 33.8273 249.923 33.6145 249.923H24.8592C24.6463 249.923 24.4422 249.839 24.2916 249.69C24.1411 249.541 24.0565 249.338 24.0565 249.127V196.642C24.0578 196.431 24.1423 196.229 24.2919 196.08C24.4423 195.93 24.6464 195.846 24.8592 195.846H140.62C140.833 195.846 141.038 195.93 141.188 196.079C141.339 196.229 141.423 196.431 141.423 196.642V249.127C141.424 249.232 141.403 249.335 141.363 249.432C141.322 249.529 141.263 249.616 141.188 249.69C141.037 249.838 140.833 249.922 140.62 249.923ZM139.818 197.438H25.662V248.332H32.8118V201.024C32.8118 200.813 32.8963 200.611 33.0469 200.461C33.1974 200.312 33.4016 200.228 33.6145 200.228H131.865C132.078 200.228 132.282 200.312 132.433 200.461C132.583 200.611 132.668 200.813 132.668 201.024V248.332H139.818V197.438Z" fill="black"/>
<path d="M138.507 517.385H21.1406V264.538H138.507V517.385ZM80.5204 285.99C72.6166 285.995 64.8917 288.357 58.3225 292.777C51.7533 297.196 46.6346 303.476 43.6136 310.82C40.5926 318.165 39.8049 326.246 41.3501 334.041C42.8954 341.836 46.7041 348.995 52.2949 354.613C57.8856 360.231 65.0074 364.057 72.7598 365.605C80.5122 367.154 88.5471 366.357 95.8488 363.314C103.151 360.271 109.391 355.119 113.782 348.51C118.172 341.901 120.516 334.131 120.516 326.183C120.514 320.903 119.479 315.675 117.468 310.797C115.457 305.919 112.511 301.488 108.797 297.756C105.083 294.023 100.674 291.063 95.8223 289.044C90.9706 287.026 85.771 285.988 80.5204 285.99Z" fill="white"/>
<path d="M21.3018 264.538V517.208H139.075V264.538H140.694V518.035C140.693 518.25 140.608 518.456 140.457 518.608C140.305 518.76 140.099 518.846 139.885 518.846H20.4922C20.2759 518.846 20.0684 518.761 19.9147 518.608C19.7672 518.454 19.6842 518.249 19.6826 518.035V264.538H21.3018Z" fill="black"/>
<path d="M0.728973 255.038H160.377V263.077H0.728973V255.038Z" fill="white"/>
<path d="M0.236023 253.066C0.387405 252.926 0.591431 252.847 0.804489 252.846H161.03C161.245 252.846 161.451 252.925 161.604 253.066C161.751 253.208 161.833 253.398 161.835 253.595V263.79C161.833 263.987 161.751 264.176 161.604 264.319C161.451 264.46 161.245 264.539 161.03 264.538H0.804489C0.591431 264.537 0.387405 264.458 0.236023 264.319C0.0851135 264.179 0.000198364 263.988 1.52588e-05 263.79V253.595C0.00135803 253.397 0.0860901 253.207 0.236023 253.066ZM160.231 254.344H1.63045V263.041H160.231V254.344Z" fill="black"/>
<path d="M80.5262 366.115C72.6695 366.11 64.9908 363.77 58.4608 359.39C51.9308 355.011 46.8427 348.789 43.8398 341.511C40.8368 334.233 40.0538 326.226 41.5898 318.502C43.1258 310.778 46.9118 303.684 52.4692 298.117C58.0266 292.55 65.1058 288.759 72.8119 287.225C80.518 285.69 88.5049 286.481 95.763 289.496C103.021 292.511 109.224 297.616 113.589 304.165C117.953 310.714 120.283 318.413 120.283 326.288C120.281 331.52 119.252 336.701 117.253 341.534C115.254 346.367 112.325 350.758 108.634 354.457C104.942 358.155 100.559 361.088 95.7366 363.089C90.9139 365.089 85.7454 366.118 80.5262 366.115ZM80.5262 288.069C71.7022 288.072 63.152 291.141 56.3324 296.755C49.5127 302.368 44.8456 310.178 43.1262 318.854C41.4067 327.53 42.7414 336.535 46.9026 344.336C51.0639 352.136 57.7944 358.248 65.9473 361.632C74.1003 365.016 83.1713 365.461 91.615 362.891C100.059 360.322 107.352 354.898 112.254 347.542C117.155 340.187 119.361 331.355 118.495 322.552C117.629 313.749 113.745 305.52 107.505 299.266C103.965 295.71 99.7594 292.891 95.1297 290.969C90.4999 289.048 85.537 288.062 80.5262 288.069Z" fill="black"/>
<path d="M134.862 111.808C126.81 111.808 120.283 105.428 120.283 97.5577C120.283 89.6877 126.81 83.3077 134.862 83.3077C142.914 83.3077 149.442 89.6877 149.442 97.5577C149.442 105.428 142.914 111.808 134.862 111.808Z" fill="white"/>
<path d="M154.481 98.7209C152.008 98.7203 149.56 99.2078 147.276 100.156C144.992 101.104 142.916 102.493 141.168 104.246C139.419 105.998 138.032 108.078 137.086 110.367C136.14 112.657 135.653 115.111 135.653 117.589C135.653 117.8 135.569 118.003 135.421 118.152C135.272 118.301 135.07 118.385 134.86 118.385C134.755 118.386 134.652 118.366 134.556 118.325C134.459 118.285 134.372 118.226 134.299 118.151C134.15 118.002 134.067 117.8 134.066 117.589C134.066 112.585 132.083 107.786 128.553 104.247C125.024 100.709 120.236 98.7209 115.244 98.7209C115.032 98.721 114.829 98.6372 114.678 98.4877C114.534 98.3363 114.452 98.1352 114.451 97.9257C114.45 97.8211 114.47 97.7174 114.51 97.6206C114.549 97.5238 114.608 97.4358 114.682 97.3618C114.755 97.2878 114.843 97.2293 114.94 97.1896C115.036 97.1499 115.14 97.1298 115.244 97.1305C120.236 97.1277 125.023 95.1381 128.552 91.5991C132.082 88.06 134.065 83.2611 134.066 78.2568C134.068 78.0462 134.151 77.8445 134.299 77.6948C134.448 77.5456 134.649 77.4617 134.86 77.4615C135.07 77.4617 135.272 77.5456 135.42 77.6948C135.568 77.8445 135.652 78.0462 135.653 78.2568C135.654 83.262 137.638 88.0617 141.169 91.6009C144.7 95.1401 149.488 97.1291 154.481 97.1305C154.691 97.1318 154.892 97.2155 155.041 97.3637C155.19 97.5127 155.274 97.7149 155.274 97.9257C155.274 98.1366 155.19 98.3389 155.041 98.488C154.893 98.6372 154.691 98.7209 154.481 98.7209ZM134.849 83.8765C133.898 87.2203 132.113 90.2663 129.663 92.7279C127.213 95.1894 124.178 96.9854 120.845 97.9469C124.179 98.9075 127.214 100.703 129.664 103.165C132.114 105.627 133.898 108.673 134.849 112.017C135.8 108.674 137.584 105.628 140.033 103.167C142.482 100.705 145.515 98.9087 148.848 97.9469C145.513 96.9823 142.479 95.1825 140.029 92.7172C137.58 90.2519 135.798 87.2021 134.849 83.8553V83.8765Z" fill="black"/>
<path d="M461.083 432.615C461.999 436.001 463.718 439.086 466.077 441.579C468.436 444.072 471.359 445.891 474.57 446.865C471.359 447.84 468.437 449.66 466.078 452.153C463.719 454.645 462 457.73 461.083 461.115C460.167 457.73 458.448 454.645 456.089 452.153C453.729 449.66 450.807 447.84 447.597 446.865C450.808 445.891 453.73 444.072 456.09 441.579C458.449 439.086 460.168 436.001 461.083 432.615Z" fill="white"/>
<path d="M460.821 427.007C460.977 426.854 461.187 426.769 461.407 426.769C461.624 426.771 461.833 426.856 461.987 427.007C462.142 427.158 462.228 427.364 462.228 427.579C462.228 430.105 462.733 432.606 463.715 434.939C464.697 437.272 466.137 439.392 467.952 441.176C469.767 442.96 471.922 444.374 474.292 445.336C476.663 446.298 479.203 446.79 481.767 446.784C481.985 446.784 482.194 446.87 482.347 447.021C482.501 447.174 482.587 447.379 482.589 447.593C482.589 447.808 482.502 448.014 482.348 448.166C482.194 448.318 481.985 448.403 481.767 448.403C479.206 448.403 476.671 448.9 474.305 449.865C471.94 450.831 469.79 452.246 467.98 454.03C466.17 455.814 464.734 457.932 463.755 460.262C462.775 462.593 462.272 465.091 462.272 467.614C462.272 467.828 462.186 468.034 462.032 468.186C461.878 468.338 461.669 468.423 461.451 468.423C461.231 468.423 461.021 468.338 460.865 468.186C460.715 468.031 460.631 467.827 460.629 467.614C460.628 462.519 458.573 457.633 454.916 454.031C451.259 450.429 446.3 448.404 441.129 448.403C440.911 448.401 440.703 448.316 440.548 448.165C440.394 448.014 440.308 447.808 440.307 447.593C440.307 447.379 440.394 447.173 440.548 447.021C440.702 446.869 440.911 446.784 441.129 446.784C443.689 446.785 446.225 446.288 448.591 445.324C450.957 444.359 453.106 442.944 454.917 441.161C456.728 439.377 458.165 437.26 459.145 434.929C460.125 432.599 460.629 430.101 460.629 427.579C460.618 427.371 460.686 427.167 460.821 427.007ZM461.418 461.915C462.403 458.512 464.251 455.413 466.788 452.907C469.324 450.402 472.466 448.573 475.917 447.593C472.465 446.614 469.323 444.786 466.787 442.281C464.25 439.775 462.402 436.675 461.418 433.272C460.433 436.675 458.586 439.775 456.049 442.281C453.513 444.786 450.37 446.614 446.919 447.593C450.37 448.573 453.512 450.402 456.048 452.907C458.584 455.413 460.432 458.512 461.418 461.915Z" fill="black"/>
<path d="M166.932 363.923C164.626 363.922 162.371 363.214 160.454 361.888C158.536 360.563 157.042 358.679 156.16 356.476C155.278 354.272 155.048 351.848 155.499 349.51C155.949 347.171 157.061 345.023 158.692 343.337C160.323 341.652 162.402 340.504 164.664 340.039C166.927 339.574 169.271 339.813 171.402 340.726C173.533 341.639 175.355 343.184 176.636 345.167C177.918 347.15 178.601 349.481 178.601 351.865C178.6 355.064 177.37 358.131 175.182 360.392C172.994 362.653 170.026 363.923 166.932 363.923ZM166.932 343.845C165.402 343.845 163.906 344.314 162.633 345.193C161.361 346.072 160.369 347.322 159.784 348.784C159.198 350.246 159.045 351.854 159.344 353.406C159.643 354.958 160.381 356.383 161.463 357.501C162.546 358.62 163.925 359.381 165.426 359.689C166.927 359.997 168.483 359.838 169.897 359.232C171.311 358.626 172.519 357.6 173.368 356.283C174.218 354.967 174.671 353.42 174.67 351.838C174.661 349.722 173.843 347.696 172.392 346.203C170.942 344.71 168.979 343.872 166.932 343.872V343.845Z" fill="#EC744A"/>
<path d="M251.98 76.0209C252.193 76.0443 252.387 76.1521 252.521 76.3208C252.655 76.4895 252.718 76.7052 252.695 76.9206L252.631 77.4658L250.212 99.6738L259.107 109.892C259.196 109.994 259.258 110.116 259.288 110.249C259.318 110.381 259.315 110.519 259.279 110.65L254.824 126.958C257.517 130.565 260.029 134.309 262.348 138.174C264.403 141.561 266.217 145.092 267.777 148.741C268.246 149.871 268.664 150.993 269.029 152.105C269.832 154.387 270.311 156.774 270.453 159.193C270.459 159.41 270.381 159.62 270.235 159.778C270.089 159.936 269.887 160.03 269.674 160.038C269.461 160.043 269.255 159.963 269.099 159.815C268.943 159.667 268.851 159.464 268.841 159.248C268.755 156.352 267.766 152.89 266.288 149.362C264.09 144.062 260.843 138.615 258.145 134.499C256.802 132.443 255.592 130.72 254.721 129.515C254.286 128.91 253.931 128.425 253.69 128.109L253.415 127.743L253.319 127.618C253.241 127.517 253.188 127.4 253.164 127.275C253.14 127.15 253.145 127.021 253.179 126.898L257.624 110.622L248.788 100.47C248.713 100.384 248.656 100.284 248.622 100.175C248.588 100.066 248.577 99.9511 248.589 99.8374L250.975 77.9075L251.104 76.708C251.12 76.5527 251.179 76.4052 251.274 76.2826C251.369 76.16 251.497 76.0674 251.642 76.0155C251.754 75.9931 251.869 75.995 251.98 76.0209Z" fill="black"/>
<path d="M314.19 111.497C314.202 111.643 314.174 111.789 314.108 111.92C314.043 112.051 313.943 112.162 313.819 112.241L306.287 117.054L310.173 135.194C310.199 135.314 310.197 135.439 310.167 135.559C310.137 135.678 310.079 135.79 309.998 135.884L309.802 136.11C308.841 137.258 304.464 142.512 300.261 148.602C298.161 151.595 296.249 154.712 294.535 157.936C293.803 159.331 293.163 160.771 292.62 162.248C292.178 163.412 291.892 164.627 291.768 165.864C291.762 165.94 291.743 166.015 291.714 166.085C291.65 166.26 291.526 166.407 291.364 166.502C291.203 166.598 291.012 166.634 290.826 166.606C290.64 166.578 290.47 166.487 290.344 166.349C290.218 166.211 290.145 166.034 290.136 165.848C290.136 165.816 290.136 165.783 290.136 165.746C290.29 164.269 290.642 162.819 291.184 161.434C291.506 160.561 291.894 159.661 292.33 158.739C293.311 156.684 294.404 154.684 295.605 152.747C300.518 144.738 307.122 136.762 308.492 135.14L304.573 116.816C304.539 116.657 304.555 116.49 304.618 116.339C304.682 116.188 304.789 116.06 304.928 115.97L312.52 111.12L310.184 82.1419V81.991C310.175 81.8848 310.188 81.778 310.221 81.6767C310.254 81.5754 310.307 81.4815 310.377 81.4004C310.447 81.3194 310.533 81.2527 310.629 81.2042C310.725 81.1557 310.83 81.1264 310.937 81.1179C311.045 81.1094 311.153 81.1219 311.255 81.1547C311.358 81.1875 311.453 81.2399 311.535 81.309C311.617 81.378 311.685 81.4624 311.734 81.5572C311.783 81.6521 311.813 81.7555 311.821 81.8617L311.952 83.4784L314.19 111.497Z" fill="black"/>
<path d="M248.965 245.471H249.129H249.177C249.281 245.463 249.386 245.473 249.486 245.502C249.585 245.53 249.678 245.576 249.758 245.636C249.838 245.697 249.904 245.771 249.952 245.855C250.001 245.938 250.03 246.029 250.039 246.123C250.048 246.217 250.037 246.311 250.005 246.401C249.973 246.491 249.923 246.574 249.855 246.646C249.788 246.718 249.705 246.778 249.613 246.821C249.52 246.865 249.418 246.891 249.314 246.899C249.314 246.899 248.002 246.999 246.001 246.999C242.875 247.015 239.754 246.756 236.682 246.228C233.195 245.59 229.639 244.471 226.988 242.419C226.909 242.356 226.844 242.28 226.797 242.195C226.751 242.11 226.723 242.018 226.716 241.923C226.709 241.828 226.723 241.733 226.757 241.644C226.791 241.554 226.844 241.471 226.914 241.4C226.983 241.328 227.068 241.27 227.162 241.228C227.257 241.186 227.359 241.162 227.465 241.155C227.57 241.149 227.675 241.162 227.775 241.192C227.875 241.223 227.967 241.271 228.046 241.333C230.364 243.123 233.682 244.19 237.042 244.809C240.007 245.319 243.02 245.567 246.038 245.552C247.012 245.552 247.811 245.528 248.362 245.504C248.579 245.495 248.817 245.48 248.965 245.471Z" fill="black"/>
<path d="M305.016 245.55C305.815 245.776 306.634 245.924 307.46 245.992C308.405 246.081 309.442 246.118 310.495 246.118C312.6 246.118 314.773 245.971 316.411 245.818C317.227 245.745 317.915 245.671 318.398 245.613L318.953 245.545H319.148C319.352 245.518 319.559 245.575 319.722 245.703C319.885 245.832 319.992 246.022 320.018 246.231C320.045 246.44 319.989 246.651 319.863 246.818C319.738 246.985 319.552 247.094 319.348 247.121C316.411 247.496 313.455 247.699 310.495 247.731C309.406 247.731 308.323 247.694 307.316 247.594C306.389 247.52 305.47 247.353 304.574 247.095C304.473 247.07 304.377 247.023 304.294 246.959C304.21 246.895 304.141 246.814 304.089 246.721C304.037 246.628 304.004 246.526 303.992 246.419C303.98 246.313 303.989 246.206 304.019 246.103C304.049 246.001 304.099 245.906 304.166 245.824C304.233 245.742 304.316 245.675 304.409 245.626C304.503 245.578 304.604 245.55 304.709 245.543C304.813 245.536 304.917 245.551 305.016 245.587V245.55Z" fill="black"/>
</svg>
